%
M48
M72
T01C0.01969
T02C0.03150
T03C0.03200
T04C0.03543
T05C0.03937
T06C0.04000
T07C0.05118
T08C0.05906
%
T01
X12307Y30339
X49307Y36439
X92614Y36439
X129314Y30939
X110400Y89749
X95800Y96849
X78214Y81139
X78500Y138149
X66214Y140639
X54031Y151949
X38331Y180849
X30514Y177739
X30314Y195939
X32000Y129049
X28100Y93349
X33014Y101439
X42800Y94849
X19500Y85949
X77231Y171649
X85031Y164649
X100746Y157649
X105614Y150539
X113414Y186439
T02
X58600Y306549
X120800Y297549
X121300Y336149
X20373Y188829
X20373Y173869
T03
X13000Y61849
X43000Y61849
X56000Y61849
X86000Y61849
X99000Y61849
X129000Y61849
T04
X25094Y125345
X25094Y107235
T05
X18157Y38408
X37843Y38408
X61157Y38408
X80843Y38408
X104157Y38408
X123843Y38408
T06
X18100Y304449
X38100Y304449
X49000Y196849
X59000Y196849
X69000Y196849
X79000Y196849
X89000Y196849
X99000Y196849
X126200Y113149
X126200Y103149
X126200Y93149
X126200Y83149
X126200Y73149
X19000Y143849
X19000Y153849
X29000Y153849
X29000Y143849
X59000Y109849
X69000Y109849
X79000Y109849
X89000Y109849
T07
X18980Y330632
X38980Y330632
T08
X27102Y282613
X31039Y213715
X101906Y213715
X101906Y282613
M30
