G75*
%MOIN*%
%OFA0B0*%
%FSLAX25Y25*%
%IPPOS*%
%LPD*%
%AMOC8*
5,1,8,0,0,1.08239X$1,22.5*
%
%ADD10C,0.00000*%
%ADD11C,0.05500*%
%ADD12C,0.05500*%
%ADD13R,0.04343X0.03556*%
%ADD14R,0.07887X0.03556*%
%ADD15R,0.09461X0.07099*%
%ADD16C,0.04343*%
%ADD17R,0.15367X0.07493*%
%ADD18R,0.08280X0.09855*%
%ADD19R,0.06312X0.02375*%
%ADD20C,0.03950*%
%ADD21R,0.08280X0.07887*%
%ADD22R,0.10643X0.08674*%
%ADD23R,0.10643X0.06706*%
%ADD24C,0.04737*%
%ADD25R,0.07099X0.07898*%
%ADD26OC8,0.06000*%
%ADD27R,0.03556X0.04343*%
%ADD28R,0.06706X0.02572*%
%ADD29R,0.10249X0.10249*%
%ADD30C,0.08674*%
%ADD31C,0.08400*%
%ADD32C,0.10800*%
%ADD33R,0.07898X0.07099*%
%ADD34C,0.06800*%
%ADD35C,0.04369*%
%ADD36C,0.07400*%
D10*
X0006000Y0010849D02*
X0006000Y0349431D01*
X0135921Y0349431D01*
X0135921Y0010849D01*
X0006000Y0010849D01*
X0016188Y0038408D02*
X0016190Y0038496D01*
X0016196Y0038584D01*
X0016206Y0038672D01*
X0016220Y0038760D01*
X0016237Y0038846D01*
X0016259Y0038932D01*
X0016284Y0039016D01*
X0016314Y0039100D01*
X0016346Y0039182D01*
X0016383Y0039262D01*
X0016423Y0039341D01*
X0016467Y0039418D01*
X0016514Y0039493D01*
X0016564Y0039565D01*
X0016618Y0039636D01*
X0016674Y0039703D01*
X0016734Y0039769D01*
X0016796Y0039831D01*
X0016862Y0039891D01*
X0016929Y0039947D01*
X0017000Y0040001D01*
X0017072Y0040051D01*
X0017147Y0040098D01*
X0017224Y0040142D01*
X0017303Y0040182D01*
X0017383Y0040219D01*
X0017465Y0040251D01*
X0017549Y0040281D01*
X0017633Y0040306D01*
X0017719Y0040328D01*
X0017805Y0040345D01*
X0017893Y0040359D01*
X0017981Y0040369D01*
X0018069Y0040375D01*
X0018157Y0040377D01*
X0018245Y0040375D01*
X0018333Y0040369D01*
X0018421Y0040359D01*
X0018509Y0040345D01*
X0018595Y0040328D01*
X0018681Y0040306D01*
X0018765Y0040281D01*
X0018849Y0040251D01*
X0018931Y0040219D01*
X0019011Y0040182D01*
X0019090Y0040142D01*
X0019167Y0040098D01*
X0019242Y0040051D01*
X0019314Y0040001D01*
X0019385Y0039947D01*
X0019452Y0039891D01*
X0019518Y0039831D01*
X0019580Y0039769D01*
X0019640Y0039703D01*
X0019696Y0039636D01*
X0019750Y0039565D01*
X0019800Y0039493D01*
X0019847Y0039418D01*
X0019891Y0039341D01*
X0019931Y0039262D01*
X0019968Y0039182D01*
X0020000Y0039100D01*
X0020030Y0039016D01*
X0020055Y0038932D01*
X0020077Y0038846D01*
X0020094Y0038760D01*
X0020108Y0038672D01*
X0020118Y0038584D01*
X0020124Y0038496D01*
X0020126Y0038408D01*
X0020124Y0038320D01*
X0020118Y0038232D01*
X0020108Y0038144D01*
X0020094Y0038056D01*
X0020077Y0037970D01*
X0020055Y0037884D01*
X0020030Y0037800D01*
X0020000Y0037716D01*
X0019968Y0037634D01*
X0019931Y0037554D01*
X0019891Y0037475D01*
X0019847Y0037398D01*
X0019800Y0037323D01*
X0019750Y0037251D01*
X0019696Y0037180D01*
X0019640Y0037113D01*
X0019580Y0037047D01*
X0019518Y0036985D01*
X0019452Y0036925D01*
X0019385Y0036869D01*
X0019314Y0036815D01*
X0019242Y0036765D01*
X0019167Y0036718D01*
X0019090Y0036674D01*
X0019011Y0036634D01*
X0018931Y0036597D01*
X0018849Y0036565D01*
X0018765Y0036535D01*
X0018681Y0036510D01*
X0018595Y0036488D01*
X0018509Y0036471D01*
X0018421Y0036457D01*
X0018333Y0036447D01*
X0018245Y0036441D01*
X0018157Y0036439D01*
X0018069Y0036441D01*
X0017981Y0036447D01*
X0017893Y0036457D01*
X0017805Y0036471D01*
X0017719Y0036488D01*
X0017633Y0036510D01*
X0017549Y0036535D01*
X0017465Y0036565D01*
X0017383Y0036597D01*
X0017303Y0036634D01*
X0017224Y0036674D01*
X0017147Y0036718D01*
X0017072Y0036765D01*
X0017000Y0036815D01*
X0016929Y0036869D01*
X0016862Y0036925D01*
X0016796Y0036985D01*
X0016734Y0037047D01*
X0016674Y0037113D01*
X0016618Y0037180D01*
X0016564Y0037251D01*
X0016514Y0037323D01*
X0016467Y0037398D01*
X0016423Y0037475D01*
X0016383Y0037554D01*
X0016346Y0037634D01*
X0016314Y0037716D01*
X0016284Y0037800D01*
X0016259Y0037884D01*
X0016237Y0037970D01*
X0016220Y0038056D01*
X0016206Y0038144D01*
X0016196Y0038232D01*
X0016190Y0038320D01*
X0016188Y0038408D01*
X0035874Y0038408D02*
X0035876Y0038496D01*
X0035882Y0038584D01*
X0035892Y0038672D01*
X0035906Y0038760D01*
X0035923Y0038846D01*
X0035945Y0038932D01*
X0035970Y0039016D01*
X0036000Y0039100D01*
X0036032Y0039182D01*
X0036069Y0039262D01*
X0036109Y0039341D01*
X0036153Y0039418D01*
X0036200Y0039493D01*
X0036250Y0039565D01*
X0036304Y0039636D01*
X0036360Y0039703D01*
X0036420Y0039769D01*
X0036482Y0039831D01*
X0036548Y0039891D01*
X0036615Y0039947D01*
X0036686Y0040001D01*
X0036758Y0040051D01*
X0036833Y0040098D01*
X0036910Y0040142D01*
X0036989Y0040182D01*
X0037069Y0040219D01*
X0037151Y0040251D01*
X0037235Y0040281D01*
X0037319Y0040306D01*
X0037405Y0040328D01*
X0037491Y0040345D01*
X0037579Y0040359D01*
X0037667Y0040369D01*
X0037755Y0040375D01*
X0037843Y0040377D01*
X0037931Y0040375D01*
X0038019Y0040369D01*
X0038107Y0040359D01*
X0038195Y0040345D01*
X0038281Y0040328D01*
X0038367Y0040306D01*
X0038451Y0040281D01*
X0038535Y0040251D01*
X0038617Y0040219D01*
X0038697Y0040182D01*
X0038776Y0040142D01*
X0038853Y0040098D01*
X0038928Y0040051D01*
X0039000Y0040001D01*
X0039071Y0039947D01*
X0039138Y0039891D01*
X0039204Y0039831D01*
X0039266Y0039769D01*
X0039326Y0039703D01*
X0039382Y0039636D01*
X0039436Y0039565D01*
X0039486Y0039493D01*
X0039533Y0039418D01*
X0039577Y0039341D01*
X0039617Y0039262D01*
X0039654Y0039182D01*
X0039686Y0039100D01*
X0039716Y0039016D01*
X0039741Y0038932D01*
X0039763Y0038846D01*
X0039780Y0038760D01*
X0039794Y0038672D01*
X0039804Y0038584D01*
X0039810Y0038496D01*
X0039812Y0038408D01*
X0039810Y0038320D01*
X0039804Y0038232D01*
X0039794Y0038144D01*
X0039780Y0038056D01*
X0039763Y0037970D01*
X0039741Y0037884D01*
X0039716Y0037800D01*
X0039686Y0037716D01*
X0039654Y0037634D01*
X0039617Y0037554D01*
X0039577Y0037475D01*
X0039533Y0037398D01*
X0039486Y0037323D01*
X0039436Y0037251D01*
X0039382Y0037180D01*
X0039326Y0037113D01*
X0039266Y0037047D01*
X0039204Y0036985D01*
X0039138Y0036925D01*
X0039071Y0036869D01*
X0039000Y0036815D01*
X0038928Y0036765D01*
X0038853Y0036718D01*
X0038776Y0036674D01*
X0038697Y0036634D01*
X0038617Y0036597D01*
X0038535Y0036565D01*
X0038451Y0036535D01*
X0038367Y0036510D01*
X0038281Y0036488D01*
X0038195Y0036471D01*
X0038107Y0036457D01*
X0038019Y0036447D01*
X0037931Y0036441D01*
X0037843Y0036439D01*
X0037755Y0036441D01*
X0037667Y0036447D01*
X0037579Y0036457D01*
X0037491Y0036471D01*
X0037405Y0036488D01*
X0037319Y0036510D01*
X0037235Y0036535D01*
X0037151Y0036565D01*
X0037069Y0036597D01*
X0036989Y0036634D01*
X0036910Y0036674D01*
X0036833Y0036718D01*
X0036758Y0036765D01*
X0036686Y0036815D01*
X0036615Y0036869D01*
X0036548Y0036925D01*
X0036482Y0036985D01*
X0036420Y0037047D01*
X0036360Y0037113D01*
X0036304Y0037180D01*
X0036250Y0037251D01*
X0036200Y0037323D01*
X0036153Y0037398D01*
X0036109Y0037475D01*
X0036069Y0037554D01*
X0036032Y0037634D01*
X0036000Y0037716D01*
X0035970Y0037800D01*
X0035945Y0037884D01*
X0035923Y0037970D01*
X0035906Y0038056D01*
X0035892Y0038144D01*
X0035882Y0038232D01*
X0035876Y0038320D01*
X0035874Y0038408D01*
X0059188Y0038408D02*
X0059190Y0038496D01*
X0059196Y0038584D01*
X0059206Y0038672D01*
X0059220Y0038760D01*
X0059237Y0038846D01*
X0059259Y0038932D01*
X0059284Y0039016D01*
X0059314Y0039100D01*
X0059346Y0039182D01*
X0059383Y0039262D01*
X0059423Y0039341D01*
X0059467Y0039418D01*
X0059514Y0039493D01*
X0059564Y0039565D01*
X0059618Y0039636D01*
X0059674Y0039703D01*
X0059734Y0039769D01*
X0059796Y0039831D01*
X0059862Y0039891D01*
X0059929Y0039947D01*
X0060000Y0040001D01*
X0060072Y0040051D01*
X0060147Y0040098D01*
X0060224Y0040142D01*
X0060303Y0040182D01*
X0060383Y0040219D01*
X0060465Y0040251D01*
X0060549Y0040281D01*
X0060633Y0040306D01*
X0060719Y0040328D01*
X0060805Y0040345D01*
X0060893Y0040359D01*
X0060981Y0040369D01*
X0061069Y0040375D01*
X0061157Y0040377D01*
X0061245Y0040375D01*
X0061333Y0040369D01*
X0061421Y0040359D01*
X0061509Y0040345D01*
X0061595Y0040328D01*
X0061681Y0040306D01*
X0061765Y0040281D01*
X0061849Y0040251D01*
X0061931Y0040219D01*
X0062011Y0040182D01*
X0062090Y0040142D01*
X0062167Y0040098D01*
X0062242Y0040051D01*
X0062314Y0040001D01*
X0062385Y0039947D01*
X0062452Y0039891D01*
X0062518Y0039831D01*
X0062580Y0039769D01*
X0062640Y0039703D01*
X0062696Y0039636D01*
X0062750Y0039565D01*
X0062800Y0039493D01*
X0062847Y0039418D01*
X0062891Y0039341D01*
X0062931Y0039262D01*
X0062968Y0039182D01*
X0063000Y0039100D01*
X0063030Y0039016D01*
X0063055Y0038932D01*
X0063077Y0038846D01*
X0063094Y0038760D01*
X0063108Y0038672D01*
X0063118Y0038584D01*
X0063124Y0038496D01*
X0063126Y0038408D01*
X0063124Y0038320D01*
X0063118Y0038232D01*
X0063108Y0038144D01*
X0063094Y0038056D01*
X0063077Y0037970D01*
X0063055Y0037884D01*
X0063030Y0037800D01*
X0063000Y0037716D01*
X0062968Y0037634D01*
X0062931Y0037554D01*
X0062891Y0037475D01*
X0062847Y0037398D01*
X0062800Y0037323D01*
X0062750Y0037251D01*
X0062696Y0037180D01*
X0062640Y0037113D01*
X0062580Y0037047D01*
X0062518Y0036985D01*
X0062452Y0036925D01*
X0062385Y0036869D01*
X0062314Y0036815D01*
X0062242Y0036765D01*
X0062167Y0036718D01*
X0062090Y0036674D01*
X0062011Y0036634D01*
X0061931Y0036597D01*
X0061849Y0036565D01*
X0061765Y0036535D01*
X0061681Y0036510D01*
X0061595Y0036488D01*
X0061509Y0036471D01*
X0061421Y0036457D01*
X0061333Y0036447D01*
X0061245Y0036441D01*
X0061157Y0036439D01*
X0061069Y0036441D01*
X0060981Y0036447D01*
X0060893Y0036457D01*
X0060805Y0036471D01*
X0060719Y0036488D01*
X0060633Y0036510D01*
X0060549Y0036535D01*
X0060465Y0036565D01*
X0060383Y0036597D01*
X0060303Y0036634D01*
X0060224Y0036674D01*
X0060147Y0036718D01*
X0060072Y0036765D01*
X0060000Y0036815D01*
X0059929Y0036869D01*
X0059862Y0036925D01*
X0059796Y0036985D01*
X0059734Y0037047D01*
X0059674Y0037113D01*
X0059618Y0037180D01*
X0059564Y0037251D01*
X0059514Y0037323D01*
X0059467Y0037398D01*
X0059423Y0037475D01*
X0059383Y0037554D01*
X0059346Y0037634D01*
X0059314Y0037716D01*
X0059284Y0037800D01*
X0059259Y0037884D01*
X0059237Y0037970D01*
X0059220Y0038056D01*
X0059206Y0038144D01*
X0059196Y0038232D01*
X0059190Y0038320D01*
X0059188Y0038408D01*
X0078874Y0038408D02*
X0078876Y0038496D01*
X0078882Y0038584D01*
X0078892Y0038672D01*
X0078906Y0038760D01*
X0078923Y0038846D01*
X0078945Y0038932D01*
X0078970Y0039016D01*
X0079000Y0039100D01*
X0079032Y0039182D01*
X0079069Y0039262D01*
X0079109Y0039341D01*
X0079153Y0039418D01*
X0079200Y0039493D01*
X0079250Y0039565D01*
X0079304Y0039636D01*
X0079360Y0039703D01*
X0079420Y0039769D01*
X0079482Y0039831D01*
X0079548Y0039891D01*
X0079615Y0039947D01*
X0079686Y0040001D01*
X0079758Y0040051D01*
X0079833Y0040098D01*
X0079910Y0040142D01*
X0079989Y0040182D01*
X0080069Y0040219D01*
X0080151Y0040251D01*
X0080235Y0040281D01*
X0080319Y0040306D01*
X0080405Y0040328D01*
X0080491Y0040345D01*
X0080579Y0040359D01*
X0080667Y0040369D01*
X0080755Y0040375D01*
X0080843Y0040377D01*
X0080931Y0040375D01*
X0081019Y0040369D01*
X0081107Y0040359D01*
X0081195Y0040345D01*
X0081281Y0040328D01*
X0081367Y0040306D01*
X0081451Y0040281D01*
X0081535Y0040251D01*
X0081617Y0040219D01*
X0081697Y0040182D01*
X0081776Y0040142D01*
X0081853Y0040098D01*
X0081928Y0040051D01*
X0082000Y0040001D01*
X0082071Y0039947D01*
X0082138Y0039891D01*
X0082204Y0039831D01*
X0082266Y0039769D01*
X0082326Y0039703D01*
X0082382Y0039636D01*
X0082436Y0039565D01*
X0082486Y0039493D01*
X0082533Y0039418D01*
X0082577Y0039341D01*
X0082617Y0039262D01*
X0082654Y0039182D01*
X0082686Y0039100D01*
X0082716Y0039016D01*
X0082741Y0038932D01*
X0082763Y0038846D01*
X0082780Y0038760D01*
X0082794Y0038672D01*
X0082804Y0038584D01*
X0082810Y0038496D01*
X0082812Y0038408D01*
X0082810Y0038320D01*
X0082804Y0038232D01*
X0082794Y0038144D01*
X0082780Y0038056D01*
X0082763Y0037970D01*
X0082741Y0037884D01*
X0082716Y0037800D01*
X0082686Y0037716D01*
X0082654Y0037634D01*
X0082617Y0037554D01*
X0082577Y0037475D01*
X0082533Y0037398D01*
X0082486Y0037323D01*
X0082436Y0037251D01*
X0082382Y0037180D01*
X0082326Y0037113D01*
X0082266Y0037047D01*
X0082204Y0036985D01*
X0082138Y0036925D01*
X0082071Y0036869D01*
X0082000Y0036815D01*
X0081928Y0036765D01*
X0081853Y0036718D01*
X0081776Y0036674D01*
X0081697Y0036634D01*
X0081617Y0036597D01*
X0081535Y0036565D01*
X0081451Y0036535D01*
X0081367Y0036510D01*
X0081281Y0036488D01*
X0081195Y0036471D01*
X0081107Y0036457D01*
X0081019Y0036447D01*
X0080931Y0036441D01*
X0080843Y0036439D01*
X0080755Y0036441D01*
X0080667Y0036447D01*
X0080579Y0036457D01*
X0080491Y0036471D01*
X0080405Y0036488D01*
X0080319Y0036510D01*
X0080235Y0036535D01*
X0080151Y0036565D01*
X0080069Y0036597D01*
X0079989Y0036634D01*
X0079910Y0036674D01*
X0079833Y0036718D01*
X0079758Y0036765D01*
X0079686Y0036815D01*
X0079615Y0036869D01*
X0079548Y0036925D01*
X0079482Y0036985D01*
X0079420Y0037047D01*
X0079360Y0037113D01*
X0079304Y0037180D01*
X0079250Y0037251D01*
X0079200Y0037323D01*
X0079153Y0037398D01*
X0079109Y0037475D01*
X0079069Y0037554D01*
X0079032Y0037634D01*
X0079000Y0037716D01*
X0078970Y0037800D01*
X0078945Y0037884D01*
X0078923Y0037970D01*
X0078906Y0038056D01*
X0078892Y0038144D01*
X0078882Y0038232D01*
X0078876Y0038320D01*
X0078874Y0038408D01*
X0102188Y0038408D02*
X0102190Y0038496D01*
X0102196Y0038584D01*
X0102206Y0038672D01*
X0102220Y0038760D01*
X0102237Y0038846D01*
X0102259Y0038932D01*
X0102284Y0039016D01*
X0102314Y0039100D01*
X0102346Y0039182D01*
X0102383Y0039262D01*
X0102423Y0039341D01*
X0102467Y0039418D01*
X0102514Y0039493D01*
X0102564Y0039565D01*
X0102618Y0039636D01*
X0102674Y0039703D01*
X0102734Y0039769D01*
X0102796Y0039831D01*
X0102862Y0039891D01*
X0102929Y0039947D01*
X0103000Y0040001D01*
X0103072Y0040051D01*
X0103147Y0040098D01*
X0103224Y0040142D01*
X0103303Y0040182D01*
X0103383Y0040219D01*
X0103465Y0040251D01*
X0103549Y0040281D01*
X0103633Y0040306D01*
X0103719Y0040328D01*
X0103805Y0040345D01*
X0103893Y0040359D01*
X0103981Y0040369D01*
X0104069Y0040375D01*
X0104157Y0040377D01*
X0104245Y0040375D01*
X0104333Y0040369D01*
X0104421Y0040359D01*
X0104509Y0040345D01*
X0104595Y0040328D01*
X0104681Y0040306D01*
X0104765Y0040281D01*
X0104849Y0040251D01*
X0104931Y0040219D01*
X0105011Y0040182D01*
X0105090Y0040142D01*
X0105167Y0040098D01*
X0105242Y0040051D01*
X0105314Y0040001D01*
X0105385Y0039947D01*
X0105452Y0039891D01*
X0105518Y0039831D01*
X0105580Y0039769D01*
X0105640Y0039703D01*
X0105696Y0039636D01*
X0105750Y0039565D01*
X0105800Y0039493D01*
X0105847Y0039418D01*
X0105891Y0039341D01*
X0105931Y0039262D01*
X0105968Y0039182D01*
X0106000Y0039100D01*
X0106030Y0039016D01*
X0106055Y0038932D01*
X0106077Y0038846D01*
X0106094Y0038760D01*
X0106108Y0038672D01*
X0106118Y0038584D01*
X0106124Y0038496D01*
X0106126Y0038408D01*
X0106124Y0038320D01*
X0106118Y0038232D01*
X0106108Y0038144D01*
X0106094Y0038056D01*
X0106077Y0037970D01*
X0106055Y0037884D01*
X0106030Y0037800D01*
X0106000Y0037716D01*
X0105968Y0037634D01*
X0105931Y0037554D01*
X0105891Y0037475D01*
X0105847Y0037398D01*
X0105800Y0037323D01*
X0105750Y0037251D01*
X0105696Y0037180D01*
X0105640Y0037113D01*
X0105580Y0037047D01*
X0105518Y0036985D01*
X0105452Y0036925D01*
X0105385Y0036869D01*
X0105314Y0036815D01*
X0105242Y0036765D01*
X0105167Y0036718D01*
X0105090Y0036674D01*
X0105011Y0036634D01*
X0104931Y0036597D01*
X0104849Y0036565D01*
X0104765Y0036535D01*
X0104681Y0036510D01*
X0104595Y0036488D01*
X0104509Y0036471D01*
X0104421Y0036457D01*
X0104333Y0036447D01*
X0104245Y0036441D01*
X0104157Y0036439D01*
X0104069Y0036441D01*
X0103981Y0036447D01*
X0103893Y0036457D01*
X0103805Y0036471D01*
X0103719Y0036488D01*
X0103633Y0036510D01*
X0103549Y0036535D01*
X0103465Y0036565D01*
X0103383Y0036597D01*
X0103303Y0036634D01*
X0103224Y0036674D01*
X0103147Y0036718D01*
X0103072Y0036765D01*
X0103000Y0036815D01*
X0102929Y0036869D01*
X0102862Y0036925D01*
X0102796Y0036985D01*
X0102734Y0037047D01*
X0102674Y0037113D01*
X0102618Y0037180D01*
X0102564Y0037251D01*
X0102514Y0037323D01*
X0102467Y0037398D01*
X0102423Y0037475D01*
X0102383Y0037554D01*
X0102346Y0037634D01*
X0102314Y0037716D01*
X0102284Y0037800D01*
X0102259Y0037884D01*
X0102237Y0037970D01*
X0102220Y0038056D01*
X0102206Y0038144D01*
X0102196Y0038232D01*
X0102190Y0038320D01*
X0102188Y0038408D01*
X0121874Y0038408D02*
X0121876Y0038496D01*
X0121882Y0038584D01*
X0121892Y0038672D01*
X0121906Y0038760D01*
X0121923Y0038846D01*
X0121945Y0038932D01*
X0121970Y0039016D01*
X0122000Y0039100D01*
X0122032Y0039182D01*
X0122069Y0039262D01*
X0122109Y0039341D01*
X0122153Y0039418D01*
X0122200Y0039493D01*
X0122250Y0039565D01*
X0122304Y0039636D01*
X0122360Y0039703D01*
X0122420Y0039769D01*
X0122482Y0039831D01*
X0122548Y0039891D01*
X0122615Y0039947D01*
X0122686Y0040001D01*
X0122758Y0040051D01*
X0122833Y0040098D01*
X0122910Y0040142D01*
X0122989Y0040182D01*
X0123069Y0040219D01*
X0123151Y0040251D01*
X0123235Y0040281D01*
X0123319Y0040306D01*
X0123405Y0040328D01*
X0123491Y0040345D01*
X0123579Y0040359D01*
X0123667Y0040369D01*
X0123755Y0040375D01*
X0123843Y0040377D01*
X0123931Y0040375D01*
X0124019Y0040369D01*
X0124107Y0040359D01*
X0124195Y0040345D01*
X0124281Y0040328D01*
X0124367Y0040306D01*
X0124451Y0040281D01*
X0124535Y0040251D01*
X0124617Y0040219D01*
X0124697Y0040182D01*
X0124776Y0040142D01*
X0124853Y0040098D01*
X0124928Y0040051D01*
X0125000Y0040001D01*
X0125071Y0039947D01*
X0125138Y0039891D01*
X0125204Y0039831D01*
X0125266Y0039769D01*
X0125326Y0039703D01*
X0125382Y0039636D01*
X0125436Y0039565D01*
X0125486Y0039493D01*
X0125533Y0039418D01*
X0125577Y0039341D01*
X0125617Y0039262D01*
X0125654Y0039182D01*
X0125686Y0039100D01*
X0125716Y0039016D01*
X0125741Y0038932D01*
X0125763Y0038846D01*
X0125780Y0038760D01*
X0125794Y0038672D01*
X0125804Y0038584D01*
X0125810Y0038496D01*
X0125812Y0038408D01*
X0125810Y0038320D01*
X0125804Y0038232D01*
X0125794Y0038144D01*
X0125780Y0038056D01*
X0125763Y0037970D01*
X0125741Y0037884D01*
X0125716Y0037800D01*
X0125686Y0037716D01*
X0125654Y0037634D01*
X0125617Y0037554D01*
X0125577Y0037475D01*
X0125533Y0037398D01*
X0125486Y0037323D01*
X0125436Y0037251D01*
X0125382Y0037180D01*
X0125326Y0037113D01*
X0125266Y0037047D01*
X0125204Y0036985D01*
X0125138Y0036925D01*
X0125071Y0036869D01*
X0125000Y0036815D01*
X0124928Y0036765D01*
X0124853Y0036718D01*
X0124776Y0036674D01*
X0124697Y0036634D01*
X0124617Y0036597D01*
X0124535Y0036565D01*
X0124451Y0036535D01*
X0124367Y0036510D01*
X0124281Y0036488D01*
X0124195Y0036471D01*
X0124107Y0036457D01*
X0124019Y0036447D01*
X0123931Y0036441D01*
X0123843Y0036439D01*
X0123755Y0036441D01*
X0123667Y0036447D01*
X0123579Y0036457D01*
X0123491Y0036471D01*
X0123405Y0036488D01*
X0123319Y0036510D01*
X0123235Y0036535D01*
X0123151Y0036565D01*
X0123069Y0036597D01*
X0122989Y0036634D01*
X0122910Y0036674D01*
X0122833Y0036718D01*
X0122758Y0036765D01*
X0122686Y0036815D01*
X0122615Y0036869D01*
X0122548Y0036925D01*
X0122482Y0036985D01*
X0122420Y0037047D01*
X0122360Y0037113D01*
X0122304Y0037180D01*
X0122250Y0037251D01*
X0122200Y0037323D01*
X0122153Y0037398D01*
X0122109Y0037475D01*
X0122069Y0037554D01*
X0122032Y0037634D01*
X0122000Y0037716D01*
X0121970Y0037800D01*
X0121945Y0037884D01*
X0121923Y0037970D01*
X0121906Y0038056D01*
X0121892Y0038144D01*
X0121882Y0038232D01*
X0121876Y0038320D01*
X0121874Y0038408D01*
X0023322Y0107235D02*
X0023324Y0107319D01*
X0023330Y0107402D01*
X0023340Y0107485D01*
X0023354Y0107568D01*
X0023371Y0107650D01*
X0023393Y0107731D01*
X0023418Y0107810D01*
X0023447Y0107889D01*
X0023480Y0107966D01*
X0023516Y0108041D01*
X0023556Y0108115D01*
X0023599Y0108187D01*
X0023646Y0108256D01*
X0023696Y0108323D01*
X0023749Y0108388D01*
X0023805Y0108450D01*
X0023863Y0108510D01*
X0023925Y0108567D01*
X0023989Y0108620D01*
X0024056Y0108671D01*
X0024125Y0108718D01*
X0024196Y0108763D01*
X0024269Y0108803D01*
X0024344Y0108840D01*
X0024421Y0108874D01*
X0024499Y0108904D01*
X0024578Y0108930D01*
X0024659Y0108953D01*
X0024741Y0108971D01*
X0024823Y0108986D01*
X0024906Y0108997D01*
X0024989Y0109004D01*
X0025073Y0109007D01*
X0025157Y0109006D01*
X0025240Y0109001D01*
X0025324Y0108992D01*
X0025406Y0108979D01*
X0025488Y0108963D01*
X0025569Y0108942D01*
X0025650Y0108918D01*
X0025728Y0108890D01*
X0025806Y0108858D01*
X0025882Y0108822D01*
X0025956Y0108783D01*
X0026028Y0108741D01*
X0026098Y0108695D01*
X0026166Y0108646D01*
X0026231Y0108594D01*
X0026294Y0108539D01*
X0026354Y0108481D01*
X0026412Y0108420D01*
X0026466Y0108356D01*
X0026518Y0108290D01*
X0026566Y0108222D01*
X0026611Y0108151D01*
X0026652Y0108078D01*
X0026691Y0108004D01*
X0026725Y0107928D01*
X0026756Y0107850D01*
X0026783Y0107771D01*
X0026807Y0107690D01*
X0026826Y0107609D01*
X0026842Y0107527D01*
X0026854Y0107444D01*
X0026862Y0107360D01*
X0026866Y0107277D01*
X0026866Y0107193D01*
X0026862Y0107110D01*
X0026854Y0107026D01*
X0026842Y0106943D01*
X0026826Y0106861D01*
X0026807Y0106780D01*
X0026783Y0106699D01*
X0026756Y0106620D01*
X0026725Y0106542D01*
X0026691Y0106466D01*
X0026652Y0106392D01*
X0026611Y0106319D01*
X0026566Y0106248D01*
X0026518Y0106180D01*
X0026466Y0106114D01*
X0026412Y0106050D01*
X0026354Y0105989D01*
X0026294Y0105931D01*
X0026231Y0105876D01*
X0026166Y0105824D01*
X0026098Y0105775D01*
X0026028Y0105729D01*
X0025956Y0105687D01*
X0025882Y0105648D01*
X0025806Y0105612D01*
X0025728Y0105580D01*
X0025650Y0105552D01*
X0025569Y0105528D01*
X0025488Y0105507D01*
X0025406Y0105491D01*
X0025324Y0105478D01*
X0025240Y0105469D01*
X0025157Y0105464D01*
X0025073Y0105463D01*
X0024989Y0105466D01*
X0024906Y0105473D01*
X0024823Y0105484D01*
X0024741Y0105499D01*
X0024659Y0105517D01*
X0024578Y0105540D01*
X0024499Y0105566D01*
X0024421Y0105596D01*
X0024344Y0105630D01*
X0024269Y0105667D01*
X0024196Y0105707D01*
X0024125Y0105752D01*
X0024056Y0105799D01*
X0023989Y0105850D01*
X0023925Y0105903D01*
X0023863Y0105960D01*
X0023805Y0106020D01*
X0023749Y0106082D01*
X0023696Y0106147D01*
X0023646Y0106214D01*
X0023599Y0106283D01*
X0023556Y0106355D01*
X0023516Y0106429D01*
X0023480Y0106504D01*
X0023447Y0106581D01*
X0023418Y0106660D01*
X0023393Y0106739D01*
X0023371Y0106820D01*
X0023354Y0106902D01*
X0023340Y0106985D01*
X0023330Y0107068D01*
X0023324Y0107151D01*
X0023322Y0107235D01*
X0023322Y0125345D02*
X0023324Y0125429D01*
X0023330Y0125512D01*
X0023340Y0125595D01*
X0023354Y0125678D01*
X0023371Y0125760D01*
X0023393Y0125841D01*
X0023418Y0125920D01*
X0023447Y0125999D01*
X0023480Y0126076D01*
X0023516Y0126151D01*
X0023556Y0126225D01*
X0023599Y0126297D01*
X0023646Y0126366D01*
X0023696Y0126433D01*
X0023749Y0126498D01*
X0023805Y0126560D01*
X0023863Y0126620D01*
X0023925Y0126677D01*
X0023989Y0126730D01*
X0024056Y0126781D01*
X0024125Y0126828D01*
X0024196Y0126873D01*
X0024269Y0126913D01*
X0024344Y0126950D01*
X0024421Y0126984D01*
X0024499Y0127014D01*
X0024578Y0127040D01*
X0024659Y0127063D01*
X0024741Y0127081D01*
X0024823Y0127096D01*
X0024906Y0127107D01*
X0024989Y0127114D01*
X0025073Y0127117D01*
X0025157Y0127116D01*
X0025240Y0127111D01*
X0025324Y0127102D01*
X0025406Y0127089D01*
X0025488Y0127073D01*
X0025569Y0127052D01*
X0025650Y0127028D01*
X0025728Y0127000D01*
X0025806Y0126968D01*
X0025882Y0126932D01*
X0025956Y0126893D01*
X0026028Y0126851D01*
X0026098Y0126805D01*
X0026166Y0126756D01*
X0026231Y0126704D01*
X0026294Y0126649D01*
X0026354Y0126591D01*
X0026412Y0126530D01*
X0026466Y0126466D01*
X0026518Y0126400D01*
X0026566Y0126332D01*
X0026611Y0126261D01*
X0026652Y0126188D01*
X0026691Y0126114D01*
X0026725Y0126038D01*
X0026756Y0125960D01*
X0026783Y0125881D01*
X0026807Y0125800D01*
X0026826Y0125719D01*
X0026842Y0125637D01*
X0026854Y0125554D01*
X0026862Y0125470D01*
X0026866Y0125387D01*
X0026866Y0125303D01*
X0026862Y0125220D01*
X0026854Y0125136D01*
X0026842Y0125053D01*
X0026826Y0124971D01*
X0026807Y0124890D01*
X0026783Y0124809D01*
X0026756Y0124730D01*
X0026725Y0124652D01*
X0026691Y0124576D01*
X0026652Y0124502D01*
X0026611Y0124429D01*
X0026566Y0124358D01*
X0026518Y0124290D01*
X0026466Y0124224D01*
X0026412Y0124160D01*
X0026354Y0124099D01*
X0026294Y0124041D01*
X0026231Y0123986D01*
X0026166Y0123934D01*
X0026098Y0123885D01*
X0026028Y0123839D01*
X0025956Y0123797D01*
X0025882Y0123758D01*
X0025806Y0123722D01*
X0025728Y0123690D01*
X0025650Y0123662D01*
X0025569Y0123638D01*
X0025488Y0123617D01*
X0025406Y0123601D01*
X0025324Y0123588D01*
X0025240Y0123579D01*
X0025157Y0123574D01*
X0025073Y0123573D01*
X0024989Y0123576D01*
X0024906Y0123583D01*
X0024823Y0123594D01*
X0024741Y0123609D01*
X0024659Y0123627D01*
X0024578Y0123650D01*
X0024499Y0123676D01*
X0024421Y0123706D01*
X0024344Y0123740D01*
X0024269Y0123777D01*
X0024196Y0123817D01*
X0024125Y0123862D01*
X0024056Y0123909D01*
X0023989Y0123960D01*
X0023925Y0124013D01*
X0023863Y0124070D01*
X0023805Y0124130D01*
X0023749Y0124192D01*
X0023696Y0124257D01*
X0023646Y0124324D01*
X0023599Y0124393D01*
X0023556Y0124465D01*
X0023516Y0124539D01*
X0023480Y0124614D01*
X0023447Y0124691D01*
X0023418Y0124770D01*
X0023393Y0124849D01*
X0023371Y0124930D01*
X0023354Y0125012D01*
X0023340Y0125095D01*
X0023330Y0125178D01*
X0023324Y0125261D01*
X0023322Y0125345D01*
X0018798Y0173869D02*
X0018800Y0173948D01*
X0018806Y0174027D01*
X0018816Y0174106D01*
X0018830Y0174184D01*
X0018847Y0174261D01*
X0018869Y0174337D01*
X0018894Y0174412D01*
X0018924Y0174485D01*
X0018956Y0174557D01*
X0018993Y0174628D01*
X0019033Y0174696D01*
X0019076Y0174762D01*
X0019122Y0174826D01*
X0019172Y0174888D01*
X0019225Y0174947D01*
X0019280Y0175003D01*
X0019339Y0175057D01*
X0019400Y0175107D01*
X0019463Y0175155D01*
X0019529Y0175199D01*
X0019597Y0175240D01*
X0019667Y0175277D01*
X0019738Y0175311D01*
X0019812Y0175341D01*
X0019886Y0175367D01*
X0019962Y0175389D01*
X0020039Y0175408D01*
X0020117Y0175423D01*
X0020195Y0175434D01*
X0020274Y0175441D01*
X0020353Y0175444D01*
X0020432Y0175443D01*
X0020511Y0175438D01*
X0020590Y0175429D01*
X0020668Y0175416D01*
X0020745Y0175399D01*
X0020822Y0175379D01*
X0020897Y0175354D01*
X0020971Y0175326D01*
X0021044Y0175294D01*
X0021114Y0175259D01*
X0021183Y0175220D01*
X0021250Y0175177D01*
X0021315Y0175131D01*
X0021377Y0175083D01*
X0021437Y0175031D01*
X0021494Y0174976D01*
X0021548Y0174918D01*
X0021599Y0174858D01*
X0021647Y0174795D01*
X0021692Y0174730D01*
X0021734Y0174662D01*
X0021772Y0174593D01*
X0021806Y0174522D01*
X0021837Y0174449D01*
X0021865Y0174374D01*
X0021888Y0174299D01*
X0021908Y0174222D01*
X0021924Y0174145D01*
X0021936Y0174066D01*
X0021944Y0173988D01*
X0021948Y0173909D01*
X0021948Y0173829D01*
X0021944Y0173750D01*
X0021936Y0173672D01*
X0021924Y0173593D01*
X0021908Y0173516D01*
X0021888Y0173439D01*
X0021865Y0173364D01*
X0021837Y0173289D01*
X0021806Y0173216D01*
X0021772Y0173145D01*
X0021734Y0173076D01*
X0021692Y0173008D01*
X0021647Y0172943D01*
X0021599Y0172880D01*
X0021548Y0172820D01*
X0021494Y0172762D01*
X0021437Y0172707D01*
X0021377Y0172655D01*
X0021315Y0172607D01*
X0021250Y0172561D01*
X0021183Y0172518D01*
X0021114Y0172479D01*
X0021044Y0172444D01*
X0020971Y0172412D01*
X0020897Y0172384D01*
X0020822Y0172359D01*
X0020745Y0172339D01*
X0020668Y0172322D01*
X0020590Y0172309D01*
X0020511Y0172300D01*
X0020432Y0172295D01*
X0020353Y0172294D01*
X0020274Y0172297D01*
X0020195Y0172304D01*
X0020117Y0172315D01*
X0020039Y0172330D01*
X0019962Y0172349D01*
X0019886Y0172371D01*
X0019812Y0172397D01*
X0019738Y0172427D01*
X0019667Y0172461D01*
X0019597Y0172498D01*
X0019529Y0172539D01*
X0019463Y0172583D01*
X0019400Y0172631D01*
X0019339Y0172681D01*
X0019280Y0172735D01*
X0019225Y0172791D01*
X0019172Y0172850D01*
X0019122Y0172912D01*
X0019076Y0172976D01*
X0019033Y0173042D01*
X0018993Y0173110D01*
X0018956Y0173181D01*
X0018924Y0173253D01*
X0018894Y0173326D01*
X0018869Y0173401D01*
X0018847Y0173477D01*
X0018830Y0173554D01*
X0018816Y0173632D01*
X0018806Y0173711D01*
X0018800Y0173790D01*
X0018798Y0173869D01*
X0018798Y0188829D02*
X0018800Y0188908D01*
X0018806Y0188987D01*
X0018816Y0189066D01*
X0018830Y0189144D01*
X0018847Y0189221D01*
X0018869Y0189297D01*
X0018894Y0189372D01*
X0018924Y0189445D01*
X0018956Y0189517D01*
X0018993Y0189588D01*
X0019033Y0189656D01*
X0019076Y0189722D01*
X0019122Y0189786D01*
X0019172Y0189848D01*
X0019225Y0189907D01*
X0019280Y0189963D01*
X0019339Y0190017D01*
X0019400Y0190067D01*
X0019463Y0190115D01*
X0019529Y0190159D01*
X0019597Y0190200D01*
X0019667Y0190237D01*
X0019738Y0190271D01*
X0019812Y0190301D01*
X0019886Y0190327D01*
X0019962Y0190349D01*
X0020039Y0190368D01*
X0020117Y0190383D01*
X0020195Y0190394D01*
X0020274Y0190401D01*
X0020353Y0190404D01*
X0020432Y0190403D01*
X0020511Y0190398D01*
X0020590Y0190389D01*
X0020668Y0190376D01*
X0020745Y0190359D01*
X0020822Y0190339D01*
X0020897Y0190314D01*
X0020971Y0190286D01*
X0021044Y0190254D01*
X0021114Y0190219D01*
X0021183Y0190180D01*
X0021250Y0190137D01*
X0021315Y0190091D01*
X0021377Y0190043D01*
X0021437Y0189991D01*
X0021494Y0189936D01*
X0021548Y0189878D01*
X0021599Y0189818D01*
X0021647Y0189755D01*
X0021692Y0189690D01*
X0021734Y0189622D01*
X0021772Y0189553D01*
X0021806Y0189482D01*
X0021837Y0189409D01*
X0021865Y0189334D01*
X0021888Y0189259D01*
X0021908Y0189182D01*
X0021924Y0189105D01*
X0021936Y0189026D01*
X0021944Y0188948D01*
X0021948Y0188869D01*
X0021948Y0188789D01*
X0021944Y0188710D01*
X0021936Y0188632D01*
X0021924Y0188553D01*
X0021908Y0188476D01*
X0021888Y0188399D01*
X0021865Y0188324D01*
X0021837Y0188249D01*
X0021806Y0188176D01*
X0021772Y0188105D01*
X0021734Y0188036D01*
X0021692Y0187968D01*
X0021647Y0187903D01*
X0021599Y0187840D01*
X0021548Y0187780D01*
X0021494Y0187722D01*
X0021437Y0187667D01*
X0021377Y0187615D01*
X0021315Y0187567D01*
X0021250Y0187521D01*
X0021183Y0187478D01*
X0021114Y0187439D01*
X0021044Y0187404D01*
X0020971Y0187372D01*
X0020897Y0187344D01*
X0020822Y0187319D01*
X0020745Y0187299D01*
X0020668Y0187282D01*
X0020590Y0187269D01*
X0020511Y0187260D01*
X0020432Y0187255D01*
X0020353Y0187254D01*
X0020274Y0187257D01*
X0020195Y0187264D01*
X0020117Y0187275D01*
X0020039Y0187290D01*
X0019962Y0187309D01*
X0019886Y0187331D01*
X0019812Y0187357D01*
X0019738Y0187387D01*
X0019667Y0187421D01*
X0019597Y0187458D01*
X0019529Y0187499D01*
X0019463Y0187543D01*
X0019400Y0187591D01*
X0019339Y0187641D01*
X0019280Y0187695D01*
X0019225Y0187751D01*
X0019172Y0187810D01*
X0019122Y0187872D01*
X0019076Y0187936D01*
X0019033Y0188002D01*
X0018993Y0188070D01*
X0018956Y0188141D01*
X0018924Y0188213D01*
X0018894Y0188286D01*
X0018869Y0188361D01*
X0018847Y0188437D01*
X0018830Y0188514D01*
X0018816Y0188592D01*
X0018806Y0188671D01*
X0018800Y0188750D01*
X0018798Y0188829D01*
D11*
X0045628Y0183101D02*
X0045628Y0178301D01*
X0053502Y0178301D02*
X0053502Y0183101D01*
X0061376Y0183101D02*
X0061376Y0178301D01*
X0069250Y0178301D02*
X0069250Y0183101D01*
X0077124Y0183101D02*
X0077124Y0178301D01*
X0084998Y0178301D02*
X0084998Y0183101D01*
X0092872Y0183101D02*
X0092872Y0178301D01*
X0100746Y0178301D02*
X0100746Y0183101D01*
X0100746Y0123201D02*
X0100746Y0118401D01*
X0092872Y0118401D02*
X0092872Y0123201D01*
X0084998Y0123201D02*
X0084998Y0118401D01*
X0077124Y0118401D02*
X0077124Y0123201D01*
X0069250Y0123201D02*
X0069250Y0118401D01*
X0061376Y0118401D02*
X0061376Y0123201D01*
X0053502Y0123201D02*
X0053502Y0118401D01*
X0045628Y0118401D02*
X0045628Y0123201D01*
D12*
X0039346Y0131001D03*
X0039346Y0138875D03*
X0039346Y0146749D03*
X0039346Y0154623D03*
X0039346Y0162497D03*
X0039346Y0170371D03*
D13*
X0047168Y0109562D03*
X0047168Y0104444D03*
X0051900Y0093708D03*
X0051900Y0088590D03*
X0049400Y0067408D03*
X0049400Y0062290D03*
D14*
X0030606Y0111369D03*
X0030606Y0116290D03*
X0030606Y0121211D03*
D15*
X0017614Y0130463D03*
X0017614Y0102117D03*
D16*
X0025094Y0107235D03*
X0025094Y0125345D03*
D17*
X0123925Y0191514D03*
X0123925Y0214743D03*
D18*
X0011909Y0196113D03*
X0011909Y0166585D03*
D19*
X0022342Y0176231D03*
X0022342Y0178790D03*
X0022342Y0181349D03*
X0022342Y0183908D03*
X0022342Y0186467D03*
D20*
X0020373Y0188829D03*
X0020373Y0173869D03*
D21*
X0011909Y0176821D03*
X0011909Y0185876D03*
D22*
X0013236Y0018329D03*
X0042764Y0018329D03*
X0056236Y0018329D03*
X0085764Y0018329D03*
X0099236Y0018329D03*
X0128764Y0018329D03*
D23*
X0128764Y0053172D03*
X0099236Y0053172D03*
X0085764Y0053172D03*
X0056236Y0053172D03*
X0042764Y0053172D03*
X0013236Y0053172D03*
X0072694Y0306549D03*
X0077300Y0306549D03*
X0077300Y0316549D03*
X0072694Y0316549D03*
X0072694Y0326549D03*
X0077300Y0326549D03*
X0117300Y0326549D03*
X0121906Y0326549D03*
X0121906Y0316549D03*
X0117300Y0316549D03*
X0117300Y0306549D03*
X0121906Y0306549D03*
D24*
X0123843Y0038408D03*
X0104157Y0038408D03*
X0080843Y0038408D03*
X0061157Y0038408D03*
X0037843Y0038408D03*
X0018157Y0038408D03*
D25*
X0022402Y0061849D03*
X0033598Y0061849D03*
X0065402Y0061849D03*
X0076598Y0061849D03*
X0108402Y0061849D03*
X0119598Y0061849D03*
D26*
X0129000Y0061849D03*
X0099000Y0061849D03*
X0086000Y0061849D03*
X0056000Y0061849D03*
X0043000Y0061849D03*
X0013000Y0061849D03*
D27*
X0027441Y0070849D03*
X0032559Y0070849D03*
X0046441Y0080849D03*
X0051559Y0080849D03*
X0095741Y0089749D03*
X0100859Y0089749D03*
X0105041Y0083049D03*
X0110159Y0083049D03*
X0104559Y0068849D03*
X0099441Y0068849D03*
X0083559Y0188949D03*
X0078441Y0188949D03*
X0066359Y0188649D03*
X0061241Y0188649D03*
X0053459Y0188549D03*
X0048341Y0188549D03*
D28*
X0065409Y0088599D03*
X0065409Y0086099D03*
X0065409Y0083599D03*
X0065409Y0081099D03*
X0065409Y0078599D03*
X0065409Y0076099D03*
X0065409Y0073599D03*
X0065409Y0071099D03*
X0086591Y0071099D03*
X0086591Y0073599D03*
X0086591Y0076099D03*
X0086591Y0078599D03*
X0086591Y0081099D03*
X0086591Y0083599D03*
X0086591Y0086099D03*
X0086591Y0088599D03*
D29*
X0084957Y0096849D03*
X0065272Y0096849D03*
D30*
X0038980Y0330632D03*
X0018980Y0330632D03*
D31*
X0049000Y0196849D03*
X0059000Y0196849D03*
X0069000Y0196849D03*
X0079000Y0196849D03*
X0089000Y0196849D03*
X0099000Y0196849D03*
X0126200Y0113149D03*
X0126200Y0103149D03*
X0126200Y0093149D03*
X0126200Y0083149D03*
X0126200Y0073149D03*
X0089000Y0109849D03*
X0079000Y0109849D03*
X0069000Y0109849D03*
X0059000Y0109849D03*
X0029000Y0143849D03*
X0029000Y0153849D03*
X0019000Y0153849D03*
X0019000Y0143849D03*
D32*
X0031039Y0213715D03*
X0027102Y0282613D03*
X0101906Y0282613D03*
X0101906Y0213715D03*
D33*
X0058900Y0315550D03*
X0058900Y0326747D03*
D34*
X0038100Y0307449D02*
X0038100Y0301449D01*
X0018100Y0301449D02*
X0018100Y0307449D01*
D35*
X0030314Y0195939D03*
X0038331Y0180849D03*
X0030514Y0177739D03*
X0054031Y0151949D03*
X0066214Y0140639D03*
X0078500Y0138149D03*
X0085031Y0164649D03*
X0077231Y0171649D03*
X0100746Y0157649D03*
X0105614Y0150539D03*
X0113414Y0186439D03*
X0095800Y0096849D03*
X0110400Y0089749D03*
X0078214Y0081139D03*
X0092614Y0036439D03*
X0129314Y0030939D03*
X0049307Y0036439D03*
X0019500Y0085949D03*
X0028100Y0093349D03*
X0033014Y0101439D03*
X0042800Y0094849D03*
X0032000Y0129049D03*
X0012307Y0030339D03*
D36*
X0120800Y0297549D03*
X0121300Y0336149D03*
X0058600Y0306549D03*
M02*
