G75*
%MOIN*%
%OFA0B0*%
%FSLAX25Y25*%
%IPPOS*%
%LPD*%
%AMOC8*
5,1,8,0,0,1.08239X$1,22.5*
%
%ADD10C,0.00000*%
%ADD11C,0.00500*%
%ADD12C,0.00600*%
%ADD13R,0.01181X0.02362*%
%ADD14C,0.00300*%
%ADD15R,0.02362X0.01181*%
%ADD16R,0.01969X0.02559*%
%ADD17C,0.00400*%
%ADD18R,0.08661X0.00787*%
%ADD19R,0.12205X0.03740*%
%ADD20R,0.02953X0.05709*%
%ADD21R,0.06900X0.02900*%
%ADD22R,0.04000X0.06000*%
%ADD23R,0.01800X0.02300*%
D10*
X0006000Y0010849D02*
X0006000Y0349431D01*
X0135921Y0349431D01*
X0135921Y0010849D01*
X0006000Y0010849D01*
X0016188Y0038408D02*
X0016190Y0038496D01*
X0016196Y0038584D01*
X0016206Y0038672D01*
X0016220Y0038760D01*
X0016237Y0038846D01*
X0016259Y0038932D01*
X0016284Y0039016D01*
X0016314Y0039100D01*
X0016346Y0039182D01*
X0016383Y0039262D01*
X0016423Y0039341D01*
X0016467Y0039418D01*
X0016514Y0039493D01*
X0016564Y0039565D01*
X0016618Y0039636D01*
X0016674Y0039703D01*
X0016734Y0039769D01*
X0016796Y0039831D01*
X0016862Y0039891D01*
X0016929Y0039947D01*
X0017000Y0040001D01*
X0017072Y0040051D01*
X0017147Y0040098D01*
X0017224Y0040142D01*
X0017303Y0040182D01*
X0017383Y0040219D01*
X0017465Y0040251D01*
X0017549Y0040281D01*
X0017633Y0040306D01*
X0017719Y0040328D01*
X0017805Y0040345D01*
X0017893Y0040359D01*
X0017981Y0040369D01*
X0018069Y0040375D01*
X0018157Y0040377D01*
X0018245Y0040375D01*
X0018333Y0040369D01*
X0018421Y0040359D01*
X0018509Y0040345D01*
X0018595Y0040328D01*
X0018681Y0040306D01*
X0018765Y0040281D01*
X0018849Y0040251D01*
X0018931Y0040219D01*
X0019011Y0040182D01*
X0019090Y0040142D01*
X0019167Y0040098D01*
X0019242Y0040051D01*
X0019314Y0040001D01*
X0019385Y0039947D01*
X0019452Y0039891D01*
X0019518Y0039831D01*
X0019580Y0039769D01*
X0019640Y0039703D01*
X0019696Y0039636D01*
X0019750Y0039565D01*
X0019800Y0039493D01*
X0019847Y0039418D01*
X0019891Y0039341D01*
X0019931Y0039262D01*
X0019968Y0039182D01*
X0020000Y0039100D01*
X0020030Y0039016D01*
X0020055Y0038932D01*
X0020077Y0038846D01*
X0020094Y0038760D01*
X0020108Y0038672D01*
X0020118Y0038584D01*
X0020124Y0038496D01*
X0020126Y0038408D01*
X0020124Y0038320D01*
X0020118Y0038232D01*
X0020108Y0038144D01*
X0020094Y0038056D01*
X0020077Y0037970D01*
X0020055Y0037884D01*
X0020030Y0037800D01*
X0020000Y0037716D01*
X0019968Y0037634D01*
X0019931Y0037554D01*
X0019891Y0037475D01*
X0019847Y0037398D01*
X0019800Y0037323D01*
X0019750Y0037251D01*
X0019696Y0037180D01*
X0019640Y0037113D01*
X0019580Y0037047D01*
X0019518Y0036985D01*
X0019452Y0036925D01*
X0019385Y0036869D01*
X0019314Y0036815D01*
X0019242Y0036765D01*
X0019167Y0036718D01*
X0019090Y0036674D01*
X0019011Y0036634D01*
X0018931Y0036597D01*
X0018849Y0036565D01*
X0018765Y0036535D01*
X0018681Y0036510D01*
X0018595Y0036488D01*
X0018509Y0036471D01*
X0018421Y0036457D01*
X0018333Y0036447D01*
X0018245Y0036441D01*
X0018157Y0036439D01*
X0018069Y0036441D01*
X0017981Y0036447D01*
X0017893Y0036457D01*
X0017805Y0036471D01*
X0017719Y0036488D01*
X0017633Y0036510D01*
X0017549Y0036535D01*
X0017465Y0036565D01*
X0017383Y0036597D01*
X0017303Y0036634D01*
X0017224Y0036674D01*
X0017147Y0036718D01*
X0017072Y0036765D01*
X0017000Y0036815D01*
X0016929Y0036869D01*
X0016862Y0036925D01*
X0016796Y0036985D01*
X0016734Y0037047D01*
X0016674Y0037113D01*
X0016618Y0037180D01*
X0016564Y0037251D01*
X0016514Y0037323D01*
X0016467Y0037398D01*
X0016423Y0037475D01*
X0016383Y0037554D01*
X0016346Y0037634D01*
X0016314Y0037716D01*
X0016284Y0037800D01*
X0016259Y0037884D01*
X0016237Y0037970D01*
X0016220Y0038056D01*
X0016206Y0038144D01*
X0016196Y0038232D01*
X0016190Y0038320D01*
X0016188Y0038408D01*
X0035874Y0038408D02*
X0035876Y0038496D01*
X0035882Y0038584D01*
X0035892Y0038672D01*
X0035906Y0038760D01*
X0035923Y0038846D01*
X0035945Y0038932D01*
X0035970Y0039016D01*
X0036000Y0039100D01*
X0036032Y0039182D01*
X0036069Y0039262D01*
X0036109Y0039341D01*
X0036153Y0039418D01*
X0036200Y0039493D01*
X0036250Y0039565D01*
X0036304Y0039636D01*
X0036360Y0039703D01*
X0036420Y0039769D01*
X0036482Y0039831D01*
X0036548Y0039891D01*
X0036615Y0039947D01*
X0036686Y0040001D01*
X0036758Y0040051D01*
X0036833Y0040098D01*
X0036910Y0040142D01*
X0036989Y0040182D01*
X0037069Y0040219D01*
X0037151Y0040251D01*
X0037235Y0040281D01*
X0037319Y0040306D01*
X0037405Y0040328D01*
X0037491Y0040345D01*
X0037579Y0040359D01*
X0037667Y0040369D01*
X0037755Y0040375D01*
X0037843Y0040377D01*
X0037931Y0040375D01*
X0038019Y0040369D01*
X0038107Y0040359D01*
X0038195Y0040345D01*
X0038281Y0040328D01*
X0038367Y0040306D01*
X0038451Y0040281D01*
X0038535Y0040251D01*
X0038617Y0040219D01*
X0038697Y0040182D01*
X0038776Y0040142D01*
X0038853Y0040098D01*
X0038928Y0040051D01*
X0039000Y0040001D01*
X0039071Y0039947D01*
X0039138Y0039891D01*
X0039204Y0039831D01*
X0039266Y0039769D01*
X0039326Y0039703D01*
X0039382Y0039636D01*
X0039436Y0039565D01*
X0039486Y0039493D01*
X0039533Y0039418D01*
X0039577Y0039341D01*
X0039617Y0039262D01*
X0039654Y0039182D01*
X0039686Y0039100D01*
X0039716Y0039016D01*
X0039741Y0038932D01*
X0039763Y0038846D01*
X0039780Y0038760D01*
X0039794Y0038672D01*
X0039804Y0038584D01*
X0039810Y0038496D01*
X0039812Y0038408D01*
X0039810Y0038320D01*
X0039804Y0038232D01*
X0039794Y0038144D01*
X0039780Y0038056D01*
X0039763Y0037970D01*
X0039741Y0037884D01*
X0039716Y0037800D01*
X0039686Y0037716D01*
X0039654Y0037634D01*
X0039617Y0037554D01*
X0039577Y0037475D01*
X0039533Y0037398D01*
X0039486Y0037323D01*
X0039436Y0037251D01*
X0039382Y0037180D01*
X0039326Y0037113D01*
X0039266Y0037047D01*
X0039204Y0036985D01*
X0039138Y0036925D01*
X0039071Y0036869D01*
X0039000Y0036815D01*
X0038928Y0036765D01*
X0038853Y0036718D01*
X0038776Y0036674D01*
X0038697Y0036634D01*
X0038617Y0036597D01*
X0038535Y0036565D01*
X0038451Y0036535D01*
X0038367Y0036510D01*
X0038281Y0036488D01*
X0038195Y0036471D01*
X0038107Y0036457D01*
X0038019Y0036447D01*
X0037931Y0036441D01*
X0037843Y0036439D01*
X0037755Y0036441D01*
X0037667Y0036447D01*
X0037579Y0036457D01*
X0037491Y0036471D01*
X0037405Y0036488D01*
X0037319Y0036510D01*
X0037235Y0036535D01*
X0037151Y0036565D01*
X0037069Y0036597D01*
X0036989Y0036634D01*
X0036910Y0036674D01*
X0036833Y0036718D01*
X0036758Y0036765D01*
X0036686Y0036815D01*
X0036615Y0036869D01*
X0036548Y0036925D01*
X0036482Y0036985D01*
X0036420Y0037047D01*
X0036360Y0037113D01*
X0036304Y0037180D01*
X0036250Y0037251D01*
X0036200Y0037323D01*
X0036153Y0037398D01*
X0036109Y0037475D01*
X0036069Y0037554D01*
X0036032Y0037634D01*
X0036000Y0037716D01*
X0035970Y0037800D01*
X0035945Y0037884D01*
X0035923Y0037970D01*
X0035906Y0038056D01*
X0035892Y0038144D01*
X0035882Y0038232D01*
X0035876Y0038320D01*
X0035874Y0038408D01*
X0059188Y0038408D02*
X0059190Y0038496D01*
X0059196Y0038584D01*
X0059206Y0038672D01*
X0059220Y0038760D01*
X0059237Y0038846D01*
X0059259Y0038932D01*
X0059284Y0039016D01*
X0059314Y0039100D01*
X0059346Y0039182D01*
X0059383Y0039262D01*
X0059423Y0039341D01*
X0059467Y0039418D01*
X0059514Y0039493D01*
X0059564Y0039565D01*
X0059618Y0039636D01*
X0059674Y0039703D01*
X0059734Y0039769D01*
X0059796Y0039831D01*
X0059862Y0039891D01*
X0059929Y0039947D01*
X0060000Y0040001D01*
X0060072Y0040051D01*
X0060147Y0040098D01*
X0060224Y0040142D01*
X0060303Y0040182D01*
X0060383Y0040219D01*
X0060465Y0040251D01*
X0060549Y0040281D01*
X0060633Y0040306D01*
X0060719Y0040328D01*
X0060805Y0040345D01*
X0060893Y0040359D01*
X0060981Y0040369D01*
X0061069Y0040375D01*
X0061157Y0040377D01*
X0061245Y0040375D01*
X0061333Y0040369D01*
X0061421Y0040359D01*
X0061509Y0040345D01*
X0061595Y0040328D01*
X0061681Y0040306D01*
X0061765Y0040281D01*
X0061849Y0040251D01*
X0061931Y0040219D01*
X0062011Y0040182D01*
X0062090Y0040142D01*
X0062167Y0040098D01*
X0062242Y0040051D01*
X0062314Y0040001D01*
X0062385Y0039947D01*
X0062452Y0039891D01*
X0062518Y0039831D01*
X0062580Y0039769D01*
X0062640Y0039703D01*
X0062696Y0039636D01*
X0062750Y0039565D01*
X0062800Y0039493D01*
X0062847Y0039418D01*
X0062891Y0039341D01*
X0062931Y0039262D01*
X0062968Y0039182D01*
X0063000Y0039100D01*
X0063030Y0039016D01*
X0063055Y0038932D01*
X0063077Y0038846D01*
X0063094Y0038760D01*
X0063108Y0038672D01*
X0063118Y0038584D01*
X0063124Y0038496D01*
X0063126Y0038408D01*
X0063124Y0038320D01*
X0063118Y0038232D01*
X0063108Y0038144D01*
X0063094Y0038056D01*
X0063077Y0037970D01*
X0063055Y0037884D01*
X0063030Y0037800D01*
X0063000Y0037716D01*
X0062968Y0037634D01*
X0062931Y0037554D01*
X0062891Y0037475D01*
X0062847Y0037398D01*
X0062800Y0037323D01*
X0062750Y0037251D01*
X0062696Y0037180D01*
X0062640Y0037113D01*
X0062580Y0037047D01*
X0062518Y0036985D01*
X0062452Y0036925D01*
X0062385Y0036869D01*
X0062314Y0036815D01*
X0062242Y0036765D01*
X0062167Y0036718D01*
X0062090Y0036674D01*
X0062011Y0036634D01*
X0061931Y0036597D01*
X0061849Y0036565D01*
X0061765Y0036535D01*
X0061681Y0036510D01*
X0061595Y0036488D01*
X0061509Y0036471D01*
X0061421Y0036457D01*
X0061333Y0036447D01*
X0061245Y0036441D01*
X0061157Y0036439D01*
X0061069Y0036441D01*
X0060981Y0036447D01*
X0060893Y0036457D01*
X0060805Y0036471D01*
X0060719Y0036488D01*
X0060633Y0036510D01*
X0060549Y0036535D01*
X0060465Y0036565D01*
X0060383Y0036597D01*
X0060303Y0036634D01*
X0060224Y0036674D01*
X0060147Y0036718D01*
X0060072Y0036765D01*
X0060000Y0036815D01*
X0059929Y0036869D01*
X0059862Y0036925D01*
X0059796Y0036985D01*
X0059734Y0037047D01*
X0059674Y0037113D01*
X0059618Y0037180D01*
X0059564Y0037251D01*
X0059514Y0037323D01*
X0059467Y0037398D01*
X0059423Y0037475D01*
X0059383Y0037554D01*
X0059346Y0037634D01*
X0059314Y0037716D01*
X0059284Y0037800D01*
X0059259Y0037884D01*
X0059237Y0037970D01*
X0059220Y0038056D01*
X0059206Y0038144D01*
X0059196Y0038232D01*
X0059190Y0038320D01*
X0059188Y0038408D01*
X0078874Y0038408D02*
X0078876Y0038496D01*
X0078882Y0038584D01*
X0078892Y0038672D01*
X0078906Y0038760D01*
X0078923Y0038846D01*
X0078945Y0038932D01*
X0078970Y0039016D01*
X0079000Y0039100D01*
X0079032Y0039182D01*
X0079069Y0039262D01*
X0079109Y0039341D01*
X0079153Y0039418D01*
X0079200Y0039493D01*
X0079250Y0039565D01*
X0079304Y0039636D01*
X0079360Y0039703D01*
X0079420Y0039769D01*
X0079482Y0039831D01*
X0079548Y0039891D01*
X0079615Y0039947D01*
X0079686Y0040001D01*
X0079758Y0040051D01*
X0079833Y0040098D01*
X0079910Y0040142D01*
X0079989Y0040182D01*
X0080069Y0040219D01*
X0080151Y0040251D01*
X0080235Y0040281D01*
X0080319Y0040306D01*
X0080405Y0040328D01*
X0080491Y0040345D01*
X0080579Y0040359D01*
X0080667Y0040369D01*
X0080755Y0040375D01*
X0080843Y0040377D01*
X0080931Y0040375D01*
X0081019Y0040369D01*
X0081107Y0040359D01*
X0081195Y0040345D01*
X0081281Y0040328D01*
X0081367Y0040306D01*
X0081451Y0040281D01*
X0081535Y0040251D01*
X0081617Y0040219D01*
X0081697Y0040182D01*
X0081776Y0040142D01*
X0081853Y0040098D01*
X0081928Y0040051D01*
X0082000Y0040001D01*
X0082071Y0039947D01*
X0082138Y0039891D01*
X0082204Y0039831D01*
X0082266Y0039769D01*
X0082326Y0039703D01*
X0082382Y0039636D01*
X0082436Y0039565D01*
X0082486Y0039493D01*
X0082533Y0039418D01*
X0082577Y0039341D01*
X0082617Y0039262D01*
X0082654Y0039182D01*
X0082686Y0039100D01*
X0082716Y0039016D01*
X0082741Y0038932D01*
X0082763Y0038846D01*
X0082780Y0038760D01*
X0082794Y0038672D01*
X0082804Y0038584D01*
X0082810Y0038496D01*
X0082812Y0038408D01*
X0082810Y0038320D01*
X0082804Y0038232D01*
X0082794Y0038144D01*
X0082780Y0038056D01*
X0082763Y0037970D01*
X0082741Y0037884D01*
X0082716Y0037800D01*
X0082686Y0037716D01*
X0082654Y0037634D01*
X0082617Y0037554D01*
X0082577Y0037475D01*
X0082533Y0037398D01*
X0082486Y0037323D01*
X0082436Y0037251D01*
X0082382Y0037180D01*
X0082326Y0037113D01*
X0082266Y0037047D01*
X0082204Y0036985D01*
X0082138Y0036925D01*
X0082071Y0036869D01*
X0082000Y0036815D01*
X0081928Y0036765D01*
X0081853Y0036718D01*
X0081776Y0036674D01*
X0081697Y0036634D01*
X0081617Y0036597D01*
X0081535Y0036565D01*
X0081451Y0036535D01*
X0081367Y0036510D01*
X0081281Y0036488D01*
X0081195Y0036471D01*
X0081107Y0036457D01*
X0081019Y0036447D01*
X0080931Y0036441D01*
X0080843Y0036439D01*
X0080755Y0036441D01*
X0080667Y0036447D01*
X0080579Y0036457D01*
X0080491Y0036471D01*
X0080405Y0036488D01*
X0080319Y0036510D01*
X0080235Y0036535D01*
X0080151Y0036565D01*
X0080069Y0036597D01*
X0079989Y0036634D01*
X0079910Y0036674D01*
X0079833Y0036718D01*
X0079758Y0036765D01*
X0079686Y0036815D01*
X0079615Y0036869D01*
X0079548Y0036925D01*
X0079482Y0036985D01*
X0079420Y0037047D01*
X0079360Y0037113D01*
X0079304Y0037180D01*
X0079250Y0037251D01*
X0079200Y0037323D01*
X0079153Y0037398D01*
X0079109Y0037475D01*
X0079069Y0037554D01*
X0079032Y0037634D01*
X0079000Y0037716D01*
X0078970Y0037800D01*
X0078945Y0037884D01*
X0078923Y0037970D01*
X0078906Y0038056D01*
X0078892Y0038144D01*
X0078882Y0038232D01*
X0078876Y0038320D01*
X0078874Y0038408D01*
X0102188Y0038408D02*
X0102190Y0038496D01*
X0102196Y0038584D01*
X0102206Y0038672D01*
X0102220Y0038760D01*
X0102237Y0038846D01*
X0102259Y0038932D01*
X0102284Y0039016D01*
X0102314Y0039100D01*
X0102346Y0039182D01*
X0102383Y0039262D01*
X0102423Y0039341D01*
X0102467Y0039418D01*
X0102514Y0039493D01*
X0102564Y0039565D01*
X0102618Y0039636D01*
X0102674Y0039703D01*
X0102734Y0039769D01*
X0102796Y0039831D01*
X0102862Y0039891D01*
X0102929Y0039947D01*
X0103000Y0040001D01*
X0103072Y0040051D01*
X0103147Y0040098D01*
X0103224Y0040142D01*
X0103303Y0040182D01*
X0103383Y0040219D01*
X0103465Y0040251D01*
X0103549Y0040281D01*
X0103633Y0040306D01*
X0103719Y0040328D01*
X0103805Y0040345D01*
X0103893Y0040359D01*
X0103981Y0040369D01*
X0104069Y0040375D01*
X0104157Y0040377D01*
X0104245Y0040375D01*
X0104333Y0040369D01*
X0104421Y0040359D01*
X0104509Y0040345D01*
X0104595Y0040328D01*
X0104681Y0040306D01*
X0104765Y0040281D01*
X0104849Y0040251D01*
X0104931Y0040219D01*
X0105011Y0040182D01*
X0105090Y0040142D01*
X0105167Y0040098D01*
X0105242Y0040051D01*
X0105314Y0040001D01*
X0105385Y0039947D01*
X0105452Y0039891D01*
X0105518Y0039831D01*
X0105580Y0039769D01*
X0105640Y0039703D01*
X0105696Y0039636D01*
X0105750Y0039565D01*
X0105800Y0039493D01*
X0105847Y0039418D01*
X0105891Y0039341D01*
X0105931Y0039262D01*
X0105968Y0039182D01*
X0106000Y0039100D01*
X0106030Y0039016D01*
X0106055Y0038932D01*
X0106077Y0038846D01*
X0106094Y0038760D01*
X0106108Y0038672D01*
X0106118Y0038584D01*
X0106124Y0038496D01*
X0106126Y0038408D01*
X0106124Y0038320D01*
X0106118Y0038232D01*
X0106108Y0038144D01*
X0106094Y0038056D01*
X0106077Y0037970D01*
X0106055Y0037884D01*
X0106030Y0037800D01*
X0106000Y0037716D01*
X0105968Y0037634D01*
X0105931Y0037554D01*
X0105891Y0037475D01*
X0105847Y0037398D01*
X0105800Y0037323D01*
X0105750Y0037251D01*
X0105696Y0037180D01*
X0105640Y0037113D01*
X0105580Y0037047D01*
X0105518Y0036985D01*
X0105452Y0036925D01*
X0105385Y0036869D01*
X0105314Y0036815D01*
X0105242Y0036765D01*
X0105167Y0036718D01*
X0105090Y0036674D01*
X0105011Y0036634D01*
X0104931Y0036597D01*
X0104849Y0036565D01*
X0104765Y0036535D01*
X0104681Y0036510D01*
X0104595Y0036488D01*
X0104509Y0036471D01*
X0104421Y0036457D01*
X0104333Y0036447D01*
X0104245Y0036441D01*
X0104157Y0036439D01*
X0104069Y0036441D01*
X0103981Y0036447D01*
X0103893Y0036457D01*
X0103805Y0036471D01*
X0103719Y0036488D01*
X0103633Y0036510D01*
X0103549Y0036535D01*
X0103465Y0036565D01*
X0103383Y0036597D01*
X0103303Y0036634D01*
X0103224Y0036674D01*
X0103147Y0036718D01*
X0103072Y0036765D01*
X0103000Y0036815D01*
X0102929Y0036869D01*
X0102862Y0036925D01*
X0102796Y0036985D01*
X0102734Y0037047D01*
X0102674Y0037113D01*
X0102618Y0037180D01*
X0102564Y0037251D01*
X0102514Y0037323D01*
X0102467Y0037398D01*
X0102423Y0037475D01*
X0102383Y0037554D01*
X0102346Y0037634D01*
X0102314Y0037716D01*
X0102284Y0037800D01*
X0102259Y0037884D01*
X0102237Y0037970D01*
X0102220Y0038056D01*
X0102206Y0038144D01*
X0102196Y0038232D01*
X0102190Y0038320D01*
X0102188Y0038408D01*
X0121874Y0038408D02*
X0121876Y0038496D01*
X0121882Y0038584D01*
X0121892Y0038672D01*
X0121906Y0038760D01*
X0121923Y0038846D01*
X0121945Y0038932D01*
X0121970Y0039016D01*
X0122000Y0039100D01*
X0122032Y0039182D01*
X0122069Y0039262D01*
X0122109Y0039341D01*
X0122153Y0039418D01*
X0122200Y0039493D01*
X0122250Y0039565D01*
X0122304Y0039636D01*
X0122360Y0039703D01*
X0122420Y0039769D01*
X0122482Y0039831D01*
X0122548Y0039891D01*
X0122615Y0039947D01*
X0122686Y0040001D01*
X0122758Y0040051D01*
X0122833Y0040098D01*
X0122910Y0040142D01*
X0122989Y0040182D01*
X0123069Y0040219D01*
X0123151Y0040251D01*
X0123235Y0040281D01*
X0123319Y0040306D01*
X0123405Y0040328D01*
X0123491Y0040345D01*
X0123579Y0040359D01*
X0123667Y0040369D01*
X0123755Y0040375D01*
X0123843Y0040377D01*
X0123931Y0040375D01*
X0124019Y0040369D01*
X0124107Y0040359D01*
X0124195Y0040345D01*
X0124281Y0040328D01*
X0124367Y0040306D01*
X0124451Y0040281D01*
X0124535Y0040251D01*
X0124617Y0040219D01*
X0124697Y0040182D01*
X0124776Y0040142D01*
X0124853Y0040098D01*
X0124928Y0040051D01*
X0125000Y0040001D01*
X0125071Y0039947D01*
X0125138Y0039891D01*
X0125204Y0039831D01*
X0125266Y0039769D01*
X0125326Y0039703D01*
X0125382Y0039636D01*
X0125436Y0039565D01*
X0125486Y0039493D01*
X0125533Y0039418D01*
X0125577Y0039341D01*
X0125617Y0039262D01*
X0125654Y0039182D01*
X0125686Y0039100D01*
X0125716Y0039016D01*
X0125741Y0038932D01*
X0125763Y0038846D01*
X0125780Y0038760D01*
X0125794Y0038672D01*
X0125804Y0038584D01*
X0125810Y0038496D01*
X0125812Y0038408D01*
X0125810Y0038320D01*
X0125804Y0038232D01*
X0125794Y0038144D01*
X0125780Y0038056D01*
X0125763Y0037970D01*
X0125741Y0037884D01*
X0125716Y0037800D01*
X0125686Y0037716D01*
X0125654Y0037634D01*
X0125617Y0037554D01*
X0125577Y0037475D01*
X0125533Y0037398D01*
X0125486Y0037323D01*
X0125436Y0037251D01*
X0125382Y0037180D01*
X0125326Y0037113D01*
X0125266Y0037047D01*
X0125204Y0036985D01*
X0125138Y0036925D01*
X0125071Y0036869D01*
X0125000Y0036815D01*
X0124928Y0036765D01*
X0124853Y0036718D01*
X0124776Y0036674D01*
X0124697Y0036634D01*
X0124617Y0036597D01*
X0124535Y0036565D01*
X0124451Y0036535D01*
X0124367Y0036510D01*
X0124281Y0036488D01*
X0124195Y0036471D01*
X0124107Y0036457D01*
X0124019Y0036447D01*
X0123931Y0036441D01*
X0123843Y0036439D01*
X0123755Y0036441D01*
X0123667Y0036447D01*
X0123579Y0036457D01*
X0123491Y0036471D01*
X0123405Y0036488D01*
X0123319Y0036510D01*
X0123235Y0036535D01*
X0123151Y0036565D01*
X0123069Y0036597D01*
X0122989Y0036634D01*
X0122910Y0036674D01*
X0122833Y0036718D01*
X0122758Y0036765D01*
X0122686Y0036815D01*
X0122615Y0036869D01*
X0122548Y0036925D01*
X0122482Y0036985D01*
X0122420Y0037047D01*
X0122360Y0037113D01*
X0122304Y0037180D01*
X0122250Y0037251D01*
X0122200Y0037323D01*
X0122153Y0037398D01*
X0122109Y0037475D01*
X0122069Y0037554D01*
X0122032Y0037634D01*
X0122000Y0037716D01*
X0121970Y0037800D01*
X0121945Y0037884D01*
X0121923Y0037970D01*
X0121906Y0038056D01*
X0121892Y0038144D01*
X0121882Y0038232D01*
X0121876Y0038320D01*
X0121874Y0038408D01*
X0023322Y0107235D02*
X0023324Y0107319D01*
X0023330Y0107402D01*
X0023340Y0107485D01*
X0023354Y0107568D01*
X0023371Y0107650D01*
X0023393Y0107731D01*
X0023418Y0107810D01*
X0023447Y0107889D01*
X0023480Y0107966D01*
X0023516Y0108041D01*
X0023556Y0108115D01*
X0023599Y0108187D01*
X0023646Y0108256D01*
X0023696Y0108323D01*
X0023749Y0108388D01*
X0023805Y0108450D01*
X0023863Y0108510D01*
X0023925Y0108567D01*
X0023989Y0108620D01*
X0024056Y0108671D01*
X0024125Y0108718D01*
X0024196Y0108763D01*
X0024269Y0108803D01*
X0024344Y0108840D01*
X0024421Y0108874D01*
X0024499Y0108904D01*
X0024578Y0108930D01*
X0024659Y0108953D01*
X0024741Y0108971D01*
X0024823Y0108986D01*
X0024906Y0108997D01*
X0024989Y0109004D01*
X0025073Y0109007D01*
X0025157Y0109006D01*
X0025240Y0109001D01*
X0025324Y0108992D01*
X0025406Y0108979D01*
X0025488Y0108963D01*
X0025569Y0108942D01*
X0025650Y0108918D01*
X0025728Y0108890D01*
X0025806Y0108858D01*
X0025882Y0108822D01*
X0025956Y0108783D01*
X0026028Y0108741D01*
X0026098Y0108695D01*
X0026166Y0108646D01*
X0026231Y0108594D01*
X0026294Y0108539D01*
X0026354Y0108481D01*
X0026412Y0108420D01*
X0026466Y0108356D01*
X0026518Y0108290D01*
X0026566Y0108222D01*
X0026611Y0108151D01*
X0026652Y0108078D01*
X0026691Y0108004D01*
X0026725Y0107928D01*
X0026756Y0107850D01*
X0026783Y0107771D01*
X0026807Y0107690D01*
X0026826Y0107609D01*
X0026842Y0107527D01*
X0026854Y0107444D01*
X0026862Y0107360D01*
X0026866Y0107277D01*
X0026866Y0107193D01*
X0026862Y0107110D01*
X0026854Y0107026D01*
X0026842Y0106943D01*
X0026826Y0106861D01*
X0026807Y0106780D01*
X0026783Y0106699D01*
X0026756Y0106620D01*
X0026725Y0106542D01*
X0026691Y0106466D01*
X0026652Y0106392D01*
X0026611Y0106319D01*
X0026566Y0106248D01*
X0026518Y0106180D01*
X0026466Y0106114D01*
X0026412Y0106050D01*
X0026354Y0105989D01*
X0026294Y0105931D01*
X0026231Y0105876D01*
X0026166Y0105824D01*
X0026098Y0105775D01*
X0026028Y0105729D01*
X0025956Y0105687D01*
X0025882Y0105648D01*
X0025806Y0105612D01*
X0025728Y0105580D01*
X0025650Y0105552D01*
X0025569Y0105528D01*
X0025488Y0105507D01*
X0025406Y0105491D01*
X0025324Y0105478D01*
X0025240Y0105469D01*
X0025157Y0105464D01*
X0025073Y0105463D01*
X0024989Y0105466D01*
X0024906Y0105473D01*
X0024823Y0105484D01*
X0024741Y0105499D01*
X0024659Y0105517D01*
X0024578Y0105540D01*
X0024499Y0105566D01*
X0024421Y0105596D01*
X0024344Y0105630D01*
X0024269Y0105667D01*
X0024196Y0105707D01*
X0024125Y0105752D01*
X0024056Y0105799D01*
X0023989Y0105850D01*
X0023925Y0105903D01*
X0023863Y0105960D01*
X0023805Y0106020D01*
X0023749Y0106082D01*
X0023696Y0106147D01*
X0023646Y0106214D01*
X0023599Y0106283D01*
X0023556Y0106355D01*
X0023516Y0106429D01*
X0023480Y0106504D01*
X0023447Y0106581D01*
X0023418Y0106660D01*
X0023393Y0106739D01*
X0023371Y0106820D01*
X0023354Y0106902D01*
X0023340Y0106985D01*
X0023330Y0107068D01*
X0023324Y0107151D01*
X0023322Y0107235D01*
X0023322Y0125345D02*
X0023324Y0125429D01*
X0023330Y0125512D01*
X0023340Y0125595D01*
X0023354Y0125678D01*
X0023371Y0125760D01*
X0023393Y0125841D01*
X0023418Y0125920D01*
X0023447Y0125999D01*
X0023480Y0126076D01*
X0023516Y0126151D01*
X0023556Y0126225D01*
X0023599Y0126297D01*
X0023646Y0126366D01*
X0023696Y0126433D01*
X0023749Y0126498D01*
X0023805Y0126560D01*
X0023863Y0126620D01*
X0023925Y0126677D01*
X0023989Y0126730D01*
X0024056Y0126781D01*
X0024125Y0126828D01*
X0024196Y0126873D01*
X0024269Y0126913D01*
X0024344Y0126950D01*
X0024421Y0126984D01*
X0024499Y0127014D01*
X0024578Y0127040D01*
X0024659Y0127063D01*
X0024741Y0127081D01*
X0024823Y0127096D01*
X0024906Y0127107D01*
X0024989Y0127114D01*
X0025073Y0127117D01*
X0025157Y0127116D01*
X0025240Y0127111D01*
X0025324Y0127102D01*
X0025406Y0127089D01*
X0025488Y0127073D01*
X0025569Y0127052D01*
X0025650Y0127028D01*
X0025728Y0127000D01*
X0025806Y0126968D01*
X0025882Y0126932D01*
X0025956Y0126893D01*
X0026028Y0126851D01*
X0026098Y0126805D01*
X0026166Y0126756D01*
X0026231Y0126704D01*
X0026294Y0126649D01*
X0026354Y0126591D01*
X0026412Y0126530D01*
X0026466Y0126466D01*
X0026518Y0126400D01*
X0026566Y0126332D01*
X0026611Y0126261D01*
X0026652Y0126188D01*
X0026691Y0126114D01*
X0026725Y0126038D01*
X0026756Y0125960D01*
X0026783Y0125881D01*
X0026807Y0125800D01*
X0026826Y0125719D01*
X0026842Y0125637D01*
X0026854Y0125554D01*
X0026862Y0125470D01*
X0026866Y0125387D01*
X0026866Y0125303D01*
X0026862Y0125220D01*
X0026854Y0125136D01*
X0026842Y0125053D01*
X0026826Y0124971D01*
X0026807Y0124890D01*
X0026783Y0124809D01*
X0026756Y0124730D01*
X0026725Y0124652D01*
X0026691Y0124576D01*
X0026652Y0124502D01*
X0026611Y0124429D01*
X0026566Y0124358D01*
X0026518Y0124290D01*
X0026466Y0124224D01*
X0026412Y0124160D01*
X0026354Y0124099D01*
X0026294Y0124041D01*
X0026231Y0123986D01*
X0026166Y0123934D01*
X0026098Y0123885D01*
X0026028Y0123839D01*
X0025956Y0123797D01*
X0025882Y0123758D01*
X0025806Y0123722D01*
X0025728Y0123690D01*
X0025650Y0123662D01*
X0025569Y0123638D01*
X0025488Y0123617D01*
X0025406Y0123601D01*
X0025324Y0123588D01*
X0025240Y0123579D01*
X0025157Y0123574D01*
X0025073Y0123573D01*
X0024989Y0123576D01*
X0024906Y0123583D01*
X0024823Y0123594D01*
X0024741Y0123609D01*
X0024659Y0123627D01*
X0024578Y0123650D01*
X0024499Y0123676D01*
X0024421Y0123706D01*
X0024344Y0123740D01*
X0024269Y0123777D01*
X0024196Y0123817D01*
X0024125Y0123862D01*
X0024056Y0123909D01*
X0023989Y0123960D01*
X0023925Y0124013D01*
X0023863Y0124070D01*
X0023805Y0124130D01*
X0023749Y0124192D01*
X0023696Y0124257D01*
X0023646Y0124324D01*
X0023599Y0124393D01*
X0023556Y0124465D01*
X0023516Y0124539D01*
X0023480Y0124614D01*
X0023447Y0124691D01*
X0023418Y0124770D01*
X0023393Y0124849D01*
X0023371Y0124930D01*
X0023354Y0125012D01*
X0023340Y0125095D01*
X0023330Y0125178D01*
X0023324Y0125261D01*
X0023322Y0125345D01*
X0018798Y0173869D02*
X0018800Y0173948D01*
X0018806Y0174027D01*
X0018816Y0174106D01*
X0018830Y0174184D01*
X0018847Y0174261D01*
X0018869Y0174337D01*
X0018894Y0174412D01*
X0018924Y0174485D01*
X0018956Y0174557D01*
X0018993Y0174628D01*
X0019033Y0174696D01*
X0019076Y0174762D01*
X0019122Y0174826D01*
X0019172Y0174888D01*
X0019225Y0174947D01*
X0019280Y0175003D01*
X0019339Y0175057D01*
X0019400Y0175107D01*
X0019463Y0175155D01*
X0019529Y0175199D01*
X0019597Y0175240D01*
X0019667Y0175277D01*
X0019738Y0175311D01*
X0019812Y0175341D01*
X0019886Y0175367D01*
X0019962Y0175389D01*
X0020039Y0175408D01*
X0020117Y0175423D01*
X0020195Y0175434D01*
X0020274Y0175441D01*
X0020353Y0175444D01*
X0020432Y0175443D01*
X0020511Y0175438D01*
X0020590Y0175429D01*
X0020668Y0175416D01*
X0020745Y0175399D01*
X0020822Y0175379D01*
X0020897Y0175354D01*
X0020971Y0175326D01*
X0021044Y0175294D01*
X0021114Y0175259D01*
X0021183Y0175220D01*
X0021250Y0175177D01*
X0021315Y0175131D01*
X0021377Y0175083D01*
X0021437Y0175031D01*
X0021494Y0174976D01*
X0021548Y0174918D01*
X0021599Y0174858D01*
X0021647Y0174795D01*
X0021692Y0174730D01*
X0021734Y0174662D01*
X0021772Y0174593D01*
X0021806Y0174522D01*
X0021837Y0174449D01*
X0021865Y0174374D01*
X0021888Y0174299D01*
X0021908Y0174222D01*
X0021924Y0174145D01*
X0021936Y0174066D01*
X0021944Y0173988D01*
X0021948Y0173909D01*
X0021948Y0173829D01*
X0021944Y0173750D01*
X0021936Y0173672D01*
X0021924Y0173593D01*
X0021908Y0173516D01*
X0021888Y0173439D01*
X0021865Y0173364D01*
X0021837Y0173289D01*
X0021806Y0173216D01*
X0021772Y0173145D01*
X0021734Y0173076D01*
X0021692Y0173008D01*
X0021647Y0172943D01*
X0021599Y0172880D01*
X0021548Y0172820D01*
X0021494Y0172762D01*
X0021437Y0172707D01*
X0021377Y0172655D01*
X0021315Y0172607D01*
X0021250Y0172561D01*
X0021183Y0172518D01*
X0021114Y0172479D01*
X0021044Y0172444D01*
X0020971Y0172412D01*
X0020897Y0172384D01*
X0020822Y0172359D01*
X0020745Y0172339D01*
X0020668Y0172322D01*
X0020590Y0172309D01*
X0020511Y0172300D01*
X0020432Y0172295D01*
X0020353Y0172294D01*
X0020274Y0172297D01*
X0020195Y0172304D01*
X0020117Y0172315D01*
X0020039Y0172330D01*
X0019962Y0172349D01*
X0019886Y0172371D01*
X0019812Y0172397D01*
X0019738Y0172427D01*
X0019667Y0172461D01*
X0019597Y0172498D01*
X0019529Y0172539D01*
X0019463Y0172583D01*
X0019400Y0172631D01*
X0019339Y0172681D01*
X0019280Y0172735D01*
X0019225Y0172791D01*
X0019172Y0172850D01*
X0019122Y0172912D01*
X0019076Y0172976D01*
X0019033Y0173042D01*
X0018993Y0173110D01*
X0018956Y0173181D01*
X0018924Y0173253D01*
X0018894Y0173326D01*
X0018869Y0173401D01*
X0018847Y0173477D01*
X0018830Y0173554D01*
X0018816Y0173632D01*
X0018806Y0173711D01*
X0018800Y0173790D01*
X0018798Y0173869D01*
X0018798Y0188829D02*
X0018800Y0188908D01*
X0018806Y0188987D01*
X0018816Y0189066D01*
X0018830Y0189144D01*
X0018847Y0189221D01*
X0018869Y0189297D01*
X0018894Y0189372D01*
X0018924Y0189445D01*
X0018956Y0189517D01*
X0018993Y0189588D01*
X0019033Y0189656D01*
X0019076Y0189722D01*
X0019122Y0189786D01*
X0019172Y0189848D01*
X0019225Y0189907D01*
X0019280Y0189963D01*
X0019339Y0190017D01*
X0019400Y0190067D01*
X0019463Y0190115D01*
X0019529Y0190159D01*
X0019597Y0190200D01*
X0019667Y0190237D01*
X0019738Y0190271D01*
X0019812Y0190301D01*
X0019886Y0190327D01*
X0019962Y0190349D01*
X0020039Y0190368D01*
X0020117Y0190383D01*
X0020195Y0190394D01*
X0020274Y0190401D01*
X0020353Y0190404D01*
X0020432Y0190403D01*
X0020511Y0190398D01*
X0020590Y0190389D01*
X0020668Y0190376D01*
X0020745Y0190359D01*
X0020822Y0190339D01*
X0020897Y0190314D01*
X0020971Y0190286D01*
X0021044Y0190254D01*
X0021114Y0190219D01*
X0021183Y0190180D01*
X0021250Y0190137D01*
X0021315Y0190091D01*
X0021377Y0190043D01*
X0021437Y0189991D01*
X0021494Y0189936D01*
X0021548Y0189878D01*
X0021599Y0189818D01*
X0021647Y0189755D01*
X0021692Y0189690D01*
X0021734Y0189622D01*
X0021772Y0189553D01*
X0021806Y0189482D01*
X0021837Y0189409D01*
X0021865Y0189334D01*
X0021888Y0189259D01*
X0021908Y0189182D01*
X0021924Y0189105D01*
X0021936Y0189026D01*
X0021944Y0188948D01*
X0021948Y0188869D01*
X0021948Y0188789D01*
X0021944Y0188710D01*
X0021936Y0188632D01*
X0021924Y0188553D01*
X0021908Y0188476D01*
X0021888Y0188399D01*
X0021865Y0188324D01*
X0021837Y0188249D01*
X0021806Y0188176D01*
X0021772Y0188105D01*
X0021734Y0188036D01*
X0021692Y0187968D01*
X0021647Y0187903D01*
X0021599Y0187840D01*
X0021548Y0187780D01*
X0021494Y0187722D01*
X0021437Y0187667D01*
X0021377Y0187615D01*
X0021315Y0187567D01*
X0021250Y0187521D01*
X0021183Y0187478D01*
X0021114Y0187439D01*
X0021044Y0187404D01*
X0020971Y0187372D01*
X0020897Y0187344D01*
X0020822Y0187319D01*
X0020745Y0187299D01*
X0020668Y0187282D01*
X0020590Y0187269D01*
X0020511Y0187260D01*
X0020432Y0187255D01*
X0020353Y0187254D01*
X0020274Y0187257D01*
X0020195Y0187264D01*
X0020117Y0187275D01*
X0020039Y0187290D01*
X0019962Y0187309D01*
X0019886Y0187331D01*
X0019812Y0187357D01*
X0019738Y0187387D01*
X0019667Y0187421D01*
X0019597Y0187458D01*
X0019529Y0187499D01*
X0019463Y0187543D01*
X0019400Y0187591D01*
X0019339Y0187641D01*
X0019280Y0187695D01*
X0019225Y0187751D01*
X0019172Y0187810D01*
X0019122Y0187872D01*
X0019076Y0187936D01*
X0019033Y0188002D01*
X0018993Y0188070D01*
X0018956Y0188141D01*
X0018924Y0188213D01*
X0018894Y0188286D01*
X0018869Y0188361D01*
X0018847Y0188437D01*
X0018830Y0188514D01*
X0018816Y0188592D01*
X0018806Y0188671D01*
X0018800Y0188750D01*
X0018798Y0188829D01*
D11*
X0039314Y0182241D02*
X0110967Y0182241D01*
X0110967Y0119248D01*
X0039314Y0119248D01*
X0039314Y0182241D01*
X0040482Y0182587D02*
X0040730Y0179849D01*
X0040730Y0179849D01*
X0040482Y0177111D01*
X0040481Y0177110D01*
X0040378Y0177122D01*
X0040274Y0177137D01*
X0040172Y0177156D01*
X0040070Y0177180D01*
X0039969Y0177207D01*
X0039870Y0177237D01*
X0039771Y0177272D01*
X0039674Y0177310D01*
X0039579Y0177352D01*
X0039485Y0177398D01*
X0039393Y0177447D01*
X0039302Y0177499D01*
X0039214Y0177555D01*
X0039128Y0177614D01*
X0039045Y0177677D01*
X0038964Y0177742D01*
X0038885Y0177811D01*
X0038809Y0177882D01*
X0038736Y0177957D01*
X0038665Y0178034D01*
X0038598Y0178113D01*
X0038534Y0178196D01*
X0038472Y0178280D01*
X0038415Y0178367D01*
X0038360Y0178456D01*
X0038309Y0178547D01*
X0038261Y0178640D01*
X0038217Y0178734D01*
X0038177Y0178830D01*
X0038140Y0178928D01*
X0038107Y0179027D01*
X0038077Y0179127D01*
X0038052Y0179228D01*
X0038030Y0179330D01*
X0038013Y0179433D01*
X0037999Y0179537D01*
X0037989Y0179640D01*
X0037983Y0179745D01*
X0037981Y0179849D01*
X0037983Y0179953D01*
X0037989Y0180058D01*
X0037999Y0180161D01*
X0038013Y0180265D01*
X0038030Y0180368D01*
X0038052Y0180470D01*
X0038077Y0180571D01*
X0038107Y0180671D01*
X0038140Y0180770D01*
X0038177Y0180868D01*
X0038217Y0180964D01*
X0038261Y0181058D01*
X0038309Y0181151D01*
X0038360Y0181242D01*
X0038415Y0181331D01*
X0038472Y0181418D01*
X0038534Y0181502D01*
X0038598Y0181585D01*
X0038665Y0181664D01*
X0038736Y0181741D01*
X0038809Y0181816D01*
X0038885Y0181887D01*
X0038964Y0181956D01*
X0039045Y0182021D01*
X0039128Y0182084D01*
X0039214Y0182143D01*
X0039302Y0182199D01*
X0039393Y0182251D01*
X0039485Y0182300D01*
X0039579Y0182346D01*
X0039674Y0182388D01*
X0039771Y0182426D01*
X0039870Y0182461D01*
X0039969Y0182491D01*
X0040070Y0182518D01*
X0040172Y0182542D01*
X0040274Y0182561D01*
X0040378Y0182576D01*
X0040481Y0182588D01*
X0040482Y0182111D01*
X0040387Y0182099D01*
X0040294Y0182083D01*
X0040201Y0182062D01*
X0040109Y0182038D01*
X0040018Y0182010D01*
X0039929Y0181979D01*
X0039840Y0181944D01*
X0039754Y0181905D01*
X0039669Y0181862D01*
X0039586Y0181816D01*
X0039505Y0181766D01*
X0039426Y0181714D01*
X0039349Y0181657D01*
X0039275Y0181598D01*
X0039203Y0181536D01*
X0039134Y0181471D01*
X0039068Y0181403D01*
X0039004Y0181332D01*
X0038944Y0181259D01*
X0038887Y0181183D01*
X0038833Y0181105D01*
X0038782Y0181024D01*
X0038735Y0180942D01*
X0038691Y0180858D01*
X0038650Y0180772D01*
X0038614Y0180684D01*
X0038581Y0180595D01*
X0038551Y0180505D01*
X0038526Y0180413D01*
X0038504Y0180321D01*
X0038487Y0180227D01*
X0038473Y0180133D01*
X0038463Y0180039D01*
X0038457Y0179944D01*
X0038455Y0179849D01*
X0038457Y0179754D01*
X0038463Y0179659D01*
X0038473Y0179565D01*
X0038487Y0179471D01*
X0038504Y0179377D01*
X0038526Y0179285D01*
X0038551Y0179193D01*
X0038581Y0179103D01*
X0038614Y0179014D01*
X0038650Y0178926D01*
X0038691Y0178840D01*
X0038735Y0178756D01*
X0038782Y0178674D01*
X0038833Y0178593D01*
X0038887Y0178515D01*
X0038944Y0178439D01*
X0039004Y0178366D01*
X0039068Y0178295D01*
X0039134Y0178227D01*
X0039203Y0178162D01*
X0039275Y0178100D01*
X0039349Y0178041D01*
X0039426Y0177984D01*
X0039505Y0177932D01*
X0039586Y0177882D01*
X0039669Y0177836D01*
X0039754Y0177793D01*
X0039840Y0177754D01*
X0039929Y0177719D01*
X0040018Y0177688D01*
X0040109Y0177660D01*
X0040201Y0177636D01*
X0040294Y0177615D01*
X0040387Y0177599D01*
X0040482Y0177587D01*
X0040482Y0178064D01*
X0040400Y0178078D01*
X0040318Y0178095D01*
X0040238Y0178116D01*
X0040158Y0178140D01*
X0040080Y0178169D01*
X0040003Y0178201D01*
X0039928Y0178236D01*
X0039854Y0178275D01*
X0039782Y0178317D01*
X0039712Y0178362D01*
X0039645Y0178411D01*
X0039580Y0178463D01*
X0039517Y0178517D01*
X0039457Y0178575D01*
X0039399Y0178635D01*
X0039345Y0178698D01*
X0039293Y0178763D01*
X0039244Y0178831D01*
X0039199Y0178900D01*
X0039157Y0178972D01*
X0039118Y0179046D01*
X0039083Y0179121D01*
X0039051Y0179198D01*
X0039022Y0179276D01*
X0038998Y0179356D01*
X0038977Y0179436D01*
X0038960Y0179518D01*
X0038946Y0179600D01*
X0038937Y0179683D01*
X0038931Y0179766D01*
X0038929Y0179849D01*
X0038931Y0179932D01*
X0038937Y0180015D01*
X0038946Y0180098D01*
X0038960Y0180180D01*
X0038977Y0180262D01*
X0038998Y0180342D01*
X0039022Y0180422D01*
X0039051Y0180500D01*
X0039083Y0180577D01*
X0039118Y0180652D01*
X0039157Y0180726D01*
X0039199Y0180798D01*
X0039244Y0180867D01*
X0039293Y0180935D01*
X0039345Y0181000D01*
X0039399Y0181063D01*
X0039457Y0181123D01*
X0039517Y0181181D01*
X0039580Y0181235D01*
X0039645Y0181287D01*
X0039712Y0181336D01*
X0039782Y0181381D01*
X0039854Y0181423D01*
X0039928Y0181462D01*
X0040003Y0181497D01*
X0040080Y0181529D01*
X0040158Y0181558D01*
X0040238Y0181582D01*
X0040318Y0181603D01*
X0040400Y0181620D01*
X0040482Y0181634D01*
X0040482Y0181154D01*
X0040412Y0181138D01*
X0040343Y0181119D01*
X0040275Y0181096D01*
X0040208Y0181070D01*
X0040142Y0181039D01*
X0040079Y0181006D01*
X0040017Y0180969D01*
X0039957Y0180928D01*
X0039900Y0180885D01*
X0039845Y0180838D01*
X0039793Y0180789D01*
X0039743Y0180737D01*
X0039696Y0180682D01*
X0039653Y0180624D01*
X0039612Y0180565D01*
X0039575Y0180503D01*
X0039542Y0180440D01*
X0039511Y0180374D01*
X0039485Y0180307D01*
X0039462Y0180239D01*
X0039442Y0180170D01*
X0039427Y0180099D01*
X0039415Y0180028D01*
X0039407Y0179957D01*
X0039403Y0179885D01*
X0039403Y0179813D01*
X0039407Y0179741D01*
X0039415Y0179670D01*
X0039427Y0179599D01*
X0039442Y0179528D01*
X0039462Y0179459D01*
X0039485Y0179391D01*
X0039511Y0179324D01*
X0039542Y0179258D01*
X0039575Y0179195D01*
X0039612Y0179133D01*
X0039653Y0179074D01*
X0039696Y0179016D01*
X0039743Y0178961D01*
X0039793Y0178909D01*
X0039845Y0178860D01*
X0039900Y0178813D01*
X0039957Y0178770D01*
X0040017Y0178729D01*
X0040079Y0178692D01*
X0040142Y0178659D01*
X0040208Y0178628D01*
X0040275Y0178602D01*
X0040343Y0178579D01*
X0040412Y0178560D01*
X0040482Y0178544D01*
X0040485Y0179031D01*
X0040430Y0179050D01*
X0040377Y0179072D01*
X0040326Y0179097D01*
X0040276Y0179126D01*
X0040229Y0179158D01*
X0040183Y0179194D01*
X0040140Y0179232D01*
X0040100Y0179273D01*
X0040063Y0179317D01*
X0040029Y0179363D01*
X0039998Y0179411D01*
X0039970Y0179462D01*
X0039946Y0179514D01*
X0039925Y0179567D01*
X0039908Y0179622D01*
X0039894Y0179678D01*
X0039885Y0179734D01*
X0039879Y0179792D01*
X0039877Y0179849D01*
X0039879Y0179906D01*
X0039885Y0179964D01*
X0039894Y0180020D01*
X0039908Y0180076D01*
X0039925Y0180131D01*
X0039946Y0180184D01*
X0039970Y0180236D01*
X0039998Y0180287D01*
X0040029Y0180335D01*
X0040063Y0180381D01*
X0040100Y0180425D01*
X0040140Y0180466D01*
X0040183Y0180504D01*
X0040229Y0180540D01*
X0040276Y0180572D01*
X0040326Y0180601D01*
X0040377Y0180626D01*
X0040430Y0180648D01*
X0040485Y0180667D01*
X0040499Y0180150D01*
X0040471Y0180126D01*
X0040445Y0180100D01*
X0040423Y0180071D01*
X0040403Y0180041D01*
X0040386Y0180008D01*
X0040372Y0179974D01*
X0040362Y0179939D01*
X0040355Y0179904D01*
X0040351Y0179867D01*
X0040351Y0179831D01*
X0040355Y0179794D01*
X0040362Y0179759D01*
X0040372Y0179724D01*
X0040386Y0179690D01*
X0040403Y0179657D01*
X0040423Y0179627D01*
X0040445Y0179598D01*
X0040471Y0179572D01*
X0040499Y0179548D01*
X0048980Y0177111D02*
X0048732Y0179849D01*
X0048732Y0179849D01*
X0048980Y0182587D01*
X0048981Y0182588D01*
X0049084Y0182576D01*
X0049188Y0182561D01*
X0049290Y0182542D01*
X0049392Y0182518D01*
X0049493Y0182491D01*
X0049592Y0182461D01*
X0049691Y0182426D01*
X0049788Y0182388D01*
X0049883Y0182346D01*
X0049977Y0182300D01*
X0050069Y0182251D01*
X0050160Y0182199D01*
X0050248Y0182143D01*
X0050334Y0182084D01*
X0050417Y0182021D01*
X0050498Y0181956D01*
X0050577Y0181887D01*
X0050653Y0181816D01*
X0050726Y0181741D01*
X0050797Y0181664D01*
X0050864Y0181585D01*
X0050928Y0181502D01*
X0050990Y0181418D01*
X0051047Y0181331D01*
X0051102Y0181242D01*
X0051153Y0181151D01*
X0051201Y0181058D01*
X0051245Y0180964D01*
X0051285Y0180868D01*
X0051322Y0180770D01*
X0051355Y0180671D01*
X0051385Y0180571D01*
X0051410Y0180470D01*
X0051432Y0180368D01*
X0051449Y0180265D01*
X0051463Y0180161D01*
X0051473Y0180058D01*
X0051479Y0179953D01*
X0051481Y0179849D01*
X0051479Y0179745D01*
X0051473Y0179640D01*
X0051463Y0179537D01*
X0051449Y0179433D01*
X0051432Y0179330D01*
X0051410Y0179228D01*
X0051385Y0179127D01*
X0051355Y0179027D01*
X0051322Y0178928D01*
X0051285Y0178830D01*
X0051245Y0178734D01*
X0051201Y0178640D01*
X0051153Y0178547D01*
X0051102Y0178456D01*
X0051047Y0178367D01*
X0050990Y0178280D01*
X0050928Y0178196D01*
X0050864Y0178113D01*
X0050797Y0178034D01*
X0050726Y0177957D01*
X0050653Y0177882D01*
X0050577Y0177811D01*
X0050498Y0177742D01*
X0050417Y0177677D01*
X0050334Y0177614D01*
X0050248Y0177555D01*
X0050160Y0177499D01*
X0050069Y0177447D01*
X0049977Y0177398D01*
X0049883Y0177352D01*
X0049788Y0177310D01*
X0049691Y0177272D01*
X0049592Y0177237D01*
X0049493Y0177207D01*
X0049392Y0177180D01*
X0049290Y0177156D01*
X0049188Y0177137D01*
X0049084Y0177122D01*
X0048981Y0177110D01*
X0048980Y0177587D01*
X0049075Y0177599D01*
X0049168Y0177615D01*
X0049261Y0177636D01*
X0049353Y0177660D01*
X0049444Y0177688D01*
X0049533Y0177719D01*
X0049622Y0177754D01*
X0049708Y0177793D01*
X0049793Y0177836D01*
X0049876Y0177882D01*
X0049957Y0177932D01*
X0050036Y0177984D01*
X0050113Y0178041D01*
X0050187Y0178100D01*
X0050259Y0178162D01*
X0050328Y0178227D01*
X0050394Y0178295D01*
X0050458Y0178366D01*
X0050518Y0178439D01*
X0050575Y0178515D01*
X0050629Y0178593D01*
X0050680Y0178674D01*
X0050727Y0178756D01*
X0050771Y0178840D01*
X0050812Y0178926D01*
X0050848Y0179014D01*
X0050881Y0179103D01*
X0050911Y0179193D01*
X0050936Y0179285D01*
X0050958Y0179377D01*
X0050975Y0179471D01*
X0050989Y0179565D01*
X0050999Y0179659D01*
X0051005Y0179754D01*
X0051007Y0179849D01*
X0051005Y0179944D01*
X0050999Y0180039D01*
X0050989Y0180133D01*
X0050975Y0180227D01*
X0050958Y0180321D01*
X0050936Y0180413D01*
X0050911Y0180505D01*
X0050881Y0180595D01*
X0050848Y0180684D01*
X0050812Y0180772D01*
X0050771Y0180858D01*
X0050727Y0180942D01*
X0050680Y0181024D01*
X0050629Y0181105D01*
X0050575Y0181183D01*
X0050518Y0181259D01*
X0050458Y0181332D01*
X0050394Y0181403D01*
X0050328Y0181471D01*
X0050259Y0181536D01*
X0050187Y0181598D01*
X0050113Y0181657D01*
X0050036Y0181714D01*
X0049957Y0181766D01*
X0049876Y0181816D01*
X0049793Y0181862D01*
X0049708Y0181905D01*
X0049622Y0181944D01*
X0049533Y0181979D01*
X0049444Y0182010D01*
X0049353Y0182038D01*
X0049261Y0182062D01*
X0049168Y0182083D01*
X0049075Y0182099D01*
X0048980Y0182111D01*
X0048980Y0181634D01*
X0049062Y0181620D01*
X0049144Y0181603D01*
X0049224Y0181582D01*
X0049304Y0181558D01*
X0049382Y0181529D01*
X0049459Y0181497D01*
X0049534Y0181462D01*
X0049608Y0181423D01*
X0049680Y0181381D01*
X0049750Y0181336D01*
X0049817Y0181287D01*
X0049882Y0181235D01*
X0049945Y0181181D01*
X0050005Y0181123D01*
X0050063Y0181063D01*
X0050117Y0181000D01*
X0050169Y0180935D01*
X0050218Y0180867D01*
X0050263Y0180798D01*
X0050305Y0180726D01*
X0050344Y0180652D01*
X0050379Y0180577D01*
X0050411Y0180500D01*
X0050440Y0180422D01*
X0050464Y0180342D01*
X0050485Y0180262D01*
X0050502Y0180180D01*
X0050516Y0180098D01*
X0050525Y0180015D01*
X0050531Y0179932D01*
X0050533Y0179849D01*
X0050531Y0179766D01*
X0050525Y0179683D01*
X0050516Y0179600D01*
X0050502Y0179518D01*
X0050485Y0179436D01*
X0050464Y0179356D01*
X0050440Y0179276D01*
X0050411Y0179198D01*
X0050379Y0179121D01*
X0050344Y0179046D01*
X0050305Y0178972D01*
X0050263Y0178900D01*
X0050218Y0178831D01*
X0050169Y0178763D01*
X0050117Y0178698D01*
X0050063Y0178635D01*
X0050005Y0178575D01*
X0049945Y0178517D01*
X0049882Y0178463D01*
X0049817Y0178411D01*
X0049750Y0178362D01*
X0049680Y0178317D01*
X0049608Y0178275D01*
X0049534Y0178236D01*
X0049459Y0178201D01*
X0049382Y0178169D01*
X0049304Y0178140D01*
X0049224Y0178116D01*
X0049144Y0178095D01*
X0049062Y0178078D01*
X0048980Y0178064D01*
X0048980Y0178544D01*
X0049050Y0178560D01*
X0049119Y0178579D01*
X0049187Y0178602D01*
X0049254Y0178628D01*
X0049320Y0178659D01*
X0049383Y0178692D01*
X0049445Y0178729D01*
X0049505Y0178770D01*
X0049562Y0178813D01*
X0049617Y0178860D01*
X0049669Y0178909D01*
X0049719Y0178961D01*
X0049766Y0179016D01*
X0049809Y0179074D01*
X0049850Y0179133D01*
X0049887Y0179195D01*
X0049920Y0179258D01*
X0049951Y0179324D01*
X0049977Y0179391D01*
X0050000Y0179459D01*
X0050020Y0179528D01*
X0050035Y0179599D01*
X0050047Y0179670D01*
X0050055Y0179741D01*
X0050059Y0179813D01*
X0050059Y0179885D01*
X0050055Y0179957D01*
X0050047Y0180028D01*
X0050035Y0180099D01*
X0050020Y0180170D01*
X0050000Y0180239D01*
X0049977Y0180307D01*
X0049951Y0180374D01*
X0049920Y0180440D01*
X0049887Y0180503D01*
X0049850Y0180565D01*
X0049809Y0180624D01*
X0049766Y0180682D01*
X0049719Y0180737D01*
X0049669Y0180789D01*
X0049617Y0180838D01*
X0049562Y0180885D01*
X0049505Y0180928D01*
X0049445Y0180969D01*
X0049383Y0181006D01*
X0049320Y0181039D01*
X0049254Y0181070D01*
X0049187Y0181096D01*
X0049119Y0181119D01*
X0049050Y0181138D01*
X0048980Y0181154D01*
X0048977Y0180667D01*
X0049032Y0180648D01*
X0049085Y0180626D01*
X0049136Y0180601D01*
X0049186Y0180572D01*
X0049233Y0180540D01*
X0049279Y0180504D01*
X0049322Y0180466D01*
X0049362Y0180425D01*
X0049399Y0180381D01*
X0049433Y0180335D01*
X0049464Y0180287D01*
X0049492Y0180236D01*
X0049516Y0180184D01*
X0049537Y0180131D01*
X0049554Y0180076D01*
X0049568Y0180020D01*
X0049577Y0179964D01*
X0049583Y0179906D01*
X0049585Y0179849D01*
X0049583Y0179792D01*
X0049577Y0179734D01*
X0049568Y0179678D01*
X0049554Y0179622D01*
X0049537Y0179567D01*
X0049516Y0179514D01*
X0049492Y0179462D01*
X0049464Y0179411D01*
X0049433Y0179363D01*
X0049399Y0179317D01*
X0049362Y0179273D01*
X0049322Y0179232D01*
X0049279Y0179194D01*
X0049233Y0179158D01*
X0049186Y0179126D01*
X0049136Y0179097D01*
X0049085Y0179072D01*
X0049032Y0179050D01*
X0048977Y0179031D01*
X0048963Y0179548D01*
X0048991Y0179572D01*
X0049017Y0179598D01*
X0049039Y0179627D01*
X0049059Y0179657D01*
X0049076Y0179690D01*
X0049090Y0179724D01*
X0049100Y0179759D01*
X0049107Y0179794D01*
X0049111Y0179831D01*
X0049111Y0179867D01*
X0049107Y0179904D01*
X0049100Y0179939D01*
X0049090Y0179974D01*
X0049076Y0180008D01*
X0049059Y0180041D01*
X0049039Y0180071D01*
X0049017Y0180100D01*
X0048991Y0180126D01*
X0048963Y0180150D01*
X0056769Y0156198D02*
X0054031Y0155950D01*
X0054031Y0155950D01*
X0051293Y0156198D01*
X0051292Y0156199D01*
X0051304Y0156302D01*
X0051319Y0156406D01*
X0051338Y0156508D01*
X0051362Y0156610D01*
X0051389Y0156711D01*
X0051419Y0156810D01*
X0051454Y0156909D01*
X0051492Y0157006D01*
X0051534Y0157101D01*
X0051580Y0157195D01*
X0051629Y0157287D01*
X0051681Y0157378D01*
X0051737Y0157466D01*
X0051796Y0157552D01*
X0051859Y0157635D01*
X0051924Y0157716D01*
X0051993Y0157795D01*
X0052064Y0157871D01*
X0052139Y0157944D01*
X0052216Y0158015D01*
X0052295Y0158082D01*
X0052378Y0158146D01*
X0052462Y0158208D01*
X0052549Y0158265D01*
X0052638Y0158320D01*
X0052729Y0158371D01*
X0052822Y0158419D01*
X0052916Y0158463D01*
X0053012Y0158503D01*
X0053110Y0158540D01*
X0053209Y0158573D01*
X0053309Y0158603D01*
X0053410Y0158628D01*
X0053512Y0158650D01*
X0053615Y0158667D01*
X0053719Y0158681D01*
X0053822Y0158691D01*
X0053927Y0158697D01*
X0054031Y0158699D01*
X0054135Y0158697D01*
X0054240Y0158691D01*
X0054343Y0158681D01*
X0054447Y0158667D01*
X0054550Y0158650D01*
X0054652Y0158628D01*
X0054753Y0158603D01*
X0054853Y0158573D01*
X0054952Y0158540D01*
X0055050Y0158503D01*
X0055146Y0158463D01*
X0055240Y0158419D01*
X0055333Y0158371D01*
X0055424Y0158320D01*
X0055513Y0158265D01*
X0055600Y0158208D01*
X0055684Y0158146D01*
X0055767Y0158082D01*
X0055846Y0158015D01*
X0055923Y0157944D01*
X0055998Y0157871D01*
X0056069Y0157795D01*
X0056138Y0157716D01*
X0056203Y0157635D01*
X0056266Y0157552D01*
X0056325Y0157466D01*
X0056381Y0157378D01*
X0056433Y0157287D01*
X0056482Y0157195D01*
X0056528Y0157101D01*
X0056570Y0157006D01*
X0056608Y0156909D01*
X0056643Y0156810D01*
X0056673Y0156711D01*
X0056700Y0156610D01*
X0056724Y0156508D01*
X0056743Y0156406D01*
X0056758Y0156302D01*
X0056770Y0156199D01*
X0056293Y0156198D01*
X0056281Y0156293D01*
X0056265Y0156386D01*
X0056244Y0156479D01*
X0056220Y0156571D01*
X0056192Y0156662D01*
X0056161Y0156751D01*
X0056126Y0156840D01*
X0056087Y0156926D01*
X0056044Y0157011D01*
X0055998Y0157094D01*
X0055948Y0157175D01*
X0055896Y0157254D01*
X0055839Y0157331D01*
X0055780Y0157405D01*
X0055718Y0157477D01*
X0055653Y0157546D01*
X0055585Y0157612D01*
X0055514Y0157676D01*
X0055441Y0157736D01*
X0055365Y0157793D01*
X0055287Y0157847D01*
X0055206Y0157898D01*
X0055124Y0157945D01*
X0055040Y0157989D01*
X0054954Y0158030D01*
X0054866Y0158066D01*
X0054777Y0158099D01*
X0054687Y0158129D01*
X0054595Y0158154D01*
X0054503Y0158176D01*
X0054409Y0158193D01*
X0054315Y0158207D01*
X0054221Y0158217D01*
X0054126Y0158223D01*
X0054031Y0158225D01*
X0053936Y0158223D01*
X0053841Y0158217D01*
X0053747Y0158207D01*
X0053653Y0158193D01*
X0053559Y0158176D01*
X0053467Y0158154D01*
X0053375Y0158129D01*
X0053285Y0158099D01*
X0053196Y0158066D01*
X0053108Y0158030D01*
X0053022Y0157989D01*
X0052938Y0157945D01*
X0052856Y0157898D01*
X0052775Y0157847D01*
X0052697Y0157793D01*
X0052621Y0157736D01*
X0052548Y0157676D01*
X0052477Y0157612D01*
X0052409Y0157546D01*
X0052344Y0157477D01*
X0052282Y0157405D01*
X0052223Y0157331D01*
X0052166Y0157254D01*
X0052114Y0157175D01*
X0052064Y0157094D01*
X0052018Y0157011D01*
X0051975Y0156926D01*
X0051936Y0156840D01*
X0051901Y0156751D01*
X0051870Y0156662D01*
X0051842Y0156571D01*
X0051818Y0156479D01*
X0051797Y0156386D01*
X0051781Y0156293D01*
X0051769Y0156198D01*
X0052246Y0156198D01*
X0052260Y0156280D01*
X0052277Y0156362D01*
X0052298Y0156442D01*
X0052322Y0156522D01*
X0052351Y0156600D01*
X0052383Y0156677D01*
X0052418Y0156752D01*
X0052457Y0156826D01*
X0052499Y0156898D01*
X0052544Y0156968D01*
X0052593Y0157035D01*
X0052645Y0157100D01*
X0052699Y0157163D01*
X0052757Y0157223D01*
X0052817Y0157281D01*
X0052880Y0157335D01*
X0052945Y0157387D01*
X0053013Y0157436D01*
X0053082Y0157481D01*
X0053154Y0157523D01*
X0053228Y0157562D01*
X0053303Y0157597D01*
X0053380Y0157629D01*
X0053458Y0157658D01*
X0053538Y0157682D01*
X0053618Y0157703D01*
X0053700Y0157720D01*
X0053782Y0157734D01*
X0053865Y0157743D01*
X0053948Y0157749D01*
X0054031Y0157751D01*
X0054114Y0157749D01*
X0054197Y0157743D01*
X0054280Y0157734D01*
X0054362Y0157720D01*
X0054444Y0157703D01*
X0054524Y0157682D01*
X0054604Y0157658D01*
X0054682Y0157629D01*
X0054759Y0157597D01*
X0054834Y0157562D01*
X0054908Y0157523D01*
X0054980Y0157481D01*
X0055049Y0157436D01*
X0055117Y0157387D01*
X0055182Y0157335D01*
X0055245Y0157281D01*
X0055305Y0157223D01*
X0055363Y0157163D01*
X0055417Y0157100D01*
X0055469Y0157035D01*
X0055518Y0156968D01*
X0055563Y0156898D01*
X0055605Y0156826D01*
X0055644Y0156752D01*
X0055679Y0156677D01*
X0055711Y0156600D01*
X0055740Y0156522D01*
X0055764Y0156442D01*
X0055785Y0156362D01*
X0055802Y0156280D01*
X0055816Y0156198D01*
X0055336Y0156198D01*
X0055320Y0156268D01*
X0055301Y0156337D01*
X0055278Y0156405D01*
X0055252Y0156472D01*
X0055221Y0156538D01*
X0055188Y0156601D01*
X0055151Y0156663D01*
X0055110Y0156723D01*
X0055067Y0156780D01*
X0055020Y0156835D01*
X0054971Y0156887D01*
X0054919Y0156937D01*
X0054864Y0156984D01*
X0054806Y0157027D01*
X0054747Y0157068D01*
X0054685Y0157105D01*
X0054622Y0157138D01*
X0054556Y0157169D01*
X0054489Y0157195D01*
X0054421Y0157218D01*
X0054352Y0157238D01*
X0054281Y0157253D01*
X0054210Y0157265D01*
X0054139Y0157273D01*
X0054067Y0157277D01*
X0053995Y0157277D01*
X0053923Y0157273D01*
X0053852Y0157265D01*
X0053781Y0157253D01*
X0053710Y0157238D01*
X0053641Y0157218D01*
X0053573Y0157195D01*
X0053506Y0157169D01*
X0053440Y0157138D01*
X0053377Y0157105D01*
X0053315Y0157068D01*
X0053256Y0157027D01*
X0053198Y0156984D01*
X0053143Y0156937D01*
X0053091Y0156887D01*
X0053042Y0156835D01*
X0052995Y0156780D01*
X0052952Y0156723D01*
X0052911Y0156663D01*
X0052874Y0156601D01*
X0052841Y0156538D01*
X0052810Y0156472D01*
X0052784Y0156405D01*
X0052761Y0156337D01*
X0052742Y0156268D01*
X0052726Y0156198D01*
X0053213Y0156195D01*
X0053232Y0156250D01*
X0053254Y0156303D01*
X0053279Y0156354D01*
X0053308Y0156404D01*
X0053340Y0156451D01*
X0053376Y0156497D01*
X0053414Y0156540D01*
X0053455Y0156580D01*
X0053499Y0156617D01*
X0053545Y0156651D01*
X0053593Y0156682D01*
X0053644Y0156710D01*
X0053696Y0156734D01*
X0053749Y0156755D01*
X0053804Y0156772D01*
X0053860Y0156786D01*
X0053916Y0156795D01*
X0053974Y0156801D01*
X0054031Y0156803D01*
X0054088Y0156801D01*
X0054146Y0156795D01*
X0054202Y0156786D01*
X0054258Y0156772D01*
X0054313Y0156755D01*
X0054366Y0156734D01*
X0054418Y0156710D01*
X0054469Y0156682D01*
X0054517Y0156651D01*
X0054563Y0156617D01*
X0054607Y0156580D01*
X0054648Y0156540D01*
X0054686Y0156497D01*
X0054722Y0156451D01*
X0054754Y0156404D01*
X0054783Y0156354D01*
X0054808Y0156303D01*
X0054830Y0156250D01*
X0054849Y0156195D01*
X0054332Y0156181D01*
X0054308Y0156209D01*
X0054282Y0156235D01*
X0054253Y0156257D01*
X0054223Y0156277D01*
X0054190Y0156294D01*
X0054156Y0156308D01*
X0054121Y0156318D01*
X0054086Y0156325D01*
X0054049Y0156329D01*
X0054013Y0156329D01*
X0053976Y0156325D01*
X0053941Y0156318D01*
X0053906Y0156308D01*
X0053872Y0156294D01*
X0053839Y0156277D01*
X0053809Y0156257D01*
X0053780Y0156235D01*
X0053754Y0156209D01*
X0053730Y0156181D01*
X0051293Y0153700D02*
X0054031Y0153948D01*
X0054031Y0153948D01*
X0056769Y0153700D01*
X0056770Y0153699D01*
X0056758Y0153596D01*
X0056743Y0153492D01*
X0056724Y0153390D01*
X0056700Y0153288D01*
X0056673Y0153187D01*
X0056643Y0153088D01*
X0056608Y0152989D01*
X0056570Y0152892D01*
X0056528Y0152797D01*
X0056482Y0152703D01*
X0056433Y0152611D01*
X0056381Y0152520D01*
X0056325Y0152432D01*
X0056266Y0152346D01*
X0056203Y0152263D01*
X0056138Y0152182D01*
X0056069Y0152103D01*
X0055998Y0152027D01*
X0055923Y0151954D01*
X0055846Y0151883D01*
X0055767Y0151816D01*
X0055684Y0151752D01*
X0055600Y0151690D01*
X0055513Y0151633D01*
X0055424Y0151578D01*
X0055333Y0151527D01*
X0055240Y0151479D01*
X0055146Y0151435D01*
X0055050Y0151395D01*
X0054952Y0151358D01*
X0054853Y0151325D01*
X0054753Y0151295D01*
X0054652Y0151270D01*
X0054550Y0151248D01*
X0054447Y0151231D01*
X0054343Y0151217D01*
X0054240Y0151207D01*
X0054135Y0151201D01*
X0054031Y0151199D01*
X0053927Y0151201D01*
X0053822Y0151207D01*
X0053719Y0151217D01*
X0053615Y0151231D01*
X0053512Y0151248D01*
X0053410Y0151270D01*
X0053309Y0151295D01*
X0053209Y0151325D01*
X0053110Y0151358D01*
X0053012Y0151395D01*
X0052916Y0151435D01*
X0052822Y0151479D01*
X0052729Y0151527D01*
X0052638Y0151578D01*
X0052549Y0151633D01*
X0052462Y0151690D01*
X0052378Y0151752D01*
X0052295Y0151816D01*
X0052216Y0151883D01*
X0052139Y0151954D01*
X0052064Y0152027D01*
X0051993Y0152103D01*
X0051924Y0152182D01*
X0051859Y0152263D01*
X0051796Y0152346D01*
X0051737Y0152432D01*
X0051681Y0152520D01*
X0051629Y0152611D01*
X0051580Y0152703D01*
X0051534Y0152797D01*
X0051492Y0152892D01*
X0051454Y0152989D01*
X0051419Y0153088D01*
X0051389Y0153187D01*
X0051362Y0153288D01*
X0051338Y0153390D01*
X0051319Y0153492D01*
X0051304Y0153596D01*
X0051292Y0153699D01*
X0051769Y0153700D01*
X0051781Y0153605D01*
X0051797Y0153512D01*
X0051818Y0153419D01*
X0051842Y0153327D01*
X0051870Y0153236D01*
X0051901Y0153147D01*
X0051936Y0153058D01*
X0051975Y0152972D01*
X0052018Y0152887D01*
X0052064Y0152804D01*
X0052114Y0152723D01*
X0052166Y0152644D01*
X0052223Y0152567D01*
X0052282Y0152493D01*
X0052344Y0152421D01*
X0052409Y0152352D01*
X0052477Y0152286D01*
X0052548Y0152222D01*
X0052621Y0152162D01*
X0052697Y0152105D01*
X0052775Y0152051D01*
X0052856Y0152000D01*
X0052938Y0151953D01*
X0053022Y0151909D01*
X0053108Y0151868D01*
X0053196Y0151832D01*
X0053285Y0151799D01*
X0053375Y0151769D01*
X0053467Y0151744D01*
X0053559Y0151722D01*
X0053653Y0151705D01*
X0053747Y0151691D01*
X0053841Y0151681D01*
X0053936Y0151675D01*
X0054031Y0151673D01*
X0054126Y0151675D01*
X0054221Y0151681D01*
X0054315Y0151691D01*
X0054409Y0151705D01*
X0054503Y0151722D01*
X0054595Y0151744D01*
X0054687Y0151769D01*
X0054777Y0151799D01*
X0054866Y0151832D01*
X0054954Y0151868D01*
X0055040Y0151909D01*
X0055124Y0151953D01*
X0055206Y0152000D01*
X0055287Y0152051D01*
X0055365Y0152105D01*
X0055441Y0152162D01*
X0055514Y0152222D01*
X0055585Y0152286D01*
X0055653Y0152352D01*
X0055718Y0152421D01*
X0055780Y0152493D01*
X0055839Y0152567D01*
X0055896Y0152644D01*
X0055948Y0152723D01*
X0055998Y0152804D01*
X0056044Y0152887D01*
X0056087Y0152972D01*
X0056126Y0153058D01*
X0056161Y0153147D01*
X0056192Y0153236D01*
X0056220Y0153327D01*
X0056244Y0153419D01*
X0056265Y0153512D01*
X0056281Y0153605D01*
X0056293Y0153700D01*
X0055816Y0153700D01*
X0055802Y0153618D01*
X0055785Y0153536D01*
X0055764Y0153456D01*
X0055740Y0153376D01*
X0055711Y0153298D01*
X0055679Y0153221D01*
X0055644Y0153146D01*
X0055605Y0153072D01*
X0055563Y0153000D01*
X0055518Y0152930D01*
X0055469Y0152863D01*
X0055417Y0152798D01*
X0055363Y0152735D01*
X0055305Y0152675D01*
X0055245Y0152617D01*
X0055182Y0152563D01*
X0055117Y0152511D01*
X0055049Y0152462D01*
X0054980Y0152417D01*
X0054908Y0152375D01*
X0054834Y0152336D01*
X0054759Y0152301D01*
X0054682Y0152269D01*
X0054604Y0152240D01*
X0054524Y0152216D01*
X0054444Y0152195D01*
X0054362Y0152178D01*
X0054280Y0152164D01*
X0054197Y0152155D01*
X0054114Y0152149D01*
X0054031Y0152147D01*
X0053948Y0152149D01*
X0053865Y0152155D01*
X0053782Y0152164D01*
X0053700Y0152178D01*
X0053618Y0152195D01*
X0053538Y0152216D01*
X0053458Y0152240D01*
X0053380Y0152269D01*
X0053303Y0152301D01*
X0053228Y0152336D01*
X0053154Y0152375D01*
X0053082Y0152417D01*
X0053013Y0152462D01*
X0052945Y0152511D01*
X0052880Y0152563D01*
X0052817Y0152617D01*
X0052757Y0152675D01*
X0052699Y0152735D01*
X0052645Y0152798D01*
X0052593Y0152863D01*
X0052544Y0152930D01*
X0052499Y0153000D01*
X0052457Y0153072D01*
X0052418Y0153146D01*
X0052383Y0153221D01*
X0052351Y0153298D01*
X0052322Y0153376D01*
X0052298Y0153456D01*
X0052277Y0153536D01*
X0052260Y0153618D01*
X0052246Y0153700D01*
X0052726Y0153700D01*
X0052742Y0153630D01*
X0052761Y0153561D01*
X0052784Y0153493D01*
X0052810Y0153426D01*
X0052841Y0153360D01*
X0052874Y0153297D01*
X0052911Y0153235D01*
X0052952Y0153175D01*
X0052995Y0153118D01*
X0053042Y0153063D01*
X0053091Y0153011D01*
X0053143Y0152961D01*
X0053198Y0152914D01*
X0053256Y0152871D01*
X0053315Y0152830D01*
X0053377Y0152793D01*
X0053440Y0152760D01*
X0053506Y0152729D01*
X0053573Y0152703D01*
X0053641Y0152680D01*
X0053710Y0152660D01*
X0053781Y0152645D01*
X0053852Y0152633D01*
X0053923Y0152625D01*
X0053995Y0152621D01*
X0054067Y0152621D01*
X0054139Y0152625D01*
X0054210Y0152633D01*
X0054281Y0152645D01*
X0054352Y0152660D01*
X0054421Y0152680D01*
X0054489Y0152703D01*
X0054556Y0152729D01*
X0054622Y0152760D01*
X0054685Y0152793D01*
X0054747Y0152830D01*
X0054806Y0152871D01*
X0054864Y0152914D01*
X0054919Y0152961D01*
X0054971Y0153011D01*
X0055020Y0153063D01*
X0055067Y0153118D01*
X0055110Y0153175D01*
X0055151Y0153235D01*
X0055188Y0153297D01*
X0055221Y0153360D01*
X0055252Y0153426D01*
X0055278Y0153493D01*
X0055301Y0153561D01*
X0055320Y0153630D01*
X0055336Y0153700D01*
X0054849Y0153703D01*
X0054830Y0153648D01*
X0054808Y0153595D01*
X0054783Y0153544D01*
X0054754Y0153494D01*
X0054722Y0153447D01*
X0054686Y0153401D01*
X0054648Y0153358D01*
X0054607Y0153318D01*
X0054563Y0153281D01*
X0054517Y0153247D01*
X0054469Y0153216D01*
X0054418Y0153188D01*
X0054366Y0153164D01*
X0054313Y0153143D01*
X0054258Y0153126D01*
X0054202Y0153112D01*
X0054146Y0153103D01*
X0054088Y0153097D01*
X0054031Y0153095D01*
X0053974Y0153097D01*
X0053916Y0153103D01*
X0053860Y0153112D01*
X0053804Y0153126D01*
X0053749Y0153143D01*
X0053696Y0153164D01*
X0053644Y0153188D01*
X0053593Y0153216D01*
X0053545Y0153247D01*
X0053499Y0153281D01*
X0053455Y0153318D01*
X0053414Y0153358D01*
X0053376Y0153401D01*
X0053340Y0153447D01*
X0053308Y0153494D01*
X0053279Y0153544D01*
X0053254Y0153595D01*
X0053232Y0153648D01*
X0053213Y0153703D01*
X0053730Y0153717D01*
X0053754Y0153689D01*
X0053780Y0153663D01*
X0053809Y0153641D01*
X0053839Y0153621D01*
X0053872Y0153604D01*
X0053906Y0153590D01*
X0053941Y0153580D01*
X0053976Y0153573D01*
X0054013Y0153569D01*
X0054049Y0153569D01*
X0054086Y0153573D01*
X0054121Y0153580D01*
X0054156Y0153590D01*
X0054190Y0153604D01*
X0054223Y0153621D01*
X0054253Y0153641D01*
X0054282Y0153663D01*
X0054308Y0153689D01*
X0054332Y0153717D01*
X0045538Y0093098D02*
X0042800Y0092850D01*
X0042800Y0092850D01*
X0040062Y0093098D01*
X0040061Y0093099D01*
X0040073Y0093202D01*
X0040088Y0093306D01*
X0040107Y0093408D01*
X0040131Y0093510D01*
X0040158Y0093611D01*
X0040188Y0093710D01*
X0040223Y0093809D01*
X0040261Y0093906D01*
X0040303Y0094001D01*
X0040349Y0094095D01*
X0040398Y0094187D01*
X0040450Y0094278D01*
X0040506Y0094366D01*
X0040565Y0094452D01*
X0040628Y0094535D01*
X0040693Y0094616D01*
X0040762Y0094695D01*
X0040833Y0094771D01*
X0040908Y0094844D01*
X0040985Y0094915D01*
X0041064Y0094982D01*
X0041147Y0095046D01*
X0041231Y0095108D01*
X0041318Y0095165D01*
X0041407Y0095220D01*
X0041498Y0095271D01*
X0041591Y0095319D01*
X0041685Y0095363D01*
X0041781Y0095403D01*
X0041879Y0095440D01*
X0041978Y0095473D01*
X0042078Y0095503D01*
X0042179Y0095528D01*
X0042281Y0095550D01*
X0042384Y0095567D01*
X0042488Y0095581D01*
X0042591Y0095591D01*
X0042696Y0095597D01*
X0042800Y0095599D01*
X0042904Y0095597D01*
X0043009Y0095591D01*
X0043112Y0095581D01*
X0043216Y0095567D01*
X0043319Y0095550D01*
X0043421Y0095528D01*
X0043522Y0095503D01*
X0043622Y0095473D01*
X0043721Y0095440D01*
X0043819Y0095403D01*
X0043915Y0095363D01*
X0044009Y0095319D01*
X0044102Y0095271D01*
X0044193Y0095220D01*
X0044282Y0095165D01*
X0044369Y0095108D01*
X0044453Y0095046D01*
X0044536Y0094982D01*
X0044615Y0094915D01*
X0044692Y0094844D01*
X0044767Y0094771D01*
X0044838Y0094695D01*
X0044907Y0094616D01*
X0044972Y0094535D01*
X0045035Y0094452D01*
X0045094Y0094366D01*
X0045150Y0094278D01*
X0045202Y0094187D01*
X0045251Y0094095D01*
X0045297Y0094001D01*
X0045339Y0093906D01*
X0045377Y0093809D01*
X0045412Y0093710D01*
X0045442Y0093611D01*
X0045469Y0093510D01*
X0045493Y0093408D01*
X0045512Y0093306D01*
X0045527Y0093202D01*
X0045539Y0093099D01*
X0045062Y0093098D01*
X0045050Y0093193D01*
X0045034Y0093286D01*
X0045013Y0093379D01*
X0044989Y0093471D01*
X0044961Y0093562D01*
X0044930Y0093651D01*
X0044895Y0093740D01*
X0044856Y0093826D01*
X0044813Y0093911D01*
X0044767Y0093994D01*
X0044717Y0094075D01*
X0044665Y0094154D01*
X0044608Y0094231D01*
X0044549Y0094305D01*
X0044487Y0094377D01*
X0044422Y0094446D01*
X0044354Y0094512D01*
X0044283Y0094576D01*
X0044210Y0094636D01*
X0044134Y0094693D01*
X0044056Y0094747D01*
X0043975Y0094798D01*
X0043893Y0094845D01*
X0043809Y0094889D01*
X0043723Y0094930D01*
X0043635Y0094966D01*
X0043546Y0094999D01*
X0043456Y0095029D01*
X0043364Y0095054D01*
X0043272Y0095076D01*
X0043178Y0095093D01*
X0043084Y0095107D01*
X0042990Y0095117D01*
X0042895Y0095123D01*
X0042800Y0095125D01*
X0042705Y0095123D01*
X0042610Y0095117D01*
X0042516Y0095107D01*
X0042422Y0095093D01*
X0042328Y0095076D01*
X0042236Y0095054D01*
X0042144Y0095029D01*
X0042054Y0094999D01*
X0041965Y0094966D01*
X0041877Y0094930D01*
X0041791Y0094889D01*
X0041707Y0094845D01*
X0041625Y0094798D01*
X0041544Y0094747D01*
X0041466Y0094693D01*
X0041390Y0094636D01*
X0041317Y0094576D01*
X0041246Y0094512D01*
X0041178Y0094446D01*
X0041113Y0094377D01*
X0041051Y0094305D01*
X0040992Y0094231D01*
X0040935Y0094154D01*
X0040883Y0094075D01*
X0040833Y0093994D01*
X0040787Y0093911D01*
X0040744Y0093826D01*
X0040705Y0093740D01*
X0040670Y0093651D01*
X0040639Y0093562D01*
X0040611Y0093471D01*
X0040587Y0093379D01*
X0040566Y0093286D01*
X0040550Y0093193D01*
X0040538Y0093098D01*
X0041015Y0093098D01*
X0041029Y0093180D01*
X0041046Y0093262D01*
X0041067Y0093342D01*
X0041091Y0093422D01*
X0041120Y0093500D01*
X0041152Y0093577D01*
X0041187Y0093652D01*
X0041226Y0093726D01*
X0041268Y0093798D01*
X0041313Y0093868D01*
X0041362Y0093935D01*
X0041414Y0094000D01*
X0041468Y0094063D01*
X0041526Y0094123D01*
X0041586Y0094181D01*
X0041649Y0094235D01*
X0041714Y0094287D01*
X0041782Y0094336D01*
X0041851Y0094381D01*
X0041923Y0094423D01*
X0041997Y0094462D01*
X0042072Y0094497D01*
X0042149Y0094529D01*
X0042227Y0094558D01*
X0042307Y0094582D01*
X0042387Y0094603D01*
X0042469Y0094620D01*
X0042551Y0094634D01*
X0042634Y0094643D01*
X0042717Y0094649D01*
X0042800Y0094651D01*
X0042883Y0094649D01*
X0042966Y0094643D01*
X0043049Y0094634D01*
X0043131Y0094620D01*
X0043213Y0094603D01*
X0043293Y0094582D01*
X0043373Y0094558D01*
X0043451Y0094529D01*
X0043528Y0094497D01*
X0043603Y0094462D01*
X0043677Y0094423D01*
X0043749Y0094381D01*
X0043818Y0094336D01*
X0043886Y0094287D01*
X0043951Y0094235D01*
X0044014Y0094181D01*
X0044074Y0094123D01*
X0044132Y0094063D01*
X0044186Y0094000D01*
X0044238Y0093935D01*
X0044287Y0093868D01*
X0044332Y0093798D01*
X0044374Y0093726D01*
X0044413Y0093652D01*
X0044448Y0093577D01*
X0044480Y0093500D01*
X0044509Y0093422D01*
X0044533Y0093342D01*
X0044554Y0093262D01*
X0044571Y0093180D01*
X0044585Y0093098D01*
X0044105Y0093098D01*
X0044089Y0093168D01*
X0044070Y0093237D01*
X0044047Y0093305D01*
X0044021Y0093372D01*
X0043990Y0093438D01*
X0043957Y0093501D01*
X0043920Y0093563D01*
X0043879Y0093623D01*
X0043836Y0093680D01*
X0043789Y0093735D01*
X0043740Y0093787D01*
X0043688Y0093837D01*
X0043633Y0093884D01*
X0043575Y0093927D01*
X0043516Y0093968D01*
X0043454Y0094005D01*
X0043391Y0094038D01*
X0043325Y0094069D01*
X0043258Y0094095D01*
X0043190Y0094118D01*
X0043121Y0094138D01*
X0043050Y0094153D01*
X0042979Y0094165D01*
X0042908Y0094173D01*
X0042836Y0094177D01*
X0042764Y0094177D01*
X0042692Y0094173D01*
X0042621Y0094165D01*
X0042550Y0094153D01*
X0042479Y0094138D01*
X0042410Y0094118D01*
X0042342Y0094095D01*
X0042275Y0094069D01*
X0042209Y0094038D01*
X0042146Y0094005D01*
X0042084Y0093968D01*
X0042025Y0093927D01*
X0041967Y0093884D01*
X0041912Y0093837D01*
X0041860Y0093787D01*
X0041811Y0093735D01*
X0041764Y0093680D01*
X0041721Y0093623D01*
X0041680Y0093563D01*
X0041643Y0093501D01*
X0041610Y0093438D01*
X0041579Y0093372D01*
X0041553Y0093305D01*
X0041530Y0093237D01*
X0041511Y0093168D01*
X0041495Y0093098D01*
X0041982Y0093095D01*
X0042001Y0093150D01*
X0042023Y0093203D01*
X0042048Y0093254D01*
X0042077Y0093304D01*
X0042109Y0093351D01*
X0042145Y0093397D01*
X0042183Y0093440D01*
X0042224Y0093480D01*
X0042268Y0093517D01*
X0042314Y0093551D01*
X0042362Y0093582D01*
X0042413Y0093610D01*
X0042465Y0093634D01*
X0042518Y0093655D01*
X0042573Y0093672D01*
X0042629Y0093686D01*
X0042685Y0093695D01*
X0042743Y0093701D01*
X0042800Y0093703D01*
X0042857Y0093701D01*
X0042915Y0093695D01*
X0042971Y0093686D01*
X0043027Y0093672D01*
X0043082Y0093655D01*
X0043135Y0093634D01*
X0043187Y0093610D01*
X0043238Y0093582D01*
X0043286Y0093551D01*
X0043332Y0093517D01*
X0043376Y0093480D01*
X0043417Y0093440D01*
X0043455Y0093397D01*
X0043491Y0093351D01*
X0043523Y0093304D01*
X0043552Y0093254D01*
X0043577Y0093203D01*
X0043599Y0093150D01*
X0043618Y0093095D01*
X0043101Y0093081D01*
X0043077Y0093109D01*
X0043051Y0093135D01*
X0043022Y0093157D01*
X0042992Y0093177D01*
X0042959Y0093194D01*
X0042925Y0093208D01*
X0042890Y0093218D01*
X0042855Y0093225D01*
X0042818Y0093229D01*
X0042782Y0093229D01*
X0042745Y0093225D01*
X0042710Y0093218D01*
X0042675Y0093208D01*
X0042641Y0093194D01*
X0042608Y0093177D01*
X0042578Y0093157D01*
X0042549Y0093135D01*
X0042523Y0093109D01*
X0042499Y0093081D01*
X0040062Y0090600D02*
X0042800Y0090848D01*
X0042800Y0090848D01*
X0045538Y0090600D01*
X0045539Y0090599D01*
X0045527Y0090496D01*
X0045512Y0090392D01*
X0045493Y0090290D01*
X0045469Y0090188D01*
X0045442Y0090087D01*
X0045412Y0089988D01*
X0045377Y0089889D01*
X0045339Y0089792D01*
X0045297Y0089697D01*
X0045251Y0089603D01*
X0045202Y0089511D01*
X0045150Y0089420D01*
X0045094Y0089332D01*
X0045035Y0089246D01*
X0044972Y0089163D01*
X0044907Y0089082D01*
X0044838Y0089003D01*
X0044767Y0088927D01*
X0044692Y0088854D01*
X0044615Y0088783D01*
X0044536Y0088716D01*
X0044453Y0088652D01*
X0044369Y0088590D01*
X0044282Y0088533D01*
X0044193Y0088478D01*
X0044102Y0088427D01*
X0044009Y0088379D01*
X0043915Y0088335D01*
X0043819Y0088295D01*
X0043721Y0088258D01*
X0043622Y0088225D01*
X0043522Y0088195D01*
X0043421Y0088170D01*
X0043319Y0088148D01*
X0043216Y0088131D01*
X0043112Y0088117D01*
X0043009Y0088107D01*
X0042904Y0088101D01*
X0042800Y0088099D01*
X0042696Y0088101D01*
X0042591Y0088107D01*
X0042488Y0088117D01*
X0042384Y0088131D01*
X0042281Y0088148D01*
X0042179Y0088170D01*
X0042078Y0088195D01*
X0041978Y0088225D01*
X0041879Y0088258D01*
X0041781Y0088295D01*
X0041685Y0088335D01*
X0041591Y0088379D01*
X0041498Y0088427D01*
X0041407Y0088478D01*
X0041318Y0088533D01*
X0041231Y0088590D01*
X0041147Y0088652D01*
X0041064Y0088716D01*
X0040985Y0088783D01*
X0040908Y0088854D01*
X0040833Y0088927D01*
X0040762Y0089003D01*
X0040693Y0089082D01*
X0040628Y0089163D01*
X0040565Y0089246D01*
X0040506Y0089332D01*
X0040450Y0089420D01*
X0040398Y0089511D01*
X0040349Y0089603D01*
X0040303Y0089697D01*
X0040261Y0089792D01*
X0040223Y0089889D01*
X0040188Y0089988D01*
X0040158Y0090087D01*
X0040131Y0090188D01*
X0040107Y0090290D01*
X0040088Y0090392D01*
X0040073Y0090496D01*
X0040061Y0090599D01*
X0040538Y0090600D01*
X0040550Y0090505D01*
X0040566Y0090412D01*
X0040587Y0090319D01*
X0040611Y0090227D01*
X0040639Y0090136D01*
X0040670Y0090047D01*
X0040705Y0089958D01*
X0040744Y0089872D01*
X0040787Y0089787D01*
X0040833Y0089704D01*
X0040883Y0089623D01*
X0040935Y0089544D01*
X0040992Y0089467D01*
X0041051Y0089393D01*
X0041113Y0089321D01*
X0041178Y0089252D01*
X0041246Y0089186D01*
X0041317Y0089122D01*
X0041390Y0089062D01*
X0041466Y0089005D01*
X0041544Y0088951D01*
X0041625Y0088900D01*
X0041707Y0088853D01*
X0041791Y0088809D01*
X0041877Y0088768D01*
X0041965Y0088732D01*
X0042054Y0088699D01*
X0042144Y0088669D01*
X0042236Y0088644D01*
X0042328Y0088622D01*
X0042422Y0088605D01*
X0042516Y0088591D01*
X0042610Y0088581D01*
X0042705Y0088575D01*
X0042800Y0088573D01*
X0042895Y0088575D01*
X0042990Y0088581D01*
X0043084Y0088591D01*
X0043178Y0088605D01*
X0043272Y0088622D01*
X0043364Y0088644D01*
X0043456Y0088669D01*
X0043546Y0088699D01*
X0043635Y0088732D01*
X0043723Y0088768D01*
X0043809Y0088809D01*
X0043893Y0088853D01*
X0043975Y0088900D01*
X0044056Y0088951D01*
X0044134Y0089005D01*
X0044210Y0089062D01*
X0044283Y0089122D01*
X0044354Y0089186D01*
X0044422Y0089252D01*
X0044487Y0089321D01*
X0044549Y0089393D01*
X0044608Y0089467D01*
X0044665Y0089544D01*
X0044717Y0089623D01*
X0044767Y0089704D01*
X0044813Y0089787D01*
X0044856Y0089872D01*
X0044895Y0089958D01*
X0044930Y0090047D01*
X0044961Y0090136D01*
X0044989Y0090227D01*
X0045013Y0090319D01*
X0045034Y0090412D01*
X0045050Y0090505D01*
X0045062Y0090600D01*
X0044585Y0090600D01*
X0044571Y0090518D01*
X0044554Y0090436D01*
X0044533Y0090356D01*
X0044509Y0090276D01*
X0044480Y0090198D01*
X0044448Y0090121D01*
X0044413Y0090046D01*
X0044374Y0089972D01*
X0044332Y0089900D01*
X0044287Y0089830D01*
X0044238Y0089763D01*
X0044186Y0089698D01*
X0044132Y0089635D01*
X0044074Y0089575D01*
X0044014Y0089517D01*
X0043951Y0089463D01*
X0043886Y0089411D01*
X0043818Y0089362D01*
X0043749Y0089317D01*
X0043677Y0089275D01*
X0043603Y0089236D01*
X0043528Y0089201D01*
X0043451Y0089169D01*
X0043373Y0089140D01*
X0043293Y0089116D01*
X0043213Y0089095D01*
X0043131Y0089078D01*
X0043049Y0089064D01*
X0042966Y0089055D01*
X0042883Y0089049D01*
X0042800Y0089047D01*
X0042717Y0089049D01*
X0042634Y0089055D01*
X0042551Y0089064D01*
X0042469Y0089078D01*
X0042387Y0089095D01*
X0042307Y0089116D01*
X0042227Y0089140D01*
X0042149Y0089169D01*
X0042072Y0089201D01*
X0041997Y0089236D01*
X0041923Y0089275D01*
X0041851Y0089317D01*
X0041782Y0089362D01*
X0041714Y0089411D01*
X0041649Y0089463D01*
X0041586Y0089517D01*
X0041526Y0089575D01*
X0041468Y0089635D01*
X0041414Y0089698D01*
X0041362Y0089763D01*
X0041313Y0089830D01*
X0041268Y0089900D01*
X0041226Y0089972D01*
X0041187Y0090046D01*
X0041152Y0090121D01*
X0041120Y0090198D01*
X0041091Y0090276D01*
X0041067Y0090356D01*
X0041046Y0090436D01*
X0041029Y0090518D01*
X0041015Y0090600D01*
X0041495Y0090600D01*
X0041511Y0090530D01*
X0041530Y0090461D01*
X0041553Y0090393D01*
X0041579Y0090326D01*
X0041610Y0090260D01*
X0041643Y0090197D01*
X0041680Y0090135D01*
X0041721Y0090075D01*
X0041764Y0090018D01*
X0041811Y0089963D01*
X0041860Y0089911D01*
X0041912Y0089861D01*
X0041967Y0089814D01*
X0042025Y0089771D01*
X0042084Y0089730D01*
X0042146Y0089693D01*
X0042209Y0089660D01*
X0042275Y0089629D01*
X0042342Y0089603D01*
X0042410Y0089580D01*
X0042479Y0089560D01*
X0042550Y0089545D01*
X0042621Y0089533D01*
X0042692Y0089525D01*
X0042764Y0089521D01*
X0042836Y0089521D01*
X0042908Y0089525D01*
X0042979Y0089533D01*
X0043050Y0089545D01*
X0043121Y0089560D01*
X0043190Y0089580D01*
X0043258Y0089603D01*
X0043325Y0089629D01*
X0043391Y0089660D01*
X0043454Y0089693D01*
X0043516Y0089730D01*
X0043575Y0089771D01*
X0043633Y0089814D01*
X0043688Y0089861D01*
X0043740Y0089911D01*
X0043789Y0089963D01*
X0043836Y0090018D01*
X0043879Y0090075D01*
X0043920Y0090135D01*
X0043957Y0090197D01*
X0043990Y0090260D01*
X0044021Y0090326D01*
X0044047Y0090393D01*
X0044070Y0090461D01*
X0044089Y0090530D01*
X0044105Y0090600D01*
X0043618Y0090603D01*
X0043599Y0090548D01*
X0043577Y0090495D01*
X0043552Y0090444D01*
X0043523Y0090394D01*
X0043491Y0090347D01*
X0043455Y0090301D01*
X0043417Y0090258D01*
X0043376Y0090218D01*
X0043332Y0090181D01*
X0043286Y0090147D01*
X0043238Y0090116D01*
X0043187Y0090088D01*
X0043135Y0090064D01*
X0043082Y0090043D01*
X0043027Y0090026D01*
X0042971Y0090012D01*
X0042915Y0090003D01*
X0042857Y0089997D01*
X0042800Y0089995D01*
X0042743Y0089997D01*
X0042685Y0090003D01*
X0042629Y0090012D01*
X0042573Y0090026D01*
X0042518Y0090043D01*
X0042465Y0090064D01*
X0042413Y0090088D01*
X0042362Y0090116D01*
X0042314Y0090147D01*
X0042268Y0090181D01*
X0042224Y0090218D01*
X0042183Y0090258D01*
X0042145Y0090301D01*
X0042109Y0090347D01*
X0042077Y0090394D01*
X0042048Y0090444D01*
X0042023Y0090495D01*
X0042001Y0090548D01*
X0041982Y0090603D01*
X0042499Y0090617D01*
X0042523Y0090589D01*
X0042549Y0090563D01*
X0042578Y0090541D01*
X0042608Y0090521D01*
X0042641Y0090504D01*
X0042675Y0090490D01*
X0042710Y0090480D01*
X0042745Y0090473D01*
X0042782Y0090469D01*
X0042818Y0090469D01*
X0042855Y0090473D01*
X0042890Y0090480D01*
X0042925Y0090490D01*
X0042959Y0090504D01*
X0042992Y0090521D01*
X0043022Y0090541D01*
X0043051Y0090563D01*
X0043077Y0090589D01*
X0043101Y0090617D01*
X0065751Y0083587D02*
X0065999Y0080849D01*
X0065999Y0080849D01*
X0065751Y0078111D01*
X0065750Y0078110D01*
X0065647Y0078122D01*
X0065543Y0078137D01*
X0065441Y0078156D01*
X0065339Y0078180D01*
X0065238Y0078207D01*
X0065139Y0078237D01*
X0065040Y0078272D01*
X0064943Y0078310D01*
X0064848Y0078352D01*
X0064754Y0078398D01*
X0064662Y0078447D01*
X0064571Y0078499D01*
X0064483Y0078555D01*
X0064397Y0078614D01*
X0064314Y0078677D01*
X0064233Y0078742D01*
X0064154Y0078811D01*
X0064078Y0078882D01*
X0064005Y0078957D01*
X0063934Y0079034D01*
X0063867Y0079113D01*
X0063803Y0079196D01*
X0063741Y0079280D01*
X0063684Y0079367D01*
X0063629Y0079456D01*
X0063578Y0079547D01*
X0063530Y0079640D01*
X0063486Y0079734D01*
X0063446Y0079830D01*
X0063409Y0079928D01*
X0063376Y0080027D01*
X0063346Y0080127D01*
X0063321Y0080228D01*
X0063299Y0080330D01*
X0063282Y0080433D01*
X0063268Y0080537D01*
X0063258Y0080640D01*
X0063252Y0080745D01*
X0063250Y0080849D01*
X0063252Y0080953D01*
X0063258Y0081058D01*
X0063268Y0081161D01*
X0063282Y0081265D01*
X0063299Y0081368D01*
X0063321Y0081470D01*
X0063346Y0081571D01*
X0063376Y0081671D01*
X0063409Y0081770D01*
X0063446Y0081868D01*
X0063486Y0081964D01*
X0063530Y0082058D01*
X0063578Y0082151D01*
X0063629Y0082242D01*
X0063684Y0082331D01*
X0063741Y0082418D01*
X0063803Y0082502D01*
X0063867Y0082585D01*
X0063934Y0082664D01*
X0064005Y0082741D01*
X0064078Y0082816D01*
X0064154Y0082887D01*
X0064233Y0082956D01*
X0064314Y0083021D01*
X0064397Y0083084D01*
X0064483Y0083143D01*
X0064571Y0083199D01*
X0064662Y0083251D01*
X0064754Y0083300D01*
X0064848Y0083346D01*
X0064943Y0083388D01*
X0065040Y0083426D01*
X0065139Y0083461D01*
X0065238Y0083491D01*
X0065339Y0083518D01*
X0065441Y0083542D01*
X0065543Y0083561D01*
X0065647Y0083576D01*
X0065750Y0083588D01*
X0065751Y0083111D01*
X0065656Y0083099D01*
X0065563Y0083083D01*
X0065470Y0083062D01*
X0065378Y0083038D01*
X0065287Y0083010D01*
X0065198Y0082979D01*
X0065109Y0082944D01*
X0065023Y0082905D01*
X0064938Y0082862D01*
X0064855Y0082816D01*
X0064774Y0082766D01*
X0064695Y0082714D01*
X0064618Y0082657D01*
X0064544Y0082598D01*
X0064472Y0082536D01*
X0064403Y0082471D01*
X0064337Y0082403D01*
X0064273Y0082332D01*
X0064213Y0082259D01*
X0064156Y0082183D01*
X0064102Y0082105D01*
X0064051Y0082024D01*
X0064004Y0081942D01*
X0063960Y0081858D01*
X0063919Y0081772D01*
X0063883Y0081684D01*
X0063850Y0081595D01*
X0063820Y0081505D01*
X0063795Y0081413D01*
X0063773Y0081321D01*
X0063756Y0081227D01*
X0063742Y0081133D01*
X0063732Y0081039D01*
X0063726Y0080944D01*
X0063724Y0080849D01*
X0063726Y0080754D01*
X0063732Y0080659D01*
X0063742Y0080565D01*
X0063756Y0080471D01*
X0063773Y0080377D01*
X0063795Y0080285D01*
X0063820Y0080193D01*
X0063850Y0080103D01*
X0063883Y0080014D01*
X0063919Y0079926D01*
X0063960Y0079840D01*
X0064004Y0079756D01*
X0064051Y0079674D01*
X0064102Y0079593D01*
X0064156Y0079515D01*
X0064213Y0079439D01*
X0064273Y0079366D01*
X0064337Y0079295D01*
X0064403Y0079227D01*
X0064472Y0079162D01*
X0064544Y0079100D01*
X0064618Y0079041D01*
X0064695Y0078984D01*
X0064774Y0078932D01*
X0064855Y0078882D01*
X0064938Y0078836D01*
X0065023Y0078793D01*
X0065109Y0078754D01*
X0065198Y0078719D01*
X0065287Y0078688D01*
X0065378Y0078660D01*
X0065470Y0078636D01*
X0065563Y0078615D01*
X0065656Y0078599D01*
X0065751Y0078587D01*
X0065751Y0079064D01*
X0065669Y0079078D01*
X0065587Y0079095D01*
X0065507Y0079116D01*
X0065427Y0079140D01*
X0065349Y0079169D01*
X0065272Y0079201D01*
X0065197Y0079236D01*
X0065123Y0079275D01*
X0065051Y0079317D01*
X0064981Y0079362D01*
X0064914Y0079411D01*
X0064849Y0079463D01*
X0064786Y0079517D01*
X0064726Y0079575D01*
X0064668Y0079635D01*
X0064614Y0079698D01*
X0064562Y0079763D01*
X0064513Y0079831D01*
X0064468Y0079900D01*
X0064426Y0079972D01*
X0064387Y0080046D01*
X0064352Y0080121D01*
X0064320Y0080198D01*
X0064291Y0080276D01*
X0064267Y0080356D01*
X0064246Y0080436D01*
X0064229Y0080518D01*
X0064215Y0080600D01*
X0064206Y0080683D01*
X0064200Y0080766D01*
X0064198Y0080849D01*
X0064200Y0080932D01*
X0064206Y0081015D01*
X0064215Y0081098D01*
X0064229Y0081180D01*
X0064246Y0081262D01*
X0064267Y0081342D01*
X0064291Y0081422D01*
X0064320Y0081500D01*
X0064352Y0081577D01*
X0064387Y0081652D01*
X0064426Y0081726D01*
X0064468Y0081798D01*
X0064513Y0081867D01*
X0064562Y0081935D01*
X0064614Y0082000D01*
X0064668Y0082063D01*
X0064726Y0082123D01*
X0064786Y0082181D01*
X0064849Y0082235D01*
X0064914Y0082287D01*
X0064981Y0082336D01*
X0065051Y0082381D01*
X0065123Y0082423D01*
X0065197Y0082462D01*
X0065272Y0082497D01*
X0065349Y0082529D01*
X0065427Y0082558D01*
X0065507Y0082582D01*
X0065587Y0082603D01*
X0065669Y0082620D01*
X0065751Y0082634D01*
X0065751Y0082154D01*
X0065681Y0082138D01*
X0065612Y0082119D01*
X0065544Y0082096D01*
X0065477Y0082070D01*
X0065411Y0082039D01*
X0065348Y0082006D01*
X0065286Y0081969D01*
X0065226Y0081928D01*
X0065169Y0081885D01*
X0065114Y0081838D01*
X0065062Y0081789D01*
X0065012Y0081737D01*
X0064965Y0081682D01*
X0064922Y0081624D01*
X0064881Y0081565D01*
X0064844Y0081503D01*
X0064811Y0081440D01*
X0064780Y0081374D01*
X0064754Y0081307D01*
X0064731Y0081239D01*
X0064711Y0081170D01*
X0064696Y0081099D01*
X0064684Y0081028D01*
X0064676Y0080957D01*
X0064672Y0080885D01*
X0064672Y0080813D01*
X0064676Y0080741D01*
X0064684Y0080670D01*
X0064696Y0080599D01*
X0064711Y0080528D01*
X0064731Y0080459D01*
X0064754Y0080391D01*
X0064780Y0080324D01*
X0064811Y0080258D01*
X0064844Y0080195D01*
X0064881Y0080133D01*
X0064922Y0080074D01*
X0064965Y0080016D01*
X0065012Y0079961D01*
X0065062Y0079909D01*
X0065114Y0079860D01*
X0065169Y0079813D01*
X0065226Y0079770D01*
X0065286Y0079729D01*
X0065348Y0079692D01*
X0065411Y0079659D01*
X0065477Y0079628D01*
X0065544Y0079602D01*
X0065612Y0079579D01*
X0065681Y0079560D01*
X0065751Y0079544D01*
X0065754Y0080031D01*
X0065699Y0080050D01*
X0065646Y0080072D01*
X0065595Y0080097D01*
X0065545Y0080126D01*
X0065498Y0080158D01*
X0065452Y0080194D01*
X0065409Y0080232D01*
X0065369Y0080273D01*
X0065332Y0080317D01*
X0065298Y0080363D01*
X0065267Y0080411D01*
X0065239Y0080462D01*
X0065215Y0080514D01*
X0065194Y0080567D01*
X0065177Y0080622D01*
X0065163Y0080678D01*
X0065154Y0080734D01*
X0065148Y0080792D01*
X0065146Y0080849D01*
X0065148Y0080906D01*
X0065154Y0080964D01*
X0065163Y0081020D01*
X0065177Y0081076D01*
X0065194Y0081131D01*
X0065215Y0081184D01*
X0065239Y0081236D01*
X0065267Y0081287D01*
X0065298Y0081335D01*
X0065332Y0081381D01*
X0065369Y0081425D01*
X0065409Y0081466D01*
X0065452Y0081504D01*
X0065498Y0081540D01*
X0065545Y0081572D01*
X0065595Y0081601D01*
X0065646Y0081626D01*
X0065699Y0081648D01*
X0065754Y0081667D01*
X0065768Y0081150D01*
X0065740Y0081126D01*
X0065714Y0081100D01*
X0065692Y0081071D01*
X0065672Y0081041D01*
X0065655Y0081008D01*
X0065641Y0080974D01*
X0065631Y0080939D01*
X0065624Y0080904D01*
X0065620Y0080867D01*
X0065620Y0080831D01*
X0065624Y0080794D01*
X0065631Y0080759D01*
X0065641Y0080724D01*
X0065655Y0080690D01*
X0065672Y0080657D01*
X0065692Y0080627D01*
X0065714Y0080598D01*
X0065740Y0080572D01*
X0065768Y0080548D01*
X0068249Y0078111D02*
X0068001Y0080849D01*
X0068001Y0080849D01*
X0068249Y0083587D01*
X0068250Y0083588D01*
X0068353Y0083576D01*
X0068457Y0083561D01*
X0068559Y0083542D01*
X0068661Y0083518D01*
X0068762Y0083491D01*
X0068861Y0083461D01*
X0068960Y0083426D01*
X0069057Y0083388D01*
X0069152Y0083346D01*
X0069246Y0083300D01*
X0069338Y0083251D01*
X0069429Y0083199D01*
X0069517Y0083143D01*
X0069603Y0083084D01*
X0069686Y0083021D01*
X0069767Y0082956D01*
X0069846Y0082887D01*
X0069922Y0082816D01*
X0069995Y0082741D01*
X0070066Y0082664D01*
X0070133Y0082585D01*
X0070197Y0082502D01*
X0070259Y0082418D01*
X0070316Y0082331D01*
X0070371Y0082242D01*
X0070422Y0082151D01*
X0070470Y0082058D01*
X0070514Y0081964D01*
X0070554Y0081868D01*
X0070591Y0081770D01*
X0070624Y0081671D01*
X0070654Y0081571D01*
X0070679Y0081470D01*
X0070701Y0081368D01*
X0070718Y0081265D01*
X0070732Y0081161D01*
X0070742Y0081058D01*
X0070748Y0080953D01*
X0070750Y0080849D01*
X0070748Y0080745D01*
X0070742Y0080640D01*
X0070732Y0080537D01*
X0070718Y0080433D01*
X0070701Y0080330D01*
X0070679Y0080228D01*
X0070654Y0080127D01*
X0070624Y0080027D01*
X0070591Y0079928D01*
X0070554Y0079830D01*
X0070514Y0079734D01*
X0070470Y0079640D01*
X0070422Y0079547D01*
X0070371Y0079456D01*
X0070316Y0079367D01*
X0070259Y0079280D01*
X0070197Y0079196D01*
X0070133Y0079113D01*
X0070066Y0079034D01*
X0069995Y0078957D01*
X0069922Y0078882D01*
X0069846Y0078811D01*
X0069767Y0078742D01*
X0069686Y0078677D01*
X0069603Y0078614D01*
X0069517Y0078555D01*
X0069429Y0078499D01*
X0069338Y0078447D01*
X0069246Y0078398D01*
X0069152Y0078352D01*
X0069057Y0078310D01*
X0068960Y0078272D01*
X0068861Y0078237D01*
X0068762Y0078207D01*
X0068661Y0078180D01*
X0068559Y0078156D01*
X0068457Y0078137D01*
X0068353Y0078122D01*
X0068250Y0078110D01*
X0068249Y0078587D01*
X0068344Y0078599D01*
X0068437Y0078615D01*
X0068530Y0078636D01*
X0068622Y0078660D01*
X0068713Y0078688D01*
X0068802Y0078719D01*
X0068891Y0078754D01*
X0068977Y0078793D01*
X0069062Y0078836D01*
X0069145Y0078882D01*
X0069226Y0078932D01*
X0069305Y0078984D01*
X0069382Y0079041D01*
X0069456Y0079100D01*
X0069528Y0079162D01*
X0069597Y0079227D01*
X0069663Y0079295D01*
X0069727Y0079366D01*
X0069787Y0079439D01*
X0069844Y0079515D01*
X0069898Y0079593D01*
X0069949Y0079674D01*
X0069996Y0079756D01*
X0070040Y0079840D01*
X0070081Y0079926D01*
X0070117Y0080014D01*
X0070150Y0080103D01*
X0070180Y0080193D01*
X0070205Y0080285D01*
X0070227Y0080377D01*
X0070244Y0080471D01*
X0070258Y0080565D01*
X0070268Y0080659D01*
X0070274Y0080754D01*
X0070276Y0080849D01*
X0070274Y0080944D01*
X0070268Y0081039D01*
X0070258Y0081133D01*
X0070244Y0081227D01*
X0070227Y0081321D01*
X0070205Y0081413D01*
X0070180Y0081505D01*
X0070150Y0081595D01*
X0070117Y0081684D01*
X0070081Y0081772D01*
X0070040Y0081858D01*
X0069996Y0081942D01*
X0069949Y0082024D01*
X0069898Y0082105D01*
X0069844Y0082183D01*
X0069787Y0082259D01*
X0069727Y0082332D01*
X0069663Y0082403D01*
X0069597Y0082471D01*
X0069528Y0082536D01*
X0069456Y0082598D01*
X0069382Y0082657D01*
X0069305Y0082714D01*
X0069226Y0082766D01*
X0069145Y0082816D01*
X0069062Y0082862D01*
X0068977Y0082905D01*
X0068891Y0082944D01*
X0068802Y0082979D01*
X0068713Y0083010D01*
X0068622Y0083038D01*
X0068530Y0083062D01*
X0068437Y0083083D01*
X0068344Y0083099D01*
X0068249Y0083111D01*
X0068249Y0082634D01*
X0068331Y0082620D01*
X0068413Y0082603D01*
X0068493Y0082582D01*
X0068573Y0082558D01*
X0068651Y0082529D01*
X0068728Y0082497D01*
X0068803Y0082462D01*
X0068877Y0082423D01*
X0068949Y0082381D01*
X0069019Y0082336D01*
X0069086Y0082287D01*
X0069151Y0082235D01*
X0069214Y0082181D01*
X0069274Y0082123D01*
X0069332Y0082063D01*
X0069386Y0082000D01*
X0069438Y0081935D01*
X0069487Y0081867D01*
X0069532Y0081798D01*
X0069574Y0081726D01*
X0069613Y0081652D01*
X0069648Y0081577D01*
X0069680Y0081500D01*
X0069709Y0081422D01*
X0069733Y0081342D01*
X0069754Y0081262D01*
X0069771Y0081180D01*
X0069785Y0081098D01*
X0069794Y0081015D01*
X0069800Y0080932D01*
X0069802Y0080849D01*
X0069800Y0080766D01*
X0069794Y0080683D01*
X0069785Y0080600D01*
X0069771Y0080518D01*
X0069754Y0080436D01*
X0069733Y0080356D01*
X0069709Y0080276D01*
X0069680Y0080198D01*
X0069648Y0080121D01*
X0069613Y0080046D01*
X0069574Y0079972D01*
X0069532Y0079900D01*
X0069487Y0079831D01*
X0069438Y0079763D01*
X0069386Y0079698D01*
X0069332Y0079635D01*
X0069274Y0079575D01*
X0069214Y0079517D01*
X0069151Y0079463D01*
X0069086Y0079411D01*
X0069019Y0079362D01*
X0068949Y0079317D01*
X0068877Y0079275D01*
X0068803Y0079236D01*
X0068728Y0079201D01*
X0068651Y0079169D01*
X0068573Y0079140D01*
X0068493Y0079116D01*
X0068413Y0079095D01*
X0068331Y0079078D01*
X0068249Y0079064D01*
X0068249Y0079544D01*
X0068319Y0079560D01*
X0068388Y0079579D01*
X0068456Y0079602D01*
X0068523Y0079628D01*
X0068589Y0079659D01*
X0068652Y0079692D01*
X0068714Y0079729D01*
X0068774Y0079770D01*
X0068831Y0079813D01*
X0068886Y0079860D01*
X0068938Y0079909D01*
X0068988Y0079961D01*
X0069035Y0080016D01*
X0069078Y0080074D01*
X0069119Y0080133D01*
X0069156Y0080195D01*
X0069189Y0080258D01*
X0069220Y0080324D01*
X0069246Y0080391D01*
X0069269Y0080459D01*
X0069289Y0080528D01*
X0069304Y0080599D01*
X0069316Y0080670D01*
X0069324Y0080741D01*
X0069328Y0080813D01*
X0069328Y0080885D01*
X0069324Y0080957D01*
X0069316Y0081028D01*
X0069304Y0081099D01*
X0069289Y0081170D01*
X0069269Y0081239D01*
X0069246Y0081307D01*
X0069220Y0081374D01*
X0069189Y0081440D01*
X0069156Y0081503D01*
X0069119Y0081565D01*
X0069078Y0081624D01*
X0069035Y0081682D01*
X0068988Y0081737D01*
X0068938Y0081789D01*
X0068886Y0081838D01*
X0068831Y0081885D01*
X0068774Y0081928D01*
X0068714Y0081969D01*
X0068652Y0082006D01*
X0068589Y0082039D01*
X0068523Y0082070D01*
X0068456Y0082096D01*
X0068388Y0082119D01*
X0068319Y0082138D01*
X0068249Y0082154D01*
X0068246Y0081667D01*
X0068301Y0081648D01*
X0068354Y0081626D01*
X0068405Y0081601D01*
X0068455Y0081572D01*
X0068502Y0081540D01*
X0068548Y0081504D01*
X0068591Y0081466D01*
X0068631Y0081425D01*
X0068668Y0081381D01*
X0068702Y0081335D01*
X0068733Y0081287D01*
X0068761Y0081236D01*
X0068785Y0081184D01*
X0068806Y0081131D01*
X0068823Y0081076D01*
X0068837Y0081020D01*
X0068846Y0080964D01*
X0068852Y0080906D01*
X0068854Y0080849D01*
X0068852Y0080792D01*
X0068846Y0080734D01*
X0068837Y0080678D01*
X0068823Y0080622D01*
X0068806Y0080567D01*
X0068785Y0080514D01*
X0068761Y0080462D01*
X0068733Y0080411D01*
X0068702Y0080363D01*
X0068668Y0080317D01*
X0068631Y0080273D01*
X0068591Y0080232D01*
X0068548Y0080194D01*
X0068502Y0080158D01*
X0068455Y0080126D01*
X0068405Y0080097D01*
X0068354Y0080072D01*
X0068301Y0080050D01*
X0068246Y0080031D01*
X0068232Y0080548D01*
X0068260Y0080572D01*
X0068286Y0080598D01*
X0068308Y0080627D01*
X0068328Y0080657D01*
X0068345Y0080690D01*
X0068359Y0080724D01*
X0068369Y0080759D01*
X0068376Y0080794D01*
X0068380Y0080831D01*
X0068380Y0080867D01*
X0068376Y0080904D01*
X0068369Y0080939D01*
X0068359Y0080974D01*
X0068345Y0081008D01*
X0068328Y0081041D01*
X0068308Y0081071D01*
X0068286Y0081100D01*
X0068260Y0081126D01*
X0068232Y0081150D01*
X0110967Y0119248D02*
X0133802Y0119248D01*
X0133802Y0182241D01*
X0110967Y0182241D01*
D12*
X0093780Y0169968D02*
X0093780Y0168039D01*
X0092016Y0168039D02*
X0092016Y0169968D01*
X0091764Y0155968D02*
X0091764Y0154039D01*
X0093528Y0154039D02*
X0093528Y0155968D01*
X0083654Y0155968D02*
X0083654Y0154039D01*
X0081890Y0154039D02*
X0081890Y0155968D01*
X0082602Y0136613D02*
X0082602Y0134684D01*
X0084365Y0134684D02*
X0084365Y0136613D01*
X0074194Y0136601D02*
X0074194Y0134672D01*
X0072431Y0134672D02*
X0072431Y0136601D01*
X0072517Y0121594D02*
X0070587Y0121594D01*
X0070587Y0119830D02*
X0072517Y0119830D01*
X0072598Y0096447D02*
X0061402Y0096447D01*
X0061402Y0091250D01*
X0072598Y0091250D01*
X0072598Y0096447D01*
X0072500Y0084849D02*
X0061500Y0084849D01*
X0061440Y0084847D01*
X0061379Y0084842D01*
X0061320Y0084833D01*
X0061261Y0084820D01*
X0061202Y0084804D01*
X0061145Y0084784D01*
X0061090Y0084761D01*
X0061035Y0084734D01*
X0060983Y0084705D01*
X0060932Y0084672D01*
X0060883Y0084636D01*
X0060837Y0084598D01*
X0060793Y0084556D01*
X0060751Y0084512D01*
X0060713Y0084466D01*
X0060677Y0084417D01*
X0060644Y0084366D01*
X0060615Y0084314D01*
X0060588Y0084259D01*
X0060565Y0084204D01*
X0060545Y0084147D01*
X0060529Y0084088D01*
X0060516Y0084029D01*
X0060507Y0083970D01*
X0060502Y0083909D01*
X0060500Y0083849D01*
X0060500Y0077849D01*
X0060502Y0077789D01*
X0060507Y0077728D01*
X0060516Y0077669D01*
X0060529Y0077610D01*
X0060545Y0077551D01*
X0060565Y0077494D01*
X0060588Y0077439D01*
X0060615Y0077384D01*
X0060644Y0077332D01*
X0060677Y0077281D01*
X0060713Y0077232D01*
X0060751Y0077186D01*
X0060793Y0077142D01*
X0060837Y0077100D01*
X0060883Y0077062D01*
X0060932Y0077026D01*
X0060983Y0076993D01*
X0061035Y0076964D01*
X0061090Y0076937D01*
X0061145Y0076914D01*
X0061202Y0076894D01*
X0061261Y0076878D01*
X0061320Y0076865D01*
X0061379Y0076856D01*
X0061440Y0076851D01*
X0061500Y0076849D01*
X0072500Y0076849D01*
X0072560Y0076851D01*
X0072621Y0076856D01*
X0072680Y0076865D01*
X0072739Y0076878D01*
X0072798Y0076894D01*
X0072855Y0076914D01*
X0072910Y0076937D01*
X0072965Y0076964D01*
X0073017Y0076993D01*
X0073068Y0077026D01*
X0073117Y0077062D01*
X0073163Y0077100D01*
X0073207Y0077142D01*
X0073249Y0077186D01*
X0073287Y0077232D01*
X0073323Y0077281D01*
X0073356Y0077332D01*
X0073385Y0077384D01*
X0073412Y0077439D01*
X0073435Y0077494D01*
X0073455Y0077551D01*
X0073471Y0077610D01*
X0073484Y0077669D01*
X0073493Y0077728D01*
X0073498Y0077789D01*
X0073500Y0077849D01*
X0073500Y0083849D01*
X0073498Y0083909D01*
X0073493Y0083970D01*
X0073484Y0084029D01*
X0073471Y0084088D01*
X0073455Y0084147D01*
X0073435Y0084204D01*
X0073412Y0084259D01*
X0073385Y0084314D01*
X0073356Y0084366D01*
X0073323Y0084417D01*
X0073287Y0084466D01*
X0073249Y0084512D01*
X0073207Y0084556D01*
X0073163Y0084598D01*
X0073117Y0084636D01*
X0073068Y0084672D01*
X0073017Y0084705D01*
X0072965Y0084734D01*
X0072910Y0084761D01*
X0072855Y0084784D01*
X0072798Y0084804D01*
X0072739Y0084820D01*
X0072680Y0084833D01*
X0072621Y0084842D01*
X0072560Y0084847D01*
X0072500Y0084849D01*
X0073000Y0080849D02*
X0071000Y0080849D01*
X0072035Y0069731D02*
X0073965Y0069731D01*
X0073965Y0067967D02*
X0072035Y0067967D01*
X0082118Y0070884D02*
X0082118Y0072813D01*
X0083882Y0072813D02*
X0083882Y0070884D01*
X0094935Y0073667D02*
X0096865Y0073667D01*
X0096865Y0075431D02*
X0094935Y0075431D01*
X0103718Y0073013D02*
X0103718Y0071084D01*
X0105482Y0071084D02*
X0105482Y0073013D01*
X0085902Y0095967D02*
X0083972Y0095967D01*
X0083972Y0097731D02*
X0085902Y0097731D01*
X0063000Y0080849D02*
X0061000Y0080849D01*
X0046800Y0086349D02*
X0046800Y0097349D01*
X0046798Y0097409D01*
X0046793Y0097470D01*
X0046784Y0097529D01*
X0046771Y0097588D01*
X0046755Y0097647D01*
X0046735Y0097704D01*
X0046712Y0097759D01*
X0046685Y0097814D01*
X0046656Y0097866D01*
X0046623Y0097917D01*
X0046587Y0097966D01*
X0046549Y0098012D01*
X0046507Y0098056D01*
X0046463Y0098098D01*
X0046417Y0098136D01*
X0046368Y0098172D01*
X0046317Y0098205D01*
X0046265Y0098234D01*
X0046210Y0098261D01*
X0046155Y0098284D01*
X0046098Y0098304D01*
X0046039Y0098320D01*
X0045980Y0098333D01*
X0045921Y0098342D01*
X0045860Y0098347D01*
X0045800Y0098349D01*
X0039800Y0098349D01*
X0039740Y0098347D01*
X0039679Y0098342D01*
X0039620Y0098333D01*
X0039561Y0098320D01*
X0039502Y0098304D01*
X0039445Y0098284D01*
X0039390Y0098261D01*
X0039335Y0098234D01*
X0039283Y0098205D01*
X0039232Y0098172D01*
X0039183Y0098136D01*
X0039137Y0098098D01*
X0039093Y0098056D01*
X0039051Y0098012D01*
X0039013Y0097966D01*
X0038977Y0097917D01*
X0038944Y0097866D01*
X0038915Y0097814D01*
X0038888Y0097759D01*
X0038865Y0097704D01*
X0038845Y0097647D01*
X0038829Y0097588D01*
X0038816Y0097529D01*
X0038807Y0097470D01*
X0038802Y0097409D01*
X0038800Y0097349D01*
X0038800Y0086349D01*
X0038802Y0086289D01*
X0038807Y0086228D01*
X0038816Y0086169D01*
X0038829Y0086110D01*
X0038845Y0086051D01*
X0038865Y0085994D01*
X0038888Y0085939D01*
X0038915Y0085884D01*
X0038944Y0085832D01*
X0038977Y0085781D01*
X0039013Y0085732D01*
X0039051Y0085686D01*
X0039093Y0085642D01*
X0039137Y0085600D01*
X0039183Y0085562D01*
X0039232Y0085526D01*
X0039283Y0085493D01*
X0039335Y0085464D01*
X0039390Y0085437D01*
X0039445Y0085414D01*
X0039502Y0085394D01*
X0039561Y0085378D01*
X0039620Y0085365D01*
X0039679Y0085356D01*
X0039740Y0085351D01*
X0039800Y0085349D01*
X0045800Y0085349D01*
X0045860Y0085351D01*
X0045921Y0085356D01*
X0045980Y0085365D01*
X0046039Y0085378D01*
X0046098Y0085394D01*
X0046155Y0085414D01*
X0046210Y0085437D01*
X0046265Y0085464D01*
X0046317Y0085493D01*
X0046368Y0085526D01*
X0046417Y0085562D01*
X0046463Y0085600D01*
X0046507Y0085642D01*
X0046549Y0085686D01*
X0046587Y0085732D01*
X0046623Y0085781D01*
X0046656Y0085832D01*
X0046685Y0085884D01*
X0046712Y0085939D01*
X0046735Y0085994D01*
X0046755Y0086051D01*
X0046771Y0086110D01*
X0046784Y0086169D01*
X0046793Y0086228D01*
X0046798Y0086289D01*
X0046800Y0086349D01*
X0042800Y0085849D02*
X0042800Y0087849D01*
X0042800Y0095849D02*
X0042800Y0097849D01*
X0028965Y0079731D02*
X0027035Y0079731D01*
X0027035Y0077967D02*
X0028965Y0077967D01*
X0034218Y0072713D02*
X0034218Y0070784D01*
X0035982Y0070784D02*
X0035982Y0072713D01*
X0041935Y0070131D02*
X0043865Y0070131D01*
X0043865Y0068367D02*
X0041935Y0068367D01*
X0017933Y0077967D02*
X0016004Y0077967D01*
X0016004Y0079731D02*
X0017933Y0079731D01*
X0036470Y0134304D02*
X0036840Y0134304D01*
X0036470Y0134304D02*
X0047667Y0134304D01*
X0047297Y0134304D01*
X0047667Y0134304D02*
X0047667Y0140682D01*
X0047297Y0140682D01*
X0047667Y0140682D02*
X0036470Y0140682D01*
X0036840Y0140682D01*
X0036470Y0140682D02*
X0036470Y0134304D01*
X0040013Y0134304D02*
X0044124Y0134304D01*
X0044124Y0140682D02*
X0043754Y0140682D01*
X0040383Y0140682D02*
X0040013Y0140682D01*
X0050031Y0149449D02*
X0050031Y0160449D01*
X0050033Y0160509D01*
X0050038Y0160570D01*
X0050047Y0160629D01*
X0050060Y0160688D01*
X0050076Y0160747D01*
X0050096Y0160804D01*
X0050119Y0160859D01*
X0050146Y0160914D01*
X0050175Y0160966D01*
X0050208Y0161017D01*
X0050244Y0161066D01*
X0050282Y0161112D01*
X0050324Y0161156D01*
X0050368Y0161198D01*
X0050414Y0161236D01*
X0050463Y0161272D01*
X0050514Y0161305D01*
X0050566Y0161334D01*
X0050621Y0161361D01*
X0050676Y0161384D01*
X0050733Y0161404D01*
X0050792Y0161420D01*
X0050851Y0161433D01*
X0050910Y0161442D01*
X0050971Y0161447D01*
X0051031Y0161449D01*
X0057031Y0161449D01*
X0057091Y0161447D01*
X0057152Y0161442D01*
X0057211Y0161433D01*
X0057270Y0161420D01*
X0057329Y0161404D01*
X0057386Y0161384D01*
X0057441Y0161361D01*
X0057496Y0161334D01*
X0057548Y0161305D01*
X0057599Y0161272D01*
X0057648Y0161236D01*
X0057694Y0161198D01*
X0057738Y0161156D01*
X0057780Y0161112D01*
X0057818Y0161066D01*
X0057854Y0161017D01*
X0057887Y0160966D01*
X0057916Y0160914D01*
X0057943Y0160859D01*
X0057966Y0160804D01*
X0057986Y0160747D01*
X0058002Y0160688D01*
X0058015Y0160629D01*
X0058024Y0160570D01*
X0058029Y0160509D01*
X0058031Y0160449D01*
X0058031Y0149449D01*
X0058029Y0149389D01*
X0058024Y0149328D01*
X0058015Y0149269D01*
X0058002Y0149210D01*
X0057986Y0149151D01*
X0057966Y0149094D01*
X0057943Y0149039D01*
X0057916Y0148984D01*
X0057887Y0148932D01*
X0057854Y0148881D01*
X0057818Y0148832D01*
X0057780Y0148786D01*
X0057738Y0148742D01*
X0057694Y0148700D01*
X0057648Y0148662D01*
X0057599Y0148626D01*
X0057548Y0148593D01*
X0057496Y0148564D01*
X0057441Y0148537D01*
X0057386Y0148514D01*
X0057329Y0148494D01*
X0057270Y0148478D01*
X0057211Y0148465D01*
X0057152Y0148456D01*
X0057091Y0148451D01*
X0057031Y0148449D01*
X0051031Y0148449D01*
X0050971Y0148451D01*
X0050910Y0148456D01*
X0050851Y0148465D01*
X0050792Y0148478D01*
X0050733Y0148494D01*
X0050676Y0148514D01*
X0050621Y0148537D01*
X0050566Y0148564D01*
X0050514Y0148593D01*
X0050463Y0148626D01*
X0050414Y0148662D01*
X0050368Y0148700D01*
X0050324Y0148742D01*
X0050282Y0148786D01*
X0050244Y0148832D01*
X0050208Y0148881D01*
X0050175Y0148932D01*
X0050146Y0148984D01*
X0050119Y0149039D01*
X0050096Y0149094D01*
X0050076Y0149151D01*
X0050060Y0149210D01*
X0050047Y0149269D01*
X0050038Y0149328D01*
X0050033Y0149389D01*
X0050031Y0149449D01*
X0054031Y0148949D02*
X0054031Y0150949D01*
X0054031Y0158949D02*
X0054031Y0160949D01*
X0047630Y0160060D02*
X0047260Y0160060D01*
X0047630Y0160060D02*
X0047630Y0166438D01*
X0047260Y0166438D01*
X0047630Y0166438D02*
X0036433Y0166438D01*
X0036803Y0166438D01*
X0036433Y0166438D02*
X0036433Y0160060D01*
X0036803Y0160060D01*
X0036433Y0160060D02*
X0047630Y0160060D01*
X0044087Y0160060D02*
X0043717Y0160060D01*
X0040346Y0160060D02*
X0039976Y0160060D01*
X0039976Y0166438D02*
X0044087Y0166438D01*
X0044731Y0175849D02*
X0044731Y0176849D01*
X0044731Y0182849D02*
X0044731Y0183849D01*
X0037731Y0179849D02*
X0035731Y0179849D01*
X0035231Y0176849D02*
X0035231Y0182849D01*
X0035233Y0182909D01*
X0035238Y0182970D01*
X0035247Y0183029D01*
X0035260Y0183088D01*
X0035276Y0183147D01*
X0035296Y0183204D01*
X0035319Y0183259D01*
X0035346Y0183314D01*
X0035375Y0183366D01*
X0035408Y0183417D01*
X0035444Y0183466D01*
X0035482Y0183512D01*
X0035524Y0183556D01*
X0035568Y0183598D01*
X0035614Y0183636D01*
X0035663Y0183672D01*
X0035714Y0183705D01*
X0035766Y0183734D01*
X0035821Y0183761D01*
X0035876Y0183784D01*
X0035933Y0183804D01*
X0035992Y0183820D01*
X0036051Y0183833D01*
X0036110Y0183842D01*
X0036171Y0183847D01*
X0036231Y0183849D01*
X0053231Y0183849D01*
X0053291Y0183847D01*
X0053352Y0183842D01*
X0053411Y0183833D01*
X0053470Y0183820D01*
X0053529Y0183804D01*
X0053586Y0183784D01*
X0053641Y0183761D01*
X0053696Y0183734D01*
X0053748Y0183705D01*
X0053799Y0183672D01*
X0053848Y0183636D01*
X0053894Y0183598D01*
X0053938Y0183556D01*
X0053980Y0183512D01*
X0054018Y0183466D01*
X0054054Y0183417D01*
X0054087Y0183366D01*
X0054116Y0183314D01*
X0054143Y0183259D01*
X0054166Y0183204D01*
X0054186Y0183147D01*
X0054202Y0183088D01*
X0054215Y0183029D01*
X0054224Y0182970D01*
X0054229Y0182909D01*
X0054231Y0182849D01*
X0054231Y0176849D01*
X0054229Y0176789D01*
X0054224Y0176728D01*
X0054215Y0176669D01*
X0054202Y0176610D01*
X0054186Y0176551D01*
X0054166Y0176494D01*
X0054143Y0176439D01*
X0054116Y0176384D01*
X0054087Y0176332D01*
X0054054Y0176281D01*
X0054018Y0176232D01*
X0053980Y0176186D01*
X0053938Y0176142D01*
X0053894Y0176100D01*
X0053848Y0176062D01*
X0053799Y0176026D01*
X0053748Y0175993D01*
X0053696Y0175964D01*
X0053641Y0175937D01*
X0053586Y0175914D01*
X0053529Y0175894D01*
X0053470Y0175878D01*
X0053411Y0175865D01*
X0053352Y0175856D01*
X0053291Y0175851D01*
X0053231Y0175849D01*
X0036231Y0175849D01*
X0036171Y0175851D01*
X0036110Y0175856D01*
X0036051Y0175865D01*
X0035992Y0175878D01*
X0035933Y0175894D01*
X0035876Y0175914D01*
X0035821Y0175937D01*
X0035766Y0175964D01*
X0035714Y0175993D01*
X0035663Y0176026D01*
X0035614Y0176062D01*
X0035568Y0176100D01*
X0035524Y0176142D01*
X0035482Y0176186D01*
X0035444Y0176232D01*
X0035408Y0176281D01*
X0035375Y0176332D01*
X0035346Y0176384D01*
X0035319Y0176439D01*
X0035296Y0176494D01*
X0035276Y0176551D01*
X0035260Y0176610D01*
X0035247Y0176669D01*
X0035238Y0176728D01*
X0035233Y0176789D01*
X0035231Y0176849D01*
X0051731Y0179849D02*
X0053731Y0179849D01*
X0055635Y0141714D02*
X0057565Y0141714D01*
X0057565Y0139950D02*
X0055635Y0139950D01*
X0039765Y0232667D02*
X0037835Y0232667D01*
X0037835Y0234431D02*
X0039765Y0234431D01*
X0024765Y0234431D02*
X0022835Y0234431D01*
X0022835Y0232667D02*
X0024765Y0232667D01*
X0045732Y0284177D02*
X0045732Y0291727D01*
X0052132Y0291727D02*
X0052132Y0284177D01*
X0057719Y0284189D02*
X0057719Y0291739D01*
X0064119Y0291739D02*
X0064119Y0284189D01*
D13*
X0040409Y0233568D03*
X0037209Y0233568D03*
X0025409Y0233568D03*
X0022209Y0233568D03*
X0055009Y0140851D03*
X0058209Y0140851D03*
X0069961Y0120731D03*
X0073161Y0120731D03*
X0083328Y0096830D03*
X0086528Y0096830D03*
X0094291Y0074530D03*
X0097491Y0074530D03*
X0074609Y0068868D03*
X0071409Y0068868D03*
X0044491Y0069230D03*
X0041291Y0069230D03*
X0029609Y0078868D03*
X0026409Y0078868D03*
X0018578Y0078868D03*
X0015378Y0078868D03*
D14*
X0015581Y0082299D02*
X0015581Y0086002D01*
X0013730Y0086002D01*
X0013113Y0085385D01*
X0013113Y0084150D01*
X0013730Y0083533D01*
X0015581Y0083533D01*
X0014347Y0083533D02*
X0013113Y0082299D01*
X0011898Y0082916D02*
X0011281Y0082299D01*
X0010047Y0082299D01*
X0009430Y0082916D01*
X0009430Y0083533D01*
X0010047Y0084150D01*
X0011898Y0084150D01*
X0011898Y0082916D01*
X0011898Y0084150D02*
X0010664Y0085385D01*
X0009430Y0086002D01*
X0016984Y0067502D02*
X0018218Y0067502D01*
X0018835Y0066885D01*
X0018835Y0066268D01*
X0018218Y0065650D01*
X0016367Y0065650D01*
X0016367Y0064416D02*
X0016367Y0066885D01*
X0016984Y0067502D01*
X0016367Y0064416D02*
X0016984Y0063799D01*
X0018218Y0063799D01*
X0018835Y0064416D01*
X0020050Y0064416D02*
X0020667Y0063799D01*
X0021901Y0063799D01*
X0022519Y0064416D01*
X0022519Y0066885D01*
X0021901Y0067502D01*
X0020667Y0067502D01*
X0020050Y0066885D01*
X0027715Y0056802D02*
X0027098Y0056185D01*
X0027098Y0055568D01*
X0027715Y0054950D01*
X0027098Y0054333D01*
X0027098Y0053716D01*
X0027715Y0053099D01*
X0028950Y0053099D01*
X0029567Y0053716D01*
X0030781Y0053716D02*
X0031398Y0053099D01*
X0032633Y0053099D01*
X0033250Y0053716D01*
X0033250Y0056185D01*
X0032633Y0056802D01*
X0031398Y0056802D01*
X0030781Y0056185D01*
X0029567Y0056185D02*
X0028950Y0056802D01*
X0027715Y0056802D01*
X0027715Y0054950D02*
X0028332Y0054950D01*
X0038850Y0073199D02*
X0042553Y0073199D01*
X0042553Y0075050D01*
X0041936Y0075668D01*
X0040702Y0075668D01*
X0040084Y0075050D01*
X0040084Y0073199D01*
X0040084Y0074433D02*
X0038850Y0075668D01*
X0038850Y0076882D02*
X0038850Y0079351D01*
X0038850Y0078116D02*
X0042553Y0078116D01*
X0041319Y0076882D01*
X0041936Y0080565D02*
X0039467Y0080565D01*
X0041936Y0083034D01*
X0039467Y0083034D01*
X0038850Y0082417D01*
X0038850Y0081182D01*
X0039467Y0080565D01*
X0041936Y0080565D02*
X0042553Y0081182D01*
X0042553Y0082417D01*
X0041936Y0083034D01*
X0048649Y0070702D02*
X0048649Y0066999D01*
X0047415Y0066999D02*
X0049884Y0066999D01*
X0051098Y0066999D02*
X0053567Y0066999D01*
X0054781Y0066999D02*
X0056016Y0068233D01*
X0055398Y0068233D02*
X0057250Y0068233D01*
X0057250Y0066999D02*
X0057250Y0070702D01*
X0055398Y0070702D01*
X0054781Y0070085D01*
X0054781Y0068850D01*
X0055398Y0068233D01*
X0053567Y0069468D02*
X0052332Y0070702D01*
X0052332Y0066999D01*
X0049884Y0069468D02*
X0048649Y0070702D01*
X0032150Y0081899D02*
X0032150Y0085602D01*
X0030298Y0085602D01*
X0029681Y0084985D01*
X0029681Y0083750D01*
X0030298Y0083133D01*
X0032150Y0083133D01*
X0030916Y0083133D02*
X0029681Y0081899D01*
X0028467Y0081899D02*
X0025998Y0081899D01*
X0027232Y0081899D02*
X0027232Y0085602D01*
X0028467Y0084368D01*
X0054743Y0098216D02*
X0055360Y0097599D01*
X0056594Y0097599D01*
X0057211Y0098216D01*
X0058426Y0098216D02*
X0059043Y0097599D01*
X0060277Y0097599D01*
X0060895Y0098216D01*
X0060895Y0100685D01*
X0060277Y0101302D01*
X0059043Y0101302D01*
X0058426Y0100685D01*
X0057211Y0100685D02*
X0056594Y0101302D01*
X0055360Y0101302D01*
X0054743Y0100685D01*
X0054743Y0100068D01*
X0055360Y0099450D01*
X0054743Y0098833D01*
X0054743Y0098216D01*
X0055360Y0099450D02*
X0055977Y0099450D01*
X0062116Y0097599D02*
X0063350Y0097599D01*
X0062733Y0097599D02*
X0062733Y0101302D01*
X0063350Y0101302D02*
X0062116Y0101302D01*
X0069063Y0124336D02*
X0070298Y0124336D01*
X0070915Y0124953D01*
X0070915Y0126187D02*
X0069680Y0126805D01*
X0069063Y0126805D01*
X0068446Y0126187D01*
X0068446Y0124953D01*
X0069063Y0124336D01*
X0070915Y0126187D02*
X0070915Y0128039D01*
X0068446Y0128039D01*
X0072129Y0127422D02*
X0072129Y0126187D01*
X0072746Y0125570D01*
X0074598Y0125570D01*
X0074598Y0124336D02*
X0074598Y0128039D01*
X0072746Y0128039D01*
X0072129Y0127422D01*
X0073364Y0125570D02*
X0072129Y0124336D01*
X0070241Y0132511D02*
X0066537Y0132511D01*
X0067772Y0132511D02*
X0067772Y0134363D01*
X0068389Y0134980D01*
X0069623Y0134980D01*
X0070241Y0134363D01*
X0070241Y0132511D01*
X0067772Y0133746D02*
X0066537Y0134980D01*
X0067155Y0136195D02*
X0066537Y0136812D01*
X0066537Y0138046D01*
X0067155Y0138663D01*
X0069623Y0138663D01*
X0070241Y0138046D01*
X0070241Y0136812D01*
X0069623Y0136195D01*
X0069006Y0136195D01*
X0068389Y0136812D01*
X0068389Y0138663D01*
X0061016Y0136568D02*
X0061016Y0134099D01*
X0060399Y0133482D01*
X0059165Y0133482D01*
X0058548Y0134099D01*
X0057333Y0133482D02*
X0054864Y0135951D01*
X0054864Y0136568D01*
X0055482Y0137185D01*
X0056716Y0137185D01*
X0057333Y0136568D01*
X0058548Y0136568D02*
X0059165Y0137185D01*
X0060399Y0137185D01*
X0061016Y0136568D01*
X0057333Y0133482D02*
X0054864Y0133482D01*
X0065919Y0160214D02*
X0068387Y0160214D01*
X0067153Y0160214D02*
X0067153Y0163917D01*
X0068387Y0162683D01*
X0069602Y0163300D02*
X0070219Y0163917D01*
X0071453Y0163917D01*
X0072070Y0163300D01*
X0072070Y0160831D01*
X0071453Y0160214D01*
X0070219Y0160214D01*
X0069602Y0160831D01*
X0085778Y0156179D02*
X0085778Y0154945D01*
X0086396Y0154328D01*
X0085778Y0153113D02*
X0087013Y0151879D01*
X0087013Y0152496D02*
X0087013Y0150644D01*
X0085778Y0150644D02*
X0089482Y0150644D01*
X0089482Y0152496D01*
X0088864Y0153113D01*
X0087630Y0153113D01*
X0087013Y0152496D01*
X0088864Y0154328D02*
X0089482Y0154945D01*
X0089482Y0156179D01*
X0088864Y0156796D01*
X0088247Y0156796D01*
X0087630Y0156179D01*
X0087013Y0156796D01*
X0086396Y0156796D01*
X0085778Y0156179D01*
X0087630Y0156179D02*
X0087630Y0155562D01*
X0096104Y0154896D02*
X0096104Y0152428D01*
X0098573Y0154896D01*
X0099190Y0154896D01*
X0099807Y0154279D01*
X0099807Y0153045D01*
X0099190Y0152428D01*
X0099190Y0151213D02*
X0097956Y0151213D01*
X0097339Y0150596D01*
X0097339Y0148744D01*
X0096104Y0148744D02*
X0099807Y0148744D01*
X0099807Y0150596D01*
X0099190Y0151213D01*
X0097339Y0149979D02*
X0096104Y0151213D01*
X0096248Y0164653D02*
X0099951Y0164653D01*
X0099951Y0166505D01*
X0099334Y0167122D01*
X0098099Y0167122D01*
X0097482Y0166505D01*
X0097482Y0164653D01*
X0097482Y0165888D02*
X0096248Y0167122D01*
X0096248Y0168336D02*
X0096248Y0170805D01*
X0096248Y0172019D02*
X0096865Y0172019D01*
X0099334Y0174488D01*
X0099951Y0174488D01*
X0099951Y0172019D01*
X0099951Y0169571D02*
X0096248Y0169571D01*
X0098716Y0168336D02*
X0099951Y0169571D01*
X0089919Y0138751D02*
X0089302Y0138751D01*
X0088685Y0138134D01*
X0088685Y0136899D01*
X0089302Y0136282D01*
X0089919Y0136282D01*
X0090537Y0136899D01*
X0090537Y0138134D01*
X0089919Y0138751D01*
X0088685Y0138134D02*
X0088068Y0138751D01*
X0087451Y0138751D01*
X0086833Y0138134D01*
X0086833Y0136899D01*
X0087451Y0136282D01*
X0088068Y0136282D01*
X0088685Y0136899D01*
X0088685Y0135068D02*
X0088068Y0134450D01*
X0088068Y0132599D01*
X0088068Y0133833D02*
X0086833Y0135068D01*
X0088685Y0135068D02*
X0089919Y0135068D01*
X0090537Y0134450D01*
X0090537Y0132599D01*
X0086833Y0132599D01*
X0086670Y0103602D02*
X0087287Y0102985D01*
X0087287Y0100516D01*
X0086670Y0099899D01*
X0085435Y0099899D01*
X0084818Y0100516D01*
X0083604Y0100516D02*
X0082987Y0099899D01*
X0081752Y0099899D01*
X0081135Y0100516D01*
X0081135Y0101133D01*
X0081752Y0101750D01*
X0083604Y0101750D01*
X0083604Y0100516D01*
X0083604Y0101750D02*
X0082369Y0102985D01*
X0081135Y0103602D01*
X0084818Y0102985D02*
X0085435Y0103602D01*
X0086670Y0103602D01*
X0091232Y0081402D02*
X0093084Y0079550D01*
X0090615Y0079550D01*
X0091232Y0077699D02*
X0091232Y0081402D01*
X0094298Y0080785D02*
X0094298Y0080168D01*
X0096767Y0077699D01*
X0094298Y0077699D01*
X0094298Y0080785D02*
X0094915Y0081402D01*
X0096150Y0081402D01*
X0096767Y0080785D01*
X0097981Y0080785D02*
X0097981Y0079550D01*
X0098598Y0078933D01*
X0100450Y0078933D01*
X0100450Y0077699D02*
X0100450Y0081402D01*
X0098598Y0081402D01*
X0097981Y0080785D01*
X0099216Y0078933D02*
X0097981Y0077699D01*
X0090053Y0077017D02*
X0090053Y0075782D01*
X0089436Y0075165D01*
X0088819Y0075165D01*
X0088202Y0075782D01*
X0088202Y0077634D01*
X0089436Y0077634D02*
X0090053Y0077017D01*
X0089436Y0077634D02*
X0086967Y0077634D01*
X0086350Y0077017D01*
X0086350Y0075782D01*
X0086967Y0075165D01*
X0086350Y0073951D02*
X0086350Y0071482D01*
X0086350Y0070268D02*
X0087584Y0069033D01*
X0087584Y0069650D02*
X0087584Y0067799D01*
X0086350Y0067799D02*
X0090053Y0067799D01*
X0090053Y0069650D01*
X0089436Y0070268D01*
X0088202Y0070268D01*
X0087584Y0069650D01*
X0088819Y0071482D02*
X0090053Y0072716D01*
X0086350Y0072716D01*
X0077850Y0072833D02*
X0075998Y0072833D01*
X0075381Y0073450D01*
X0075381Y0074685D01*
X0075998Y0075302D01*
X0077850Y0075302D01*
X0077850Y0071599D01*
X0076616Y0072833D02*
X0075381Y0071599D01*
X0074167Y0071599D02*
X0071698Y0074068D01*
X0071698Y0074685D01*
X0072315Y0075302D01*
X0073550Y0075302D01*
X0074167Y0074685D01*
X0074167Y0071599D02*
X0071698Y0071599D01*
X0070484Y0072216D02*
X0070484Y0074685D01*
X0069867Y0075302D01*
X0068632Y0075302D01*
X0068015Y0074685D01*
X0070484Y0072216D01*
X0069867Y0071599D01*
X0068632Y0071599D01*
X0068015Y0072216D01*
X0068015Y0074685D01*
X0070815Y0057102D02*
X0072667Y0055250D01*
X0070198Y0055250D01*
X0070815Y0053399D02*
X0070815Y0057102D01*
X0073881Y0056485D02*
X0074498Y0057102D01*
X0075733Y0057102D01*
X0076350Y0056485D01*
X0076350Y0054016D01*
X0075733Y0053399D01*
X0074498Y0053399D01*
X0073881Y0054016D01*
X0108050Y0067899D02*
X0111753Y0067899D01*
X0111753Y0069750D01*
X0111136Y0070368D01*
X0109902Y0070368D01*
X0109284Y0069750D01*
X0109284Y0067899D01*
X0109284Y0069133D02*
X0108050Y0070368D01*
X0108050Y0071582D02*
X0110519Y0074051D01*
X0111136Y0074051D01*
X0111753Y0073434D01*
X0111753Y0072199D01*
X0111136Y0071582D01*
X0108050Y0071582D02*
X0108050Y0074051D01*
X0108667Y0075265D02*
X0108050Y0075882D01*
X0108050Y0077117D01*
X0108667Y0077734D01*
X0109902Y0077734D01*
X0110519Y0077117D01*
X0110519Y0076499D01*
X0109902Y0075265D01*
X0111753Y0075265D01*
X0111753Y0077734D01*
X0113398Y0057302D02*
X0115867Y0057302D01*
X0115867Y0055450D01*
X0114632Y0056068D01*
X0114015Y0056068D01*
X0113398Y0055450D01*
X0113398Y0054216D01*
X0114015Y0053599D01*
X0115250Y0053599D01*
X0115867Y0054216D01*
X0117081Y0054216D02*
X0117698Y0053599D01*
X0118933Y0053599D01*
X0119550Y0054216D01*
X0119550Y0056685D01*
X0118933Y0057302D01*
X0117698Y0057302D01*
X0117081Y0056685D01*
X0034481Y0133955D02*
X0033247Y0133955D01*
X0033864Y0133955D02*
X0033864Y0137658D01*
X0034481Y0137658D02*
X0033247Y0137658D01*
X0032026Y0137041D02*
X0032026Y0134572D01*
X0031409Y0133955D01*
X0030174Y0133955D01*
X0029557Y0134572D01*
X0028343Y0133955D02*
X0025874Y0133955D01*
X0027109Y0133955D02*
X0027109Y0137658D01*
X0028343Y0136423D01*
X0029557Y0137041D02*
X0030174Y0137658D01*
X0031409Y0137658D01*
X0032026Y0137041D01*
X0029364Y0160582D02*
X0029364Y0165519D01*
X0029981Y0164902D02*
X0028747Y0164902D01*
X0028130Y0164285D01*
X0026915Y0164285D02*
X0026298Y0164902D01*
X0025064Y0164902D01*
X0024446Y0164285D01*
X0024446Y0163668D01*
X0025064Y0163050D01*
X0024446Y0162433D01*
X0024446Y0161816D01*
X0025064Y0161199D01*
X0026298Y0161199D01*
X0026915Y0161816D01*
X0028130Y0161816D02*
X0028130Y0162433D01*
X0028747Y0163050D01*
X0029981Y0163050D01*
X0030598Y0163668D01*
X0030598Y0164285D01*
X0029981Y0164902D01*
X0031813Y0164902D02*
X0031813Y0161816D01*
X0032430Y0161199D01*
X0033664Y0161199D01*
X0034281Y0161816D01*
X0034281Y0164902D01*
X0030598Y0161816D02*
X0029981Y0161199D01*
X0028747Y0161199D01*
X0028130Y0161816D01*
X0025681Y0163050D02*
X0025064Y0163050D01*
X0024381Y0237999D02*
X0025616Y0239233D01*
X0024998Y0239233D02*
X0026850Y0239233D01*
X0026850Y0237999D02*
X0026850Y0241702D01*
X0024998Y0241702D01*
X0024381Y0241085D01*
X0024381Y0239850D01*
X0024998Y0239233D01*
X0023167Y0238616D02*
X0023167Y0237999D01*
X0023167Y0238616D02*
X0020698Y0241085D01*
X0020698Y0241702D01*
X0023167Y0241702D01*
X0033315Y0239850D02*
X0035784Y0239850D01*
X0033932Y0241702D01*
X0033932Y0237999D01*
X0036998Y0237999D02*
X0039467Y0237999D01*
X0040681Y0237999D02*
X0041916Y0239233D01*
X0041298Y0239233D02*
X0043150Y0239233D01*
X0043150Y0237999D02*
X0043150Y0241702D01*
X0041298Y0241702D01*
X0040681Y0241085D01*
X0040681Y0239850D01*
X0041298Y0239233D01*
X0039467Y0240468D02*
X0038232Y0241702D01*
X0038232Y0237999D01*
X0038982Y0281627D02*
X0042685Y0281627D01*
X0042685Y0283479D01*
X0042068Y0284096D01*
X0040834Y0284096D01*
X0040217Y0283479D01*
X0040217Y0281627D01*
X0040217Y0282862D02*
X0038982Y0284096D01*
X0039599Y0285310D02*
X0038982Y0285928D01*
X0038982Y0287162D01*
X0039599Y0287779D01*
X0040217Y0287779D01*
X0040834Y0287162D01*
X0040834Y0286545D01*
X0040834Y0287162D02*
X0041451Y0287779D01*
X0042068Y0287779D01*
X0042685Y0287162D01*
X0042685Y0285928D01*
X0042068Y0285310D01*
X0041451Y0288994D02*
X0042685Y0290228D01*
X0038982Y0290228D01*
X0038982Y0288994D02*
X0038982Y0291462D01*
X0068431Y0291375D02*
X0070900Y0293844D01*
X0071517Y0293844D01*
X0072134Y0293227D01*
X0072134Y0291993D01*
X0071517Y0291375D01*
X0071517Y0290161D02*
X0070900Y0290161D01*
X0070283Y0289544D01*
X0069665Y0290161D01*
X0069048Y0290161D01*
X0068431Y0289544D01*
X0068431Y0288309D01*
X0069048Y0287692D01*
X0068431Y0286478D02*
X0069665Y0285243D01*
X0069665Y0285861D02*
X0069665Y0284009D01*
X0068431Y0284009D02*
X0072134Y0284009D01*
X0072134Y0285861D01*
X0071517Y0286478D01*
X0070283Y0286478D01*
X0069665Y0285861D01*
X0071517Y0287692D02*
X0072134Y0288309D01*
X0072134Y0289544D01*
X0071517Y0290161D01*
X0070283Y0289544D02*
X0070283Y0288927D01*
X0068431Y0291375D02*
X0068431Y0293844D01*
D15*
X0092879Y0170613D03*
X0092879Y0167413D03*
X0092665Y0156594D03*
X0092665Y0153394D03*
X0082791Y0153394D03*
X0082791Y0156594D03*
X0083464Y0137258D03*
X0083464Y0134058D03*
X0073332Y0134027D03*
X0073332Y0137227D03*
X0082981Y0073458D03*
X0082981Y0070258D03*
X0104581Y0070458D03*
X0104581Y0073658D03*
X0035081Y0073358D03*
X0035081Y0070158D03*
D16*
X0038328Y0132867D03*
X0038328Y0142119D03*
X0042069Y0142119D03*
X0045809Y0142119D03*
X0045809Y0132867D03*
X0045772Y0158623D03*
X0042031Y0158623D03*
X0038291Y0158623D03*
X0038291Y0167875D03*
X0045772Y0167875D03*
D17*
X0048332Y0165920D02*
X0048332Y0165319D01*
X0048932Y0164719D01*
X0048332Y0164118D01*
X0048332Y0163518D01*
X0048932Y0162917D01*
X0050133Y0162917D01*
X0050734Y0163518D01*
X0049533Y0164719D02*
X0048932Y0164719D01*
X0048332Y0165920D02*
X0048932Y0166520D01*
X0050133Y0166520D01*
X0050734Y0165920D01*
X0052015Y0166520D02*
X0053216Y0166520D01*
X0052615Y0166520D02*
X0052615Y0163518D01*
X0053216Y0162917D01*
X0053816Y0162917D01*
X0054417Y0163518D01*
X0055698Y0163518D02*
X0056298Y0162917D01*
X0057499Y0162917D01*
X0058100Y0163518D01*
X0057499Y0164719D02*
X0056298Y0164719D01*
X0055698Y0164118D01*
X0055698Y0163518D01*
X0057499Y0164719D02*
X0058100Y0165319D01*
X0058100Y0165920D01*
X0057499Y0166520D01*
X0056298Y0166520D01*
X0055698Y0165920D01*
X0063113Y0173349D02*
X0063113Y0150908D01*
X0075317Y0150908D01*
X0075317Y0173349D01*
X0063113Y0173349D01*
X0048831Y0186949D02*
X0048231Y0186349D01*
X0047030Y0186349D01*
X0046429Y0186949D01*
X0046429Y0187550D01*
X0047030Y0188150D01*
X0048231Y0188150D01*
X0048831Y0188751D01*
X0048831Y0189351D01*
X0048231Y0189952D01*
X0047030Y0189952D01*
X0046429Y0189351D01*
X0043947Y0189952D02*
X0042746Y0189952D01*
X0043347Y0189952D02*
X0043347Y0186949D01*
X0043947Y0186349D01*
X0044548Y0186349D01*
X0045148Y0186949D01*
X0041465Y0188150D02*
X0039063Y0188150D01*
X0039664Y0186349D02*
X0039664Y0189952D01*
X0041465Y0188150D01*
X0034500Y0097268D02*
X0034500Y0094866D01*
X0034500Y0096067D02*
X0038103Y0096067D01*
X0036902Y0094866D01*
X0038103Y0093585D02*
X0038103Y0092384D01*
X0038103Y0092984D02*
X0035101Y0092984D01*
X0034500Y0092384D01*
X0034500Y0091783D01*
X0035101Y0091183D01*
X0035101Y0089901D02*
X0034500Y0089301D01*
X0034500Y0088100D01*
X0035101Y0087499D01*
X0036302Y0088100D02*
X0036302Y0089301D01*
X0035701Y0089901D01*
X0035101Y0089901D01*
X0036302Y0088100D02*
X0036902Y0087499D01*
X0037503Y0087499D01*
X0038103Y0088100D01*
X0038103Y0089301D01*
X0037503Y0089901D01*
X0049032Y0082251D02*
X0049632Y0082852D01*
X0050833Y0082852D01*
X0051434Y0082251D01*
X0052715Y0082852D02*
X0053916Y0082852D01*
X0053315Y0082852D02*
X0053315Y0079849D01*
X0053916Y0079249D01*
X0054516Y0079249D01*
X0055117Y0079849D01*
X0056398Y0079849D02*
X0056998Y0079249D01*
X0058199Y0079249D01*
X0058800Y0079849D01*
X0058199Y0081050D02*
X0056998Y0081050D01*
X0056398Y0080450D01*
X0056398Y0079849D01*
X0058199Y0081050D02*
X0058800Y0081651D01*
X0058800Y0082251D01*
X0058199Y0082852D01*
X0056998Y0082852D01*
X0056398Y0082251D01*
X0051434Y0079249D02*
X0049032Y0081651D01*
X0049032Y0082251D01*
X0049032Y0079249D02*
X0051434Y0079249D01*
X0071500Y0064447D02*
X0074500Y0064447D01*
X0074402Y0059250D02*
X0071500Y0059250D01*
X0031402Y0059250D02*
X0028500Y0059250D01*
X0028500Y0064447D02*
X0031500Y0064447D01*
X0018370Y0069250D02*
X0015469Y0069250D01*
X0015469Y0074447D02*
X0018469Y0074447D01*
X0114500Y0064447D02*
X0117500Y0064447D01*
X0117402Y0059250D02*
X0114500Y0059250D01*
D18*
X0069215Y0150711D03*
X0069215Y0173546D03*
D19*
X0069215Y0152778D03*
D20*
X0019792Y0071853D03*
X0014092Y0071853D03*
X0027123Y0061853D03*
X0032823Y0061853D03*
X0070123Y0061853D03*
X0075823Y0061853D03*
X0113123Y0061853D03*
X0118823Y0061853D03*
D21*
X0060919Y0282739D03*
X0060919Y0293139D03*
X0048932Y0293127D03*
X0048932Y0282727D03*
D22*
X0044731Y0179849D03*
D23*
X0067000Y0097799D03*
X0063300Y0089899D03*
X0070700Y0089899D03*
M02*
