G75*
%MOIN*%
%OFA0B0*%
%FSLAX25Y25*%
%IPPOS*%
%LPD*%
%AMOC8*
5,1,8,0,0,1.08239X$1,22.5*
%
%ADD10C,0.00000*%
%ADD11C,0.00300*%
%ADD12C,0.02400*%
%ADD13C,0.00400*%
%ADD14C,0.00600*%
%ADD15R,0.02362X0.01181*%
%ADD16C,0.01200*%
%ADD17C,0.00500*%
%ADD18C,0.00800*%
%ADD19C,0.02362*%
%ADD20R,0.02900X0.06900*%
%ADD21C,0.02000*%
%ADD22R,0.01500X0.02000*%
%ADD23R,0.01181X0.02362*%
%ADD24C,0.02362*%
%ADD25R,0.05118X0.01181*%
%ADD26R,0.00787X0.08661*%
%ADD27R,0.03740X0.12205*%
%ADD28R,0.02000X0.02000*%
%ADD29R,0.06900X0.02900*%
D10*
X0006000Y0010849D02*
X0006000Y0349431D01*
X0135921Y0349431D01*
X0135921Y0010849D01*
X0006000Y0010849D01*
X0016188Y0038408D02*
X0016190Y0038496D01*
X0016196Y0038584D01*
X0016206Y0038672D01*
X0016220Y0038760D01*
X0016237Y0038846D01*
X0016259Y0038932D01*
X0016284Y0039016D01*
X0016314Y0039100D01*
X0016346Y0039182D01*
X0016383Y0039262D01*
X0016423Y0039341D01*
X0016467Y0039418D01*
X0016514Y0039493D01*
X0016564Y0039565D01*
X0016618Y0039636D01*
X0016674Y0039703D01*
X0016734Y0039769D01*
X0016796Y0039831D01*
X0016862Y0039891D01*
X0016929Y0039947D01*
X0017000Y0040001D01*
X0017072Y0040051D01*
X0017147Y0040098D01*
X0017224Y0040142D01*
X0017303Y0040182D01*
X0017383Y0040219D01*
X0017465Y0040251D01*
X0017549Y0040281D01*
X0017633Y0040306D01*
X0017719Y0040328D01*
X0017805Y0040345D01*
X0017893Y0040359D01*
X0017981Y0040369D01*
X0018069Y0040375D01*
X0018157Y0040377D01*
X0018245Y0040375D01*
X0018333Y0040369D01*
X0018421Y0040359D01*
X0018509Y0040345D01*
X0018595Y0040328D01*
X0018681Y0040306D01*
X0018765Y0040281D01*
X0018849Y0040251D01*
X0018931Y0040219D01*
X0019011Y0040182D01*
X0019090Y0040142D01*
X0019167Y0040098D01*
X0019242Y0040051D01*
X0019314Y0040001D01*
X0019385Y0039947D01*
X0019452Y0039891D01*
X0019518Y0039831D01*
X0019580Y0039769D01*
X0019640Y0039703D01*
X0019696Y0039636D01*
X0019750Y0039565D01*
X0019800Y0039493D01*
X0019847Y0039418D01*
X0019891Y0039341D01*
X0019931Y0039262D01*
X0019968Y0039182D01*
X0020000Y0039100D01*
X0020030Y0039016D01*
X0020055Y0038932D01*
X0020077Y0038846D01*
X0020094Y0038760D01*
X0020108Y0038672D01*
X0020118Y0038584D01*
X0020124Y0038496D01*
X0020126Y0038408D01*
X0020124Y0038320D01*
X0020118Y0038232D01*
X0020108Y0038144D01*
X0020094Y0038056D01*
X0020077Y0037970D01*
X0020055Y0037884D01*
X0020030Y0037800D01*
X0020000Y0037716D01*
X0019968Y0037634D01*
X0019931Y0037554D01*
X0019891Y0037475D01*
X0019847Y0037398D01*
X0019800Y0037323D01*
X0019750Y0037251D01*
X0019696Y0037180D01*
X0019640Y0037113D01*
X0019580Y0037047D01*
X0019518Y0036985D01*
X0019452Y0036925D01*
X0019385Y0036869D01*
X0019314Y0036815D01*
X0019242Y0036765D01*
X0019167Y0036718D01*
X0019090Y0036674D01*
X0019011Y0036634D01*
X0018931Y0036597D01*
X0018849Y0036565D01*
X0018765Y0036535D01*
X0018681Y0036510D01*
X0018595Y0036488D01*
X0018509Y0036471D01*
X0018421Y0036457D01*
X0018333Y0036447D01*
X0018245Y0036441D01*
X0018157Y0036439D01*
X0018069Y0036441D01*
X0017981Y0036447D01*
X0017893Y0036457D01*
X0017805Y0036471D01*
X0017719Y0036488D01*
X0017633Y0036510D01*
X0017549Y0036535D01*
X0017465Y0036565D01*
X0017383Y0036597D01*
X0017303Y0036634D01*
X0017224Y0036674D01*
X0017147Y0036718D01*
X0017072Y0036765D01*
X0017000Y0036815D01*
X0016929Y0036869D01*
X0016862Y0036925D01*
X0016796Y0036985D01*
X0016734Y0037047D01*
X0016674Y0037113D01*
X0016618Y0037180D01*
X0016564Y0037251D01*
X0016514Y0037323D01*
X0016467Y0037398D01*
X0016423Y0037475D01*
X0016383Y0037554D01*
X0016346Y0037634D01*
X0016314Y0037716D01*
X0016284Y0037800D01*
X0016259Y0037884D01*
X0016237Y0037970D01*
X0016220Y0038056D01*
X0016206Y0038144D01*
X0016196Y0038232D01*
X0016190Y0038320D01*
X0016188Y0038408D01*
X0035874Y0038408D02*
X0035876Y0038496D01*
X0035882Y0038584D01*
X0035892Y0038672D01*
X0035906Y0038760D01*
X0035923Y0038846D01*
X0035945Y0038932D01*
X0035970Y0039016D01*
X0036000Y0039100D01*
X0036032Y0039182D01*
X0036069Y0039262D01*
X0036109Y0039341D01*
X0036153Y0039418D01*
X0036200Y0039493D01*
X0036250Y0039565D01*
X0036304Y0039636D01*
X0036360Y0039703D01*
X0036420Y0039769D01*
X0036482Y0039831D01*
X0036548Y0039891D01*
X0036615Y0039947D01*
X0036686Y0040001D01*
X0036758Y0040051D01*
X0036833Y0040098D01*
X0036910Y0040142D01*
X0036989Y0040182D01*
X0037069Y0040219D01*
X0037151Y0040251D01*
X0037235Y0040281D01*
X0037319Y0040306D01*
X0037405Y0040328D01*
X0037491Y0040345D01*
X0037579Y0040359D01*
X0037667Y0040369D01*
X0037755Y0040375D01*
X0037843Y0040377D01*
X0037931Y0040375D01*
X0038019Y0040369D01*
X0038107Y0040359D01*
X0038195Y0040345D01*
X0038281Y0040328D01*
X0038367Y0040306D01*
X0038451Y0040281D01*
X0038535Y0040251D01*
X0038617Y0040219D01*
X0038697Y0040182D01*
X0038776Y0040142D01*
X0038853Y0040098D01*
X0038928Y0040051D01*
X0039000Y0040001D01*
X0039071Y0039947D01*
X0039138Y0039891D01*
X0039204Y0039831D01*
X0039266Y0039769D01*
X0039326Y0039703D01*
X0039382Y0039636D01*
X0039436Y0039565D01*
X0039486Y0039493D01*
X0039533Y0039418D01*
X0039577Y0039341D01*
X0039617Y0039262D01*
X0039654Y0039182D01*
X0039686Y0039100D01*
X0039716Y0039016D01*
X0039741Y0038932D01*
X0039763Y0038846D01*
X0039780Y0038760D01*
X0039794Y0038672D01*
X0039804Y0038584D01*
X0039810Y0038496D01*
X0039812Y0038408D01*
X0039810Y0038320D01*
X0039804Y0038232D01*
X0039794Y0038144D01*
X0039780Y0038056D01*
X0039763Y0037970D01*
X0039741Y0037884D01*
X0039716Y0037800D01*
X0039686Y0037716D01*
X0039654Y0037634D01*
X0039617Y0037554D01*
X0039577Y0037475D01*
X0039533Y0037398D01*
X0039486Y0037323D01*
X0039436Y0037251D01*
X0039382Y0037180D01*
X0039326Y0037113D01*
X0039266Y0037047D01*
X0039204Y0036985D01*
X0039138Y0036925D01*
X0039071Y0036869D01*
X0039000Y0036815D01*
X0038928Y0036765D01*
X0038853Y0036718D01*
X0038776Y0036674D01*
X0038697Y0036634D01*
X0038617Y0036597D01*
X0038535Y0036565D01*
X0038451Y0036535D01*
X0038367Y0036510D01*
X0038281Y0036488D01*
X0038195Y0036471D01*
X0038107Y0036457D01*
X0038019Y0036447D01*
X0037931Y0036441D01*
X0037843Y0036439D01*
X0037755Y0036441D01*
X0037667Y0036447D01*
X0037579Y0036457D01*
X0037491Y0036471D01*
X0037405Y0036488D01*
X0037319Y0036510D01*
X0037235Y0036535D01*
X0037151Y0036565D01*
X0037069Y0036597D01*
X0036989Y0036634D01*
X0036910Y0036674D01*
X0036833Y0036718D01*
X0036758Y0036765D01*
X0036686Y0036815D01*
X0036615Y0036869D01*
X0036548Y0036925D01*
X0036482Y0036985D01*
X0036420Y0037047D01*
X0036360Y0037113D01*
X0036304Y0037180D01*
X0036250Y0037251D01*
X0036200Y0037323D01*
X0036153Y0037398D01*
X0036109Y0037475D01*
X0036069Y0037554D01*
X0036032Y0037634D01*
X0036000Y0037716D01*
X0035970Y0037800D01*
X0035945Y0037884D01*
X0035923Y0037970D01*
X0035906Y0038056D01*
X0035892Y0038144D01*
X0035882Y0038232D01*
X0035876Y0038320D01*
X0035874Y0038408D01*
X0059188Y0038408D02*
X0059190Y0038496D01*
X0059196Y0038584D01*
X0059206Y0038672D01*
X0059220Y0038760D01*
X0059237Y0038846D01*
X0059259Y0038932D01*
X0059284Y0039016D01*
X0059314Y0039100D01*
X0059346Y0039182D01*
X0059383Y0039262D01*
X0059423Y0039341D01*
X0059467Y0039418D01*
X0059514Y0039493D01*
X0059564Y0039565D01*
X0059618Y0039636D01*
X0059674Y0039703D01*
X0059734Y0039769D01*
X0059796Y0039831D01*
X0059862Y0039891D01*
X0059929Y0039947D01*
X0060000Y0040001D01*
X0060072Y0040051D01*
X0060147Y0040098D01*
X0060224Y0040142D01*
X0060303Y0040182D01*
X0060383Y0040219D01*
X0060465Y0040251D01*
X0060549Y0040281D01*
X0060633Y0040306D01*
X0060719Y0040328D01*
X0060805Y0040345D01*
X0060893Y0040359D01*
X0060981Y0040369D01*
X0061069Y0040375D01*
X0061157Y0040377D01*
X0061245Y0040375D01*
X0061333Y0040369D01*
X0061421Y0040359D01*
X0061509Y0040345D01*
X0061595Y0040328D01*
X0061681Y0040306D01*
X0061765Y0040281D01*
X0061849Y0040251D01*
X0061931Y0040219D01*
X0062011Y0040182D01*
X0062090Y0040142D01*
X0062167Y0040098D01*
X0062242Y0040051D01*
X0062314Y0040001D01*
X0062385Y0039947D01*
X0062452Y0039891D01*
X0062518Y0039831D01*
X0062580Y0039769D01*
X0062640Y0039703D01*
X0062696Y0039636D01*
X0062750Y0039565D01*
X0062800Y0039493D01*
X0062847Y0039418D01*
X0062891Y0039341D01*
X0062931Y0039262D01*
X0062968Y0039182D01*
X0063000Y0039100D01*
X0063030Y0039016D01*
X0063055Y0038932D01*
X0063077Y0038846D01*
X0063094Y0038760D01*
X0063108Y0038672D01*
X0063118Y0038584D01*
X0063124Y0038496D01*
X0063126Y0038408D01*
X0063124Y0038320D01*
X0063118Y0038232D01*
X0063108Y0038144D01*
X0063094Y0038056D01*
X0063077Y0037970D01*
X0063055Y0037884D01*
X0063030Y0037800D01*
X0063000Y0037716D01*
X0062968Y0037634D01*
X0062931Y0037554D01*
X0062891Y0037475D01*
X0062847Y0037398D01*
X0062800Y0037323D01*
X0062750Y0037251D01*
X0062696Y0037180D01*
X0062640Y0037113D01*
X0062580Y0037047D01*
X0062518Y0036985D01*
X0062452Y0036925D01*
X0062385Y0036869D01*
X0062314Y0036815D01*
X0062242Y0036765D01*
X0062167Y0036718D01*
X0062090Y0036674D01*
X0062011Y0036634D01*
X0061931Y0036597D01*
X0061849Y0036565D01*
X0061765Y0036535D01*
X0061681Y0036510D01*
X0061595Y0036488D01*
X0061509Y0036471D01*
X0061421Y0036457D01*
X0061333Y0036447D01*
X0061245Y0036441D01*
X0061157Y0036439D01*
X0061069Y0036441D01*
X0060981Y0036447D01*
X0060893Y0036457D01*
X0060805Y0036471D01*
X0060719Y0036488D01*
X0060633Y0036510D01*
X0060549Y0036535D01*
X0060465Y0036565D01*
X0060383Y0036597D01*
X0060303Y0036634D01*
X0060224Y0036674D01*
X0060147Y0036718D01*
X0060072Y0036765D01*
X0060000Y0036815D01*
X0059929Y0036869D01*
X0059862Y0036925D01*
X0059796Y0036985D01*
X0059734Y0037047D01*
X0059674Y0037113D01*
X0059618Y0037180D01*
X0059564Y0037251D01*
X0059514Y0037323D01*
X0059467Y0037398D01*
X0059423Y0037475D01*
X0059383Y0037554D01*
X0059346Y0037634D01*
X0059314Y0037716D01*
X0059284Y0037800D01*
X0059259Y0037884D01*
X0059237Y0037970D01*
X0059220Y0038056D01*
X0059206Y0038144D01*
X0059196Y0038232D01*
X0059190Y0038320D01*
X0059188Y0038408D01*
X0078874Y0038408D02*
X0078876Y0038496D01*
X0078882Y0038584D01*
X0078892Y0038672D01*
X0078906Y0038760D01*
X0078923Y0038846D01*
X0078945Y0038932D01*
X0078970Y0039016D01*
X0079000Y0039100D01*
X0079032Y0039182D01*
X0079069Y0039262D01*
X0079109Y0039341D01*
X0079153Y0039418D01*
X0079200Y0039493D01*
X0079250Y0039565D01*
X0079304Y0039636D01*
X0079360Y0039703D01*
X0079420Y0039769D01*
X0079482Y0039831D01*
X0079548Y0039891D01*
X0079615Y0039947D01*
X0079686Y0040001D01*
X0079758Y0040051D01*
X0079833Y0040098D01*
X0079910Y0040142D01*
X0079989Y0040182D01*
X0080069Y0040219D01*
X0080151Y0040251D01*
X0080235Y0040281D01*
X0080319Y0040306D01*
X0080405Y0040328D01*
X0080491Y0040345D01*
X0080579Y0040359D01*
X0080667Y0040369D01*
X0080755Y0040375D01*
X0080843Y0040377D01*
X0080931Y0040375D01*
X0081019Y0040369D01*
X0081107Y0040359D01*
X0081195Y0040345D01*
X0081281Y0040328D01*
X0081367Y0040306D01*
X0081451Y0040281D01*
X0081535Y0040251D01*
X0081617Y0040219D01*
X0081697Y0040182D01*
X0081776Y0040142D01*
X0081853Y0040098D01*
X0081928Y0040051D01*
X0082000Y0040001D01*
X0082071Y0039947D01*
X0082138Y0039891D01*
X0082204Y0039831D01*
X0082266Y0039769D01*
X0082326Y0039703D01*
X0082382Y0039636D01*
X0082436Y0039565D01*
X0082486Y0039493D01*
X0082533Y0039418D01*
X0082577Y0039341D01*
X0082617Y0039262D01*
X0082654Y0039182D01*
X0082686Y0039100D01*
X0082716Y0039016D01*
X0082741Y0038932D01*
X0082763Y0038846D01*
X0082780Y0038760D01*
X0082794Y0038672D01*
X0082804Y0038584D01*
X0082810Y0038496D01*
X0082812Y0038408D01*
X0082810Y0038320D01*
X0082804Y0038232D01*
X0082794Y0038144D01*
X0082780Y0038056D01*
X0082763Y0037970D01*
X0082741Y0037884D01*
X0082716Y0037800D01*
X0082686Y0037716D01*
X0082654Y0037634D01*
X0082617Y0037554D01*
X0082577Y0037475D01*
X0082533Y0037398D01*
X0082486Y0037323D01*
X0082436Y0037251D01*
X0082382Y0037180D01*
X0082326Y0037113D01*
X0082266Y0037047D01*
X0082204Y0036985D01*
X0082138Y0036925D01*
X0082071Y0036869D01*
X0082000Y0036815D01*
X0081928Y0036765D01*
X0081853Y0036718D01*
X0081776Y0036674D01*
X0081697Y0036634D01*
X0081617Y0036597D01*
X0081535Y0036565D01*
X0081451Y0036535D01*
X0081367Y0036510D01*
X0081281Y0036488D01*
X0081195Y0036471D01*
X0081107Y0036457D01*
X0081019Y0036447D01*
X0080931Y0036441D01*
X0080843Y0036439D01*
X0080755Y0036441D01*
X0080667Y0036447D01*
X0080579Y0036457D01*
X0080491Y0036471D01*
X0080405Y0036488D01*
X0080319Y0036510D01*
X0080235Y0036535D01*
X0080151Y0036565D01*
X0080069Y0036597D01*
X0079989Y0036634D01*
X0079910Y0036674D01*
X0079833Y0036718D01*
X0079758Y0036765D01*
X0079686Y0036815D01*
X0079615Y0036869D01*
X0079548Y0036925D01*
X0079482Y0036985D01*
X0079420Y0037047D01*
X0079360Y0037113D01*
X0079304Y0037180D01*
X0079250Y0037251D01*
X0079200Y0037323D01*
X0079153Y0037398D01*
X0079109Y0037475D01*
X0079069Y0037554D01*
X0079032Y0037634D01*
X0079000Y0037716D01*
X0078970Y0037800D01*
X0078945Y0037884D01*
X0078923Y0037970D01*
X0078906Y0038056D01*
X0078892Y0038144D01*
X0078882Y0038232D01*
X0078876Y0038320D01*
X0078874Y0038408D01*
X0102188Y0038408D02*
X0102190Y0038496D01*
X0102196Y0038584D01*
X0102206Y0038672D01*
X0102220Y0038760D01*
X0102237Y0038846D01*
X0102259Y0038932D01*
X0102284Y0039016D01*
X0102314Y0039100D01*
X0102346Y0039182D01*
X0102383Y0039262D01*
X0102423Y0039341D01*
X0102467Y0039418D01*
X0102514Y0039493D01*
X0102564Y0039565D01*
X0102618Y0039636D01*
X0102674Y0039703D01*
X0102734Y0039769D01*
X0102796Y0039831D01*
X0102862Y0039891D01*
X0102929Y0039947D01*
X0103000Y0040001D01*
X0103072Y0040051D01*
X0103147Y0040098D01*
X0103224Y0040142D01*
X0103303Y0040182D01*
X0103383Y0040219D01*
X0103465Y0040251D01*
X0103549Y0040281D01*
X0103633Y0040306D01*
X0103719Y0040328D01*
X0103805Y0040345D01*
X0103893Y0040359D01*
X0103981Y0040369D01*
X0104069Y0040375D01*
X0104157Y0040377D01*
X0104245Y0040375D01*
X0104333Y0040369D01*
X0104421Y0040359D01*
X0104509Y0040345D01*
X0104595Y0040328D01*
X0104681Y0040306D01*
X0104765Y0040281D01*
X0104849Y0040251D01*
X0104931Y0040219D01*
X0105011Y0040182D01*
X0105090Y0040142D01*
X0105167Y0040098D01*
X0105242Y0040051D01*
X0105314Y0040001D01*
X0105385Y0039947D01*
X0105452Y0039891D01*
X0105518Y0039831D01*
X0105580Y0039769D01*
X0105640Y0039703D01*
X0105696Y0039636D01*
X0105750Y0039565D01*
X0105800Y0039493D01*
X0105847Y0039418D01*
X0105891Y0039341D01*
X0105931Y0039262D01*
X0105968Y0039182D01*
X0106000Y0039100D01*
X0106030Y0039016D01*
X0106055Y0038932D01*
X0106077Y0038846D01*
X0106094Y0038760D01*
X0106108Y0038672D01*
X0106118Y0038584D01*
X0106124Y0038496D01*
X0106126Y0038408D01*
X0106124Y0038320D01*
X0106118Y0038232D01*
X0106108Y0038144D01*
X0106094Y0038056D01*
X0106077Y0037970D01*
X0106055Y0037884D01*
X0106030Y0037800D01*
X0106000Y0037716D01*
X0105968Y0037634D01*
X0105931Y0037554D01*
X0105891Y0037475D01*
X0105847Y0037398D01*
X0105800Y0037323D01*
X0105750Y0037251D01*
X0105696Y0037180D01*
X0105640Y0037113D01*
X0105580Y0037047D01*
X0105518Y0036985D01*
X0105452Y0036925D01*
X0105385Y0036869D01*
X0105314Y0036815D01*
X0105242Y0036765D01*
X0105167Y0036718D01*
X0105090Y0036674D01*
X0105011Y0036634D01*
X0104931Y0036597D01*
X0104849Y0036565D01*
X0104765Y0036535D01*
X0104681Y0036510D01*
X0104595Y0036488D01*
X0104509Y0036471D01*
X0104421Y0036457D01*
X0104333Y0036447D01*
X0104245Y0036441D01*
X0104157Y0036439D01*
X0104069Y0036441D01*
X0103981Y0036447D01*
X0103893Y0036457D01*
X0103805Y0036471D01*
X0103719Y0036488D01*
X0103633Y0036510D01*
X0103549Y0036535D01*
X0103465Y0036565D01*
X0103383Y0036597D01*
X0103303Y0036634D01*
X0103224Y0036674D01*
X0103147Y0036718D01*
X0103072Y0036765D01*
X0103000Y0036815D01*
X0102929Y0036869D01*
X0102862Y0036925D01*
X0102796Y0036985D01*
X0102734Y0037047D01*
X0102674Y0037113D01*
X0102618Y0037180D01*
X0102564Y0037251D01*
X0102514Y0037323D01*
X0102467Y0037398D01*
X0102423Y0037475D01*
X0102383Y0037554D01*
X0102346Y0037634D01*
X0102314Y0037716D01*
X0102284Y0037800D01*
X0102259Y0037884D01*
X0102237Y0037970D01*
X0102220Y0038056D01*
X0102206Y0038144D01*
X0102196Y0038232D01*
X0102190Y0038320D01*
X0102188Y0038408D01*
X0121874Y0038408D02*
X0121876Y0038496D01*
X0121882Y0038584D01*
X0121892Y0038672D01*
X0121906Y0038760D01*
X0121923Y0038846D01*
X0121945Y0038932D01*
X0121970Y0039016D01*
X0122000Y0039100D01*
X0122032Y0039182D01*
X0122069Y0039262D01*
X0122109Y0039341D01*
X0122153Y0039418D01*
X0122200Y0039493D01*
X0122250Y0039565D01*
X0122304Y0039636D01*
X0122360Y0039703D01*
X0122420Y0039769D01*
X0122482Y0039831D01*
X0122548Y0039891D01*
X0122615Y0039947D01*
X0122686Y0040001D01*
X0122758Y0040051D01*
X0122833Y0040098D01*
X0122910Y0040142D01*
X0122989Y0040182D01*
X0123069Y0040219D01*
X0123151Y0040251D01*
X0123235Y0040281D01*
X0123319Y0040306D01*
X0123405Y0040328D01*
X0123491Y0040345D01*
X0123579Y0040359D01*
X0123667Y0040369D01*
X0123755Y0040375D01*
X0123843Y0040377D01*
X0123931Y0040375D01*
X0124019Y0040369D01*
X0124107Y0040359D01*
X0124195Y0040345D01*
X0124281Y0040328D01*
X0124367Y0040306D01*
X0124451Y0040281D01*
X0124535Y0040251D01*
X0124617Y0040219D01*
X0124697Y0040182D01*
X0124776Y0040142D01*
X0124853Y0040098D01*
X0124928Y0040051D01*
X0125000Y0040001D01*
X0125071Y0039947D01*
X0125138Y0039891D01*
X0125204Y0039831D01*
X0125266Y0039769D01*
X0125326Y0039703D01*
X0125382Y0039636D01*
X0125436Y0039565D01*
X0125486Y0039493D01*
X0125533Y0039418D01*
X0125577Y0039341D01*
X0125617Y0039262D01*
X0125654Y0039182D01*
X0125686Y0039100D01*
X0125716Y0039016D01*
X0125741Y0038932D01*
X0125763Y0038846D01*
X0125780Y0038760D01*
X0125794Y0038672D01*
X0125804Y0038584D01*
X0125810Y0038496D01*
X0125812Y0038408D01*
X0125810Y0038320D01*
X0125804Y0038232D01*
X0125794Y0038144D01*
X0125780Y0038056D01*
X0125763Y0037970D01*
X0125741Y0037884D01*
X0125716Y0037800D01*
X0125686Y0037716D01*
X0125654Y0037634D01*
X0125617Y0037554D01*
X0125577Y0037475D01*
X0125533Y0037398D01*
X0125486Y0037323D01*
X0125436Y0037251D01*
X0125382Y0037180D01*
X0125326Y0037113D01*
X0125266Y0037047D01*
X0125204Y0036985D01*
X0125138Y0036925D01*
X0125071Y0036869D01*
X0125000Y0036815D01*
X0124928Y0036765D01*
X0124853Y0036718D01*
X0124776Y0036674D01*
X0124697Y0036634D01*
X0124617Y0036597D01*
X0124535Y0036565D01*
X0124451Y0036535D01*
X0124367Y0036510D01*
X0124281Y0036488D01*
X0124195Y0036471D01*
X0124107Y0036457D01*
X0124019Y0036447D01*
X0123931Y0036441D01*
X0123843Y0036439D01*
X0123755Y0036441D01*
X0123667Y0036447D01*
X0123579Y0036457D01*
X0123491Y0036471D01*
X0123405Y0036488D01*
X0123319Y0036510D01*
X0123235Y0036535D01*
X0123151Y0036565D01*
X0123069Y0036597D01*
X0122989Y0036634D01*
X0122910Y0036674D01*
X0122833Y0036718D01*
X0122758Y0036765D01*
X0122686Y0036815D01*
X0122615Y0036869D01*
X0122548Y0036925D01*
X0122482Y0036985D01*
X0122420Y0037047D01*
X0122360Y0037113D01*
X0122304Y0037180D01*
X0122250Y0037251D01*
X0122200Y0037323D01*
X0122153Y0037398D01*
X0122109Y0037475D01*
X0122069Y0037554D01*
X0122032Y0037634D01*
X0122000Y0037716D01*
X0121970Y0037800D01*
X0121945Y0037884D01*
X0121923Y0037970D01*
X0121906Y0038056D01*
X0121892Y0038144D01*
X0121882Y0038232D01*
X0121876Y0038320D01*
X0121874Y0038408D01*
X0023322Y0107235D02*
X0023324Y0107319D01*
X0023330Y0107402D01*
X0023340Y0107485D01*
X0023354Y0107568D01*
X0023371Y0107650D01*
X0023393Y0107731D01*
X0023418Y0107810D01*
X0023447Y0107889D01*
X0023480Y0107966D01*
X0023516Y0108041D01*
X0023556Y0108115D01*
X0023599Y0108187D01*
X0023646Y0108256D01*
X0023696Y0108323D01*
X0023749Y0108388D01*
X0023805Y0108450D01*
X0023863Y0108510D01*
X0023925Y0108567D01*
X0023989Y0108620D01*
X0024056Y0108671D01*
X0024125Y0108718D01*
X0024196Y0108763D01*
X0024269Y0108803D01*
X0024344Y0108840D01*
X0024421Y0108874D01*
X0024499Y0108904D01*
X0024578Y0108930D01*
X0024659Y0108953D01*
X0024741Y0108971D01*
X0024823Y0108986D01*
X0024906Y0108997D01*
X0024989Y0109004D01*
X0025073Y0109007D01*
X0025157Y0109006D01*
X0025240Y0109001D01*
X0025324Y0108992D01*
X0025406Y0108979D01*
X0025488Y0108963D01*
X0025569Y0108942D01*
X0025650Y0108918D01*
X0025728Y0108890D01*
X0025806Y0108858D01*
X0025882Y0108822D01*
X0025956Y0108783D01*
X0026028Y0108741D01*
X0026098Y0108695D01*
X0026166Y0108646D01*
X0026231Y0108594D01*
X0026294Y0108539D01*
X0026354Y0108481D01*
X0026412Y0108420D01*
X0026466Y0108356D01*
X0026518Y0108290D01*
X0026566Y0108222D01*
X0026611Y0108151D01*
X0026652Y0108078D01*
X0026691Y0108004D01*
X0026725Y0107928D01*
X0026756Y0107850D01*
X0026783Y0107771D01*
X0026807Y0107690D01*
X0026826Y0107609D01*
X0026842Y0107527D01*
X0026854Y0107444D01*
X0026862Y0107360D01*
X0026866Y0107277D01*
X0026866Y0107193D01*
X0026862Y0107110D01*
X0026854Y0107026D01*
X0026842Y0106943D01*
X0026826Y0106861D01*
X0026807Y0106780D01*
X0026783Y0106699D01*
X0026756Y0106620D01*
X0026725Y0106542D01*
X0026691Y0106466D01*
X0026652Y0106392D01*
X0026611Y0106319D01*
X0026566Y0106248D01*
X0026518Y0106180D01*
X0026466Y0106114D01*
X0026412Y0106050D01*
X0026354Y0105989D01*
X0026294Y0105931D01*
X0026231Y0105876D01*
X0026166Y0105824D01*
X0026098Y0105775D01*
X0026028Y0105729D01*
X0025956Y0105687D01*
X0025882Y0105648D01*
X0025806Y0105612D01*
X0025728Y0105580D01*
X0025650Y0105552D01*
X0025569Y0105528D01*
X0025488Y0105507D01*
X0025406Y0105491D01*
X0025324Y0105478D01*
X0025240Y0105469D01*
X0025157Y0105464D01*
X0025073Y0105463D01*
X0024989Y0105466D01*
X0024906Y0105473D01*
X0024823Y0105484D01*
X0024741Y0105499D01*
X0024659Y0105517D01*
X0024578Y0105540D01*
X0024499Y0105566D01*
X0024421Y0105596D01*
X0024344Y0105630D01*
X0024269Y0105667D01*
X0024196Y0105707D01*
X0024125Y0105752D01*
X0024056Y0105799D01*
X0023989Y0105850D01*
X0023925Y0105903D01*
X0023863Y0105960D01*
X0023805Y0106020D01*
X0023749Y0106082D01*
X0023696Y0106147D01*
X0023646Y0106214D01*
X0023599Y0106283D01*
X0023556Y0106355D01*
X0023516Y0106429D01*
X0023480Y0106504D01*
X0023447Y0106581D01*
X0023418Y0106660D01*
X0023393Y0106739D01*
X0023371Y0106820D01*
X0023354Y0106902D01*
X0023340Y0106985D01*
X0023330Y0107068D01*
X0023324Y0107151D01*
X0023322Y0107235D01*
X0023322Y0125345D02*
X0023324Y0125429D01*
X0023330Y0125512D01*
X0023340Y0125595D01*
X0023354Y0125678D01*
X0023371Y0125760D01*
X0023393Y0125841D01*
X0023418Y0125920D01*
X0023447Y0125999D01*
X0023480Y0126076D01*
X0023516Y0126151D01*
X0023556Y0126225D01*
X0023599Y0126297D01*
X0023646Y0126366D01*
X0023696Y0126433D01*
X0023749Y0126498D01*
X0023805Y0126560D01*
X0023863Y0126620D01*
X0023925Y0126677D01*
X0023989Y0126730D01*
X0024056Y0126781D01*
X0024125Y0126828D01*
X0024196Y0126873D01*
X0024269Y0126913D01*
X0024344Y0126950D01*
X0024421Y0126984D01*
X0024499Y0127014D01*
X0024578Y0127040D01*
X0024659Y0127063D01*
X0024741Y0127081D01*
X0024823Y0127096D01*
X0024906Y0127107D01*
X0024989Y0127114D01*
X0025073Y0127117D01*
X0025157Y0127116D01*
X0025240Y0127111D01*
X0025324Y0127102D01*
X0025406Y0127089D01*
X0025488Y0127073D01*
X0025569Y0127052D01*
X0025650Y0127028D01*
X0025728Y0127000D01*
X0025806Y0126968D01*
X0025882Y0126932D01*
X0025956Y0126893D01*
X0026028Y0126851D01*
X0026098Y0126805D01*
X0026166Y0126756D01*
X0026231Y0126704D01*
X0026294Y0126649D01*
X0026354Y0126591D01*
X0026412Y0126530D01*
X0026466Y0126466D01*
X0026518Y0126400D01*
X0026566Y0126332D01*
X0026611Y0126261D01*
X0026652Y0126188D01*
X0026691Y0126114D01*
X0026725Y0126038D01*
X0026756Y0125960D01*
X0026783Y0125881D01*
X0026807Y0125800D01*
X0026826Y0125719D01*
X0026842Y0125637D01*
X0026854Y0125554D01*
X0026862Y0125470D01*
X0026866Y0125387D01*
X0026866Y0125303D01*
X0026862Y0125220D01*
X0026854Y0125136D01*
X0026842Y0125053D01*
X0026826Y0124971D01*
X0026807Y0124890D01*
X0026783Y0124809D01*
X0026756Y0124730D01*
X0026725Y0124652D01*
X0026691Y0124576D01*
X0026652Y0124502D01*
X0026611Y0124429D01*
X0026566Y0124358D01*
X0026518Y0124290D01*
X0026466Y0124224D01*
X0026412Y0124160D01*
X0026354Y0124099D01*
X0026294Y0124041D01*
X0026231Y0123986D01*
X0026166Y0123934D01*
X0026098Y0123885D01*
X0026028Y0123839D01*
X0025956Y0123797D01*
X0025882Y0123758D01*
X0025806Y0123722D01*
X0025728Y0123690D01*
X0025650Y0123662D01*
X0025569Y0123638D01*
X0025488Y0123617D01*
X0025406Y0123601D01*
X0025324Y0123588D01*
X0025240Y0123579D01*
X0025157Y0123574D01*
X0025073Y0123573D01*
X0024989Y0123576D01*
X0024906Y0123583D01*
X0024823Y0123594D01*
X0024741Y0123609D01*
X0024659Y0123627D01*
X0024578Y0123650D01*
X0024499Y0123676D01*
X0024421Y0123706D01*
X0024344Y0123740D01*
X0024269Y0123777D01*
X0024196Y0123817D01*
X0024125Y0123862D01*
X0024056Y0123909D01*
X0023989Y0123960D01*
X0023925Y0124013D01*
X0023863Y0124070D01*
X0023805Y0124130D01*
X0023749Y0124192D01*
X0023696Y0124257D01*
X0023646Y0124324D01*
X0023599Y0124393D01*
X0023556Y0124465D01*
X0023516Y0124539D01*
X0023480Y0124614D01*
X0023447Y0124691D01*
X0023418Y0124770D01*
X0023393Y0124849D01*
X0023371Y0124930D01*
X0023354Y0125012D01*
X0023340Y0125095D01*
X0023330Y0125178D01*
X0023324Y0125261D01*
X0023322Y0125345D01*
X0018798Y0173869D02*
X0018800Y0173948D01*
X0018806Y0174027D01*
X0018816Y0174106D01*
X0018830Y0174184D01*
X0018847Y0174261D01*
X0018869Y0174337D01*
X0018894Y0174412D01*
X0018924Y0174485D01*
X0018956Y0174557D01*
X0018993Y0174628D01*
X0019033Y0174696D01*
X0019076Y0174762D01*
X0019122Y0174826D01*
X0019172Y0174888D01*
X0019225Y0174947D01*
X0019280Y0175003D01*
X0019339Y0175057D01*
X0019400Y0175107D01*
X0019463Y0175155D01*
X0019529Y0175199D01*
X0019597Y0175240D01*
X0019667Y0175277D01*
X0019738Y0175311D01*
X0019812Y0175341D01*
X0019886Y0175367D01*
X0019962Y0175389D01*
X0020039Y0175408D01*
X0020117Y0175423D01*
X0020195Y0175434D01*
X0020274Y0175441D01*
X0020353Y0175444D01*
X0020432Y0175443D01*
X0020511Y0175438D01*
X0020590Y0175429D01*
X0020668Y0175416D01*
X0020745Y0175399D01*
X0020822Y0175379D01*
X0020897Y0175354D01*
X0020971Y0175326D01*
X0021044Y0175294D01*
X0021114Y0175259D01*
X0021183Y0175220D01*
X0021250Y0175177D01*
X0021315Y0175131D01*
X0021377Y0175083D01*
X0021437Y0175031D01*
X0021494Y0174976D01*
X0021548Y0174918D01*
X0021599Y0174858D01*
X0021647Y0174795D01*
X0021692Y0174730D01*
X0021734Y0174662D01*
X0021772Y0174593D01*
X0021806Y0174522D01*
X0021837Y0174449D01*
X0021865Y0174374D01*
X0021888Y0174299D01*
X0021908Y0174222D01*
X0021924Y0174145D01*
X0021936Y0174066D01*
X0021944Y0173988D01*
X0021948Y0173909D01*
X0021948Y0173829D01*
X0021944Y0173750D01*
X0021936Y0173672D01*
X0021924Y0173593D01*
X0021908Y0173516D01*
X0021888Y0173439D01*
X0021865Y0173364D01*
X0021837Y0173289D01*
X0021806Y0173216D01*
X0021772Y0173145D01*
X0021734Y0173076D01*
X0021692Y0173008D01*
X0021647Y0172943D01*
X0021599Y0172880D01*
X0021548Y0172820D01*
X0021494Y0172762D01*
X0021437Y0172707D01*
X0021377Y0172655D01*
X0021315Y0172607D01*
X0021250Y0172561D01*
X0021183Y0172518D01*
X0021114Y0172479D01*
X0021044Y0172444D01*
X0020971Y0172412D01*
X0020897Y0172384D01*
X0020822Y0172359D01*
X0020745Y0172339D01*
X0020668Y0172322D01*
X0020590Y0172309D01*
X0020511Y0172300D01*
X0020432Y0172295D01*
X0020353Y0172294D01*
X0020274Y0172297D01*
X0020195Y0172304D01*
X0020117Y0172315D01*
X0020039Y0172330D01*
X0019962Y0172349D01*
X0019886Y0172371D01*
X0019812Y0172397D01*
X0019738Y0172427D01*
X0019667Y0172461D01*
X0019597Y0172498D01*
X0019529Y0172539D01*
X0019463Y0172583D01*
X0019400Y0172631D01*
X0019339Y0172681D01*
X0019280Y0172735D01*
X0019225Y0172791D01*
X0019172Y0172850D01*
X0019122Y0172912D01*
X0019076Y0172976D01*
X0019033Y0173042D01*
X0018993Y0173110D01*
X0018956Y0173181D01*
X0018924Y0173253D01*
X0018894Y0173326D01*
X0018869Y0173401D01*
X0018847Y0173477D01*
X0018830Y0173554D01*
X0018816Y0173632D01*
X0018806Y0173711D01*
X0018800Y0173790D01*
X0018798Y0173869D01*
X0018798Y0188829D02*
X0018800Y0188908D01*
X0018806Y0188987D01*
X0018816Y0189066D01*
X0018830Y0189144D01*
X0018847Y0189221D01*
X0018869Y0189297D01*
X0018894Y0189372D01*
X0018924Y0189445D01*
X0018956Y0189517D01*
X0018993Y0189588D01*
X0019033Y0189656D01*
X0019076Y0189722D01*
X0019122Y0189786D01*
X0019172Y0189848D01*
X0019225Y0189907D01*
X0019280Y0189963D01*
X0019339Y0190017D01*
X0019400Y0190067D01*
X0019463Y0190115D01*
X0019529Y0190159D01*
X0019597Y0190200D01*
X0019667Y0190237D01*
X0019738Y0190271D01*
X0019812Y0190301D01*
X0019886Y0190327D01*
X0019962Y0190349D01*
X0020039Y0190368D01*
X0020117Y0190383D01*
X0020195Y0190394D01*
X0020274Y0190401D01*
X0020353Y0190404D01*
X0020432Y0190403D01*
X0020511Y0190398D01*
X0020590Y0190389D01*
X0020668Y0190376D01*
X0020745Y0190359D01*
X0020822Y0190339D01*
X0020897Y0190314D01*
X0020971Y0190286D01*
X0021044Y0190254D01*
X0021114Y0190219D01*
X0021183Y0190180D01*
X0021250Y0190137D01*
X0021315Y0190091D01*
X0021377Y0190043D01*
X0021437Y0189991D01*
X0021494Y0189936D01*
X0021548Y0189878D01*
X0021599Y0189818D01*
X0021647Y0189755D01*
X0021692Y0189690D01*
X0021734Y0189622D01*
X0021772Y0189553D01*
X0021806Y0189482D01*
X0021837Y0189409D01*
X0021865Y0189334D01*
X0021888Y0189259D01*
X0021908Y0189182D01*
X0021924Y0189105D01*
X0021936Y0189026D01*
X0021944Y0188948D01*
X0021948Y0188869D01*
X0021948Y0188789D01*
X0021944Y0188710D01*
X0021936Y0188632D01*
X0021924Y0188553D01*
X0021908Y0188476D01*
X0021888Y0188399D01*
X0021865Y0188324D01*
X0021837Y0188249D01*
X0021806Y0188176D01*
X0021772Y0188105D01*
X0021734Y0188036D01*
X0021692Y0187968D01*
X0021647Y0187903D01*
X0021599Y0187840D01*
X0021548Y0187780D01*
X0021494Y0187722D01*
X0021437Y0187667D01*
X0021377Y0187615D01*
X0021315Y0187567D01*
X0021250Y0187521D01*
X0021183Y0187478D01*
X0021114Y0187439D01*
X0021044Y0187404D01*
X0020971Y0187372D01*
X0020897Y0187344D01*
X0020822Y0187319D01*
X0020745Y0187299D01*
X0020668Y0187282D01*
X0020590Y0187269D01*
X0020511Y0187260D01*
X0020432Y0187255D01*
X0020353Y0187254D01*
X0020274Y0187257D01*
X0020195Y0187264D01*
X0020117Y0187275D01*
X0020039Y0187290D01*
X0019962Y0187309D01*
X0019886Y0187331D01*
X0019812Y0187357D01*
X0019738Y0187387D01*
X0019667Y0187421D01*
X0019597Y0187458D01*
X0019529Y0187499D01*
X0019463Y0187543D01*
X0019400Y0187591D01*
X0019339Y0187641D01*
X0019280Y0187695D01*
X0019225Y0187751D01*
X0019172Y0187810D01*
X0019122Y0187872D01*
X0019076Y0187936D01*
X0019033Y0188002D01*
X0018993Y0188070D01*
X0018956Y0188141D01*
X0018924Y0188213D01*
X0018894Y0188286D01*
X0018869Y0188361D01*
X0018847Y0188437D01*
X0018830Y0188514D01*
X0018816Y0188592D01*
X0018806Y0188671D01*
X0018800Y0188750D01*
X0018798Y0188829D01*
D11*
X0018185Y0202899D02*
X0015716Y0202899D01*
X0016951Y0202899D02*
X0016951Y0206602D01*
X0015716Y0205368D01*
X0014502Y0205985D02*
X0013885Y0206602D01*
X0012650Y0206602D01*
X0012033Y0205985D01*
X0012033Y0205368D01*
X0012650Y0204750D01*
X0013885Y0204750D01*
X0014502Y0204133D01*
X0014502Y0203516D01*
X0013885Y0202899D01*
X0012650Y0202899D01*
X0012033Y0203516D01*
X0010819Y0203516D02*
X0010819Y0206602D01*
X0008350Y0206602D02*
X0008350Y0203516D01*
X0008967Y0202899D01*
X0010202Y0202899D01*
X0010819Y0203516D01*
X0013268Y0202282D02*
X0013268Y0207219D01*
X0019399Y0205985D02*
X0019399Y0203516D01*
X0021868Y0205985D01*
X0021868Y0203516D01*
X0021251Y0202899D01*
X0020017Y0202899D01*
X0019399Y0203516D01*
X0019399Y0205985D02*
X0020017Y0206602D01*
X0021251Y0206602D01*
X0021868Y0205985D01*
X0031647Y0193517D02*
X0033498Y0191665D01*
X0033498Y0194134D01*
X0031647Y0193517D02*
X0035350Y0193517D01*
X0037447Y0194034D02*
X0037447Y0191565D01*
X0039298Y0191565D01*
X0038681Y0192799D01*
X0038681Y0193417D01*
X0039298Y0194034D01*
X0040533Y0194034D01*
X0041150Y0193417D01*
X0041150Y0192182D01*
X0040533Y0191565D01*
X0040533Y0190351D02*
X0041150Y0189734D01*
X0041150Y0188499D01*
X0040533Y0187882D01*
X0041150Y0186668D02*
X0039916Y0185433D01*
X0039916Y0186050D02*
X0039916Y0184199D01*
X0041150Y0184199D02*
X0037447Y0184199D01*
X0037447Y0186050D01*
X0038064Y0186668D01*
X0039298Y0186668D01*
X0039916Y0186050D01*
X0038064Y0187882D02*
X0037447Y0188499D01*
X0037447Y0189734D01*
X0038064Y0190351D01*
X0038681Y0190351D01*
X0039298Y0189734D01*
X0039916Y0190351D01*
X0040533Y0190351D01*
X0039298Y0189734D02*
X0039298Y0189116D01*
X0035350Y0188599D02*
X0034733Y0187982D01*
X0035350Y0188599D02*
X0035350Y0189834D01*
X0034733Y0190451D01*
X0034116Y0190451D01*
X0033498Y0189834D01*
X0033498Y0189216D01*
X0033498Y0189834D02*
X0032881Y0190451D01*
X0032264Y0190451D01*
X0031647Y0189834D01*
X0031647Y0188599D01*
X0032264Y0187982D01*
X0032264Y0186768D02*
X0033498Y0186768D01*
X0034116Y0186150D01*
X0034116Y0184299D01*
X0035350Y0184299D02*
X0031647Y0184299D01*
X0031647Y0186150D01*
X0032264Y0186768D01*
X0034116Y0185533D02*
X0035350Y0186768D01*
X0072733Y0163547D02*
X0072733Y0160461D01*
X0073350Y0159844D01*
X0074585Y0159844D01*
X0075202Y0160461D01*
X0075202Y0163547D01*
X0076416Y0162313D02*
X0077651Y0163547D01*
X0077651Y0159844D01*
X0078885Y0159844D02*
X0076416Y0159844D01*
X0089650Y0186499D02*
X0089650Y0190202D01*
X0091502Y0190202D01*
X0092119Y0189585D01*
X0092119Y0188350D01*
X0091502Y0187733D01*
X0089650Y0187733D01*
X0090884Y0187733D02*
X0092119Y0186499D01*
X0093333Y0187116D02*
X0093950Y0186499D01*
X0095185Y0186499D01*
X0095802Y0187116D01*
X0095802Y0187733D01*
X0095185Y0188350D01*
X0094568Y0188350D01*
X0095185Y0188350D02*
X0095802Y0188968D01*
X0095802Y0189585D01*
X0095185Y0190202D01*
X0093950Y0190202D01*
X0093333Y0189585D01*
X0097016Y0189585D02*
X0097633Y0190202D01*
X0098868Y0190202D01*
X0099485Y0189585D01*
X0099485Y0188968D01*
X0098868Y0188350D01*
X0099485Y0187733D01*
X0099485Y0187116D01*
X0098868Y0186499D01*
X0097633Y0186499D01*
X0097016Y0187116D01*
X0098251Y0188350D02*
X0098868Y0188350D01*
X0119967Y0220199D02*
X0121202Y0220199D01*
X0121819Y0220816D01*
X0121819Y0223902D01*
X0123033Y0223285D02*
X0123650Y0223902D01*
X0124885Y0223902D01*
X0125502Y0223285D01*
X0124885Y0222050D02*
X0123650Y0222050D01*
X0123033Y0222668D01*
X0123033Y0223285D01*
X0124268Y0224519D02*
X0124268Y0219582D01*
X0124885Y0220199D02*
X0125502Y0220816D01*
X0125502Y0221433D01*
X0124885Y0222050D01*
X0126716Y0222050D02*
X0128568Y0223902D01*
X0128568Y0220199D01*
X0129185Y0222050D02*
X0126716Y0222050D01*
X0124885Y0220199D02*
X0123650Y0220199D01*
X0123033Y0220816D01*
X0119967Y0220199D02*
X0119350Y0220816D01*
X0119350Y0223902D01*
X0063168Y0332099D02*
X0063785Y0332716D01*
X0063785Y0333333D01*
X0063168Y0333950D01*
X0061316Y0333950D01*
X0061316Y0332716D01*
X0061933Y0332099D01*
X0063168Y0332099D01*
X0061316Y0333950D02*
X0062551Y0335185D01*
X0063785Y0335802D01*
X0058868Y0335802D02*
X0058868Y0332099D01*
X0060102Y0332099D02*
X0057633Y0332099D01*
X0056419Y0332099D02*
X0055184Y0333333D01*
X0055802Y0333333D02*
X0053950Y0333333D01*
X0053950Y0332099D02*
X0053950Y0335802D01*
X0055802Y0335802D01*
X0056419Y0335185D01*
X0056419Y0333950D01*
X0055802Y0333333D01*
X0057633Y0334568D02*
X0058868Y0335802D01*
X0057743Y0340684D02*
X0057743Y0344387D01*
X0055891Y0342535D01*
X0058360Y0342535D01*
X0054677Y0340684D02*
X0052208Y0344387D01*
X0054677Y0344387D02*
X0052208Y0340684D01*
X0093550Y0341402D02*
X0093550Y0338316D01*
X0094167Y0337699D01*
X0095402Y0337699D01*
X0096019Y0338316D01*
X0096019Y0341402D01*
X0097233Y0340785D02*
X0097850Y0341402D01*
X0099085Y0341402D01*
X0099702Y0340785D01*
X0099085Y0339550D02*
X0097850Y0339550D01*
X0097233Y0340168D01*
X0097233Y0340785D01*
X0098468Y0342019D02*
X0098468Y0337082D01*
X0099085Y0337699D02*
X0099702Y0338316D01*
X0099702Y0338933D01*
X0099085Y0339550D01*
X0100916Y0339550D02*
X0102768Y0339550D01*
X0103385Y0338933D01*
X0103385Y0338316D01*
X0102768Y0337699D01*
X0101533Y0337699D01*
X0100916Y0338316D01*
X0100916Y0339550D01*
X0102151Y0340785D01*
X0103385Y0341402D01*
X0099085Y0337699D02*
X0097850Y0337699D01*
X0097233Y0338316D01*
X0018513Y0121075D02*
X0018513Y0118606D01*
X0016044Y0121075D01*
X0015427Y0121075D01*
X0014810Y0120458D01*
X0014810Y0119223D01*
X0015427Y0118606D01*
X0015427Y0117392D02*
X0014810Y0116774D01*
X0014810Y0115540D01*
X0015427Y0114923D01*
X0016044Y0114923D01*
X0016661Y0115540D01*
X0016661Y0116774D01*
X0017279Y0117392D01*
X0017896Y0117392D01*
X0018513Y0116774D01*
X0018513Y0115540D01*
X0017896Y0114923D01*
X0017896Y0113709D02*
X0014810Y0113709D01*
X0014810Y0111240D02*
X0017896Y0111240D01*
X0018513Y0111857D01*
X0018513Y0113091D01*
X0017896Y0113709D01*
X0019130Y0116157D02*
X0014193Y0116157D01*
X0034850Y0082602D02*
X0036702Y0082602D01*
X0037319Y0081985D01*
X0037319Y0080750D01*
X0036702Y0080133D01*
X0034850Y0080133D01*
X0034850Y0078899D02*
X0034850Y0082602D01*
X0036084Y0080133D02*
X0037319Y0078899D01*
X0038533Y0078899D02*
X0041002Y0078899D01*
X0039768Y0078899D02*
X0039768Y0082602D01*
X0038533Y0081368D01*
X0034585Y0077485D02*
X0034585Y0076868D01*
X0033968Y0076250D01*
X0032733Y0076250D01*
X0032116Y0076868D01*
X0032116Y0077485D01*
X0032733Y0078102D01*
X0033968Y0078102D01*
X0034585Y0077485D01*
X0033968Y0076250D02*
X0034585Y0075633D01*
X0034585Y0075016D01*
X0033968Y0074399D01*
X0032733Y0074399D01*
X0032116Y0075016D01*
X0032116Y0075633D01*
X0032733Y0076250D01*
X0030902Y0074399D02*
X0028433Y0074399D01*
X0027219Y0074399D02*
X0025984Y0075633D01*
X0026602Y0075633D02*
X0024750Y0075633D01*
X0024750Y0074399D02*
X0024750Y0078102D01*
X0026602Y0078102D01*
X0027219Y0077485D01*
X0027219Y0076250D01*
X0026602Y0075633D01*
X0028433Y0076868D02*
X0029668Y0078102D01*
X0029668Y0074399D01*
X0042216Y0079516D02*
X0042833Y0078899D01*
X0044068Y0078899D01*
X0044685Y0079516D01*
X0044685Y0080750D01*
X0044068Y0081368D01*
X0043451Y0081368D01*
X0042216Y0080750D01*
X0042216Y0082602D01*
X0044685Y0082602D01*
X0046164Y0088799D02*
X0048633Y0088799D01*
X0049250Y0089416D01*
X0049250Y0090650D01*
X0048633Y0091268D01*
X0048633Y0092482D02*
X0048016Y0092482D01*
X0047398Y0093099D01*
X0047398Y0094334D01*
X0048016Y0094951D01*
X0048633Y0094951D01*
X0049250Y0094334D01*
X0049250Y0093099D01*
X0048633Y0092482D01*
X0047398Y0093099D02*
X0046781Y0092482D01*
X0046164Y0092482D01*
X0045547Y0093099D01*
X0045547Y0094334D01*
X0046164Y0094951D01*
X0046781Y0094951D01*
X0047398Y0094334D01*
X0046164Y0091268D02*
X0045547Y0090650D01*
X0045547Y0089416D01*
X0046164Y0088799D01*
X0053665Y0095816D02*
X0054282Y0095199D01*
X0055517Y0095199D01*
X0056134Y0095816D01*
X0057348Y0095816D02*
X0057348Y0095199D01*
X0057348Y0095816D02*
X0059817Y0098285D01*
X0059817Y0098902D01*
X0057348Y0098902D01*
X0056134Y0098285D02*
X0055517Y0098902D01*
X0054282Y0098902D01*
X0053665Y0098285D01*
X0053665Y0095816D01*
X0043418Y0103853D02*
X0039715Y0103853D01*
X0039715Y0105705D01*
X0040332Y0106322D01*
X0041566Y0106322D01*
X0042183Y0105705D01*
X0042183Y0103853D01*
X0042183Y0105088D02*
X0043418Y0106322D01*
X0041566Y0107536D02*
X0041566Y0110005D01*
X0039715Y0109388D02*
X0043418Y0109388D01*
X0041566Y0107536D02*
X0039715Y0109388D01*
X0045950Y0074302D02*
X0047802Y0074302D01*
X0048419Y0073685D01*
X0048419Y0072450D01*
X0047802Y0071833D01*
X0045950Y0071833D01*
X0045950Y0070599D02*
X0045950Y0074302D01*
X0047184Y0071833D02*
X0048419Y0070599D01*
X0049633Y0070599D02*
X0052102Y0073068D01*
X0052102Y0073685D01*
X0051485Y0074302D01*
X0050250Y0074302D01*
X0049633Y0073685D01*
X0049633Y0070599D02*
X0052102Y0070599D01*
X0053316Y0071216D02*
X0053933Y0070599D01*
X0055168Y0070599D01*
X0055785Y0071216D01*
X0055785Y0071833D01*
X0055168Y0072450D01*
X0054551Y0072450D01*
X0055168Y0072450D02*
X0055785Y0073068D01*
X0055785Y0073685D01*
X0055168Y0074302D01*
X0053933Y0074302D01*
X0053316Y0073685D01*
X0065847Y0054099D02*
X0067081Y0052865D01*
X0067081Y0051651D02*
X0066464Y0051651D01*
X0065847Y0051034D01*
X0065847Y0049799D01*
X0066464Y0049182D01*
X0066464Y0047968D02*
X0067698Y0047968D01*
X0068316Y0047350D01*
X0068316Y0045499D01*
X0069550Y0045499D02*
X0065847Y0045499D01*
X0065847Y0047350D01*
X0066464Y0047968D01*
X0068316Y0046733D02*
X0069550Y0047968D01*
X0069550Y0049182D02*
X0067081Y0051651D01*
X0069550Y0051651D02*
X0069550Y0049182D01*
X0069550Y0052865D02*
X0069550Y0055334D01*
X0069550Y0054099D02*
X0065847Y0054099D01*
X0072010Y0072500D02*
X0073244Y0072500D01*
X0072627Y0072500D02*
X0072627Y0076203D01*
X0072010Y0076203D02*
X0073244Y0076203D01*
X0074465Y0075586D02*
X0074465Y0073117D01*
X0075082Y0072500D01*
X0076317Y0072500D01*
X0076934Y0073117D01*
X0078148Y0072500D02*
X0080617Y0074968D01*
X0080617Y0075586D01*
X0080000Y0076203D01*
X0078766Y0076203D01*
X0078148Y0075586D01*
X0076934Y0075586D02*
X0076317Y0076203D01*
X0075082Y0076203D01*
X0074465Y0075586D01*
X0078148Y0072500D02*
X0080617Y0072500D01*
X0093450Y0072933D02*
X0095302Y0072933D01*
X0095919Y0073550D01*
X0095919Y0074785D01*
X0095302Y0075402D01*
X0093450Y0075402D01*
X0093450Y0071699D01*
X0094684Y0072933D02*
X0095919Y0071699D01*
X0097133Y0071699D02*
X0099602Y0074168D01*
X0099602Y0074785D01*
X0098985Y0075402D01*
X0097750Y0075402D01*
X0097133Y0074785D01*
X0097133Y0071699D02*
X0099602Y0071699D01*
X0100816Y0072316D02*
X0100816Y0072933D01*
X0101433Y0073550D01*
X0102668Y0073550D01*
X0103285Y0072933D01*
X0103285Y0072316D01*
X0102668Y0071699D01*
X0101433Y0071699D01*
X0100816Y0072316D01*
X0101433Y0073550D02*
X0100816Y0074168D01*
X0100816Y0074785D01*
X0101433Y0075402D01*
X0102668Y0075402D01*
X0103285Y0074785D01*
X0103285Y0074168D01*
X0102668Y0073550D01*
X0103550Y0076399D02*
X0103550Y0080102D01*
X0105402Y0080102D01*
X0106019Y0079485D01*
X0106019Y0078250D01*
X0105402Y0077633D01*
X0103550Y0077633D01*
X0104784Y0077633D02*
X0106019Y0076399D01*
X0107233Y0077016D02*
X0107850Y0076399D01*
X0109085Y0076399D01*
X0109702Y0077016D01*
X0109702Y0077633D01*
X0109085Y0078250D01*
X0108468Y0078250D01*
X0109085Y0078250D02*
X0109702Y0078868D01*
X0109702Y0079485D01*
X0109085Y0080102D01*
X0107850Y0080102D01*
X0107233Y0079485D01*
X0110916Y0079485D02*
X0111533Y0080102D01*
X0112768Y0080102D01*
X0113385Y0079485D01*
X0110916Y0077016D01*
X0111533Y0076399D01*
X0112768Y0076399D01*
X0113385Y0077016D01*
X0113385Y0079485D01*
X0110916Y0079485D02*
X0110916Y0077016D01*
X0102985Y0082916D02*
X0102985Y0085385D01*
X0102368Y0086002D01*
X0101133Y0086002D01*
X0100516Y0085385D01*
X0100516Y0084768D01*
X0101133Y0084150D01*
X0102985Y0084150D01*
X0102985Y0082916D02*
X0102368Y0082299D01*
X0101133Y0082299D01*
X0100516Y0082916D01*
X0099302Y0082299D02*
X0096833Y0082299D01*
X0099302Y0084768D01*
X0099302Y0085385D01*
X0098685Y0086002D01*
X0097450Y0086002D01*
X0096833Y0085385D01*
X0095619Y0085385D02*
X0095619Y0084150D01*
X0095002Y0083533D01*
X0093150Y0083533D01*
X0093150Y0082299D02*
X0093150Y0086002D01*
X0095002Y0086002D01*
X0095619Y0085385D01*
X0094384Y0083533D02*
X0095619Y0082299D01*
X0108647Y0054734D02*
X0109264Y0053499D01*
X0110498Y0052265D01*
X0110498Y0054117D01*
X0111116Y0054734D01*
X0111733Y0054734D01*
X0112350Y0054117D01*
X0112350Y0052882D01*
X0111733Y0052265D01*
X0110498Y0052265D01*
X0109881Y0051051D02*
X0109264Y0051051D01*
X0108647Y0050434D01*
X0108647Y0049199D01*
X0109264Y0048582D01*
X0109264Y0047368D02*
X0110498Y0047368D01*
X0111116Y0046750D01*
X0111116Y0044899D01*
X0112350Y0044899D02*
X0108647Y0044899D01*
X0108647Y0046750D01*
X0109264Y0047368D01*
X0111116Y0046133D02*
X0112350Y0047368D01*
X0112350Y0048582D02*
X0109881Y0051051D01*
X0112350Y0051051D02*
X0112350Y0048582D01*
X0111250Y0018802D02*
X0113719Y0015099D01*
X0114933Y0015716D02*
X0115550Y0015099D01*
X0116785Y0015099D01*
X0117402Y0015716D01*
X0117402Y0016333D01*
X0116785Y0016950D01*
X0116168Y0016950D01*
X0116785Y0016950D02*
X0117402Y0017568D01*
X0117402Y0018185D01*
X0116785Y0018802D01*
X0115550Y0018802D01*
X0114933Y0018185D01*
X0113719Y0018802D02*
X0111250Y0015099D01*
X0074202Y0015299D02*
X0071733Y0015299D01*
X0074202Y0017768D01*
X0074202Y0018385D01*
X0073585Y0019002D01*
X0072350Y0019002D01*
X0071733Y0018385D01*
X0070519Y0019002D02*
X0068050Y0015299D01*
X0070519Y0015299D02*
X0068050Y0019002D01*
X0031202Y0015199D02*
X0028733Y0015199D01*
X0027519Y0015199D02*
X0025050Y0018902D01*
X0027519Y0018902D02*
X0025050Y0015199D01*
X0028733Y0017668D02*
X0029968Y0018902D01*
X0029968Y0015199D01*
X0027050Y0044699D02*
X0023347Y0044699D01*
X0023347Y0046550D01*
X0023964Y0047168D01*
X0025198Y0047168D01*
X0025816Y0046550D01*
X0025816Y0044699D01*
X0025816Y0045933D02*
X0027050Y0047168D01*
X0027050Y0048382D02*
X0027050Y0050851D01*
X0027050Y0052065D02*
X0024581Y0054534D01*
X0023964Y0054534D01*
X0023347Y0053917D01*
X0023347Y0052682D01*
X0023964Y0052065D01*
X0023347Y0049616D02*
X0027050Y0049616D01*
X0027050Y0052065D02*
X0027050Y0054534D01*
X0023347Y0049616D02*
X0024581Y0048382D01*
D12*
X0108999Y0144052D02*
X0108999Y0169642D01*
X0111361Y0169642D01*
X0111755Y0169642D02*
X0131046Y0169642D01*
X0131046Y0166099D01*
X0116479Y0166099D01*
X0116479Y0162162D01*
X0130652Y0162162D01*
X0130652Y0157437D01*
X0116479Y0157437D01*
X0116479Y0152713D01*
X0130652Y0152713D01*
X0130652Y0148382D01*
X0116873Y0148382D01*
X0116873Y0144052D01*
X0130652Y0144052D01*
X0130652Y0128304D01*
D13*
X0130567Y0123852D02*
X0131768Y0123852D01*
X0132368Y0123251D01*
X0132368Y0122651D01*
X0131768Y0122050D01*
X0132368Y0121450D01*
X0132368Y0120849D01*
X0131768Y0120249D01*
X0130567Y0120249D01*
X0129966Y0120849D01*
X0131167Y0122050D02*
X0131768Y0122050D01*
X0129966Y0123251D02*
X0130567Y0123852D01*
X0128685Y0123251D02*
X0128685Y0122050D01*
X0128085Y0121450D01*
X0126283Y0121450D01*
X0126283Y0120249D02*
X0126283Y0123852D01*
X0128085Y0123852D01*
X0128685Y0123251D01*
X0125002Y0123852D02*
X0123801Y0123852D01*
X0124402Y0123852D02*
X0124402Y0120849D01*
X0123801Y0120249D01*
X0123201Y0120249D01*
X0122600Y0120849D01*
X0107968Y0112352D02*
X0106767Y0111751D01*
X0105566Y0110550D01*
X0107368Y0110550D01*
X0107968Y0109950D01*
X0107968Y0109349D01*
X0107368Y0108749D01*
X0106167Y0108749D01*
X0105566Y0109349D01*
X0105566Y0110550D01*
X0104285Y0110550D02*
X0104285Y0111751D01*
X0103685Y0112352D01*
X0101883Y0112352D01*
X0101883Y0108749D01*
X0101883Y0109950D02*
X0103685Y0109950D01*
X0104285Y0110550D01*
X0100602Y0112352D02*
X0099401Y0112352D01*
X0100002Y0112352D02*
X0100002Y0109349D01*
X0099401Y0108749D01*
X0098801Y0108749D01*
X0098200Y0109349D01*
X0093533Y0119891D02*
X0093533Y0123361D01*
X0092665Y0125048D02*
X0093533Y0125915D01*
X0093533Y0127650D01*
X0092665Y0128517D01*
X0091798Y0128517D01*
X0090930Y0127650D01*
X0090930Y0125915D01*
X0090063Y0125048D01*
X0089196Y0125048D01*
X0088328Y0125915D01*
X0088328Y0127650D01*
X0089196Y0128517D01*
X0088328Y0130204D02*
X0088328Y0132806D01*
X0089196Y0133674D01*
X0090930Y0133674D01*
X0091798Y0132806D01*
X0091798Y0130204D01*
X0093533Y0130204D02*
X0088328Y0130204D01*
X0088328Y0123361D02*
X0088328Y0119891D01*
X0093533Y0119891D01*
X0090930Y0119891D02*
X0090930Y0121626D01*
X0090930Y0140517D02*
X0090930Y0143986D01*
X0090063Y0150830D02*
X0088328Y0152564D01*
X0093533Y0152564D01*
X0093533Y0150830D02*
X0093533Y0154299D01*
X0093533Y0155986D02*
X0090063Y0159456D01*
X0089196Y0159456D01*
X0088328Y0158588D01*
X0088328Y0156853D01*
X0089196Y0155986D01*
X0088328Y0161142D02*
X0093533Y0161142D01*
X0093533Y0164612D01*
X0090930Y0162877D02*
X0090930Y0161142D01*
X0088328Y0161142D02*
X0088328Y0164612D01*
X0093533Y0159456D02*
X0093533Y0155986D01*
X0107401Y0195049D02*
X0106800Y0195649D01*
X0107401Y0195049D02*
X0108001Y0195049D01*
X0108602Y0195649D01*
X0108602Y0198652D01*
X0109202Y0198652D02*
X0108001Y0198652D01*
X0110483Y0198652D02*
X0110483Y0195049D01*
X0110483Y0196250D02*
X0112285Y0196250D01*
X0112885Y0196850D01*
X0112885Y0198051D01*
X0112285Y0198652D01*
X0110483Y0198652D01*
X0114166Y0196850D02*
X0116568Y0196850D01*
X0115968Y0195049D02*
X0115968Y0198652D01*
X0114166Y0196850D01*
X0080468Y0205349D02*
X0078066Y0205349D01*
X0079267Y0205349D02*
X0079267Y0208952D01*
X0078066Y0207751D01*
X0076785Y0208351D02*
X0076785Y0207150D01*
X0076185Y0206550D01*
X0074383Y0206550D01*
X0074383Y0205349D02*
X0074383Y0208952D01*
X0076185Y0208952D01*
X0076785Y0208351D01*
X0073102Y0208952D02*
X0071901Y0208952D01*
X0072502Y0208952D02*
X0072502Y0205949D01*
X0071901Y0205349D01*
X0071301Y0205349D01*
X0070700Y0205949D01*
X0044568Y0199552D02*
X0042166Y0199552D01*
X0042166Y0197750D01*
X0043367Y0198351D01*
X0043968Y0198351D01*
X0044568Y0197750D01*
X0044568Y0196549D01*
X0043968Y0195949D01*
X0042767Y0195949D01*
X0042166Y0196549D01*
X0040885Y0197750D02*
X0040285Y0197150D01*
X0038483Y0197150D01*
X0038483Y0195949D02*
X0038483Y0199552D01*
X0040285Y0199552D01*
X0040885Y0198951D01*
X0040885Y0197750D01*
X0037202Y0199552D02*
X0036001Y0199552D01*
X0036602Y0199552D02*
X0036602Y0196549D01*
X0036001Y0195949D01*
X0035401Y0195949D01*
X0034800Y0196549D01*
X0032299Y0170117D02*
X0029897Y0170117D01*
X0029297Y0169517D01*
X0029297Y0168316D01*
X0029897Y0167715D01*
X0030498Y0167715D01*
X0031098Y0168316D01*
X0031098Y0170117D01*
X0032299Y0170117D02*
X0032900Y0169517D01*
X0032900Y0168316D01*
X0032299Y0167715D01*
X0031098Y0166434D02*
X0031699Y0165834D01*
X0031699Y0164032D01*
X0032900Y0164032D02*
X0029297Y0164032D01*
X0029297Y0165834D01*
X0029897Y0166434D01*
X0031098Y0166434D01*
X0029297Y0162751D02*
X0029297Y0161550D01*
X0029297Y0162150D02*
X0032299Y0162150D01*
X0032900Y0161550D01*
X0032900Y0160949D01*
X0032299Y0160349D01*
X0011700Y0156000D02*
X0011700Y0154799D01*
X0011099Y0154198D01*
X0008697Y0156600D01*
X0011099Y0156600D01*
X0011700Y0156000D01*
X0011099Y0154198D02*
X0008697Y0154198D01*
X0008097Y0154799D01*
X0008097Y0156000D01*
X0008697Y0156600D01*
X0011700Y0152917D02*
X0011700Y0150515D01*
X0011700Y0151716D02*
X0008097Y0151716D01*
X0009298Y0150515D01*
X0008697Y0149234D02*
X0009898Y0149234D01*
X0010499Y0148634D01*
X0010499Y0146832D01*
X0011700Y0146832D02*
X0008097Y0146832D01*
X0008097Y0148634D01*
X0008697Y0149234D01*
X0008097Y0145551D02*
X0008097Y0144350D01*
X0008097Y0144950D02*
X0011099Y0144950D01*
X0011700Y0144350D01*
X0011700Y0143749D01*
X0011099Y0143149D01*
X0055651Y0099749D02*
X0056251Y0099149D01*
X0056852Y0099149D01*
X0057452Y0099749D01*
X0057452Y0102752D01*
X0056852Y0102752D02*
X0058053Y0102752D01*
X0059334Y0102752D02*
X0059334Y0099149D01*
X0059334Y0100350D02*
X0061135Y0100350D01*
X0061736Y0100950D01*
X0061736Y0102151D01*
X0061135Y0102752D01*
X0059334Y0102752D01*
X0063017Y0102151D02*
X0063617Y0102752D01*
X0064818Y0102752D01*
X0065419Y0102151D01*
X0065419Y0101551D01*
X0063017Y0099149D01*
X0065419Y0099149D01*
X0063894Y0102951D02*
X0086335Y0102951D01*
X0086335Y0090746D01*
X0063894Y0090746D01*
X0063894Y0102951D01*
X0073297Y0055217D02*
X0072697Y0054617D01*
X0072697Y0053416D01*
X0073297Y0052815D01*
X0073297Y0051534D02*
X0072697Y0050934D01*
X0072697Y0049732D01*
X0073297Y0049132D01*
X0073297Y0047851D02*
X0074498Y0047851D01*
X0075099Y0047250D01*
X0075099Y0045449D01*
X0075099Y0046650D02*
X0076300Y0047851D01*
X0076300Y0049132D02*
X0073898Y0051534D01*
X0073297Y0051534D01*
X0076300Y0051534D02*
X0076300Y0049132D01*
X0073297Y0047851D02*
X0072697Y0047250D01*
X0072697Y0045449D01*
X0076300Y0045449D01*
X0076300Y0052815D02*
X0073898Y0055217D01*
X0073297Y0055217D01*
X0076300Y0055217D02*
X0076300Y0052815D01*
X0114697Y0052315D02*
X0114697Y0054717D01*
X0115297Y0054717D01*
X0117699Y0052315D01*
X0118300Y0052315D01*
X0118300Y0051034D02*
X0118300Y0048632D01*
X0115898Y0051034D01*
X0115297Y0051034D01*
X0114697Y0050434D01*
X0114697Y0049232D01*
X0115297Y0048632D01*
X0115297Y0047351D02*
X0116498Y0047351D01*
X0117099Y0046750D01*
X0117099Y0044949D01*
X0117099Y0046150D02*
X0118300Y0047351D01*
X0118300Y0044949D02*
X0114697Y0044949D01*
X0114697Y0046750D01*
X0115297Y0047351D01*
X0032600Y0047251D02*
X0031399Y0046050D01*
X0031399Y0046650D02*
X0031399Y0044849D01*
X0032600Y0044849D02*
X0028997Y0044849D01*
X0028997Y0046650D01*
X0029597Y0047251D01*
X0030798Y0047251D01*
X0031399Y0046650D01*
X0032600Y0048532D02*
X0032600Y0050934D01*
X0032600Y0049733D02*
X0028997Y0049733D01*
X0030198Y0048532D01*
X0029597Y0052215D02*
X0028997Y0052816D01*
X0028997Y0054017D01*
X0029597Y0054617D01*
X0030198Y0054617D01*
X0030798Y0054017D01*
X0031399Y0054617D01*
X0031999Y0054617D01*
X0032600Y0054017D01*
X0032600Y0052816D01*
X0031999Y0052215D01*
X0030798Y0053416D02*
X0030798Y0054017D01*
X0047500Y0302549D02*
X0047500Y0306152D01*
X0049902Y0306152D01*
X0051183Y0305551D02*
X0051784Y0306152D01*
X0052985Y0306152D01*
X0053585Y0305551D01*
X0053585Y0304951D01*
X0051183Y0302549D01*
X0053585Y0302549D01*
X0048701Y0304350D02*
X0047500Y0304350D01*
D14*
X0045100Y0298949D02*
X0045100Y0309949D01*
X0045098Y0310047D01*
X0045092Y0310145D01*
X0045083Y0310243D01*
X0045069Y0310340D01*
X0045052Y0310437D01*
X0045031Y0310533D01*
X0045006Y0310628D01*
X0044978Y0310722D01*
X0044945Y0310814D01*
X0044910Y0310906D01*
X0044870Y0310996D01*
X0044828Y0311084D01*
X0044781Y0311171D01*
X0044732Y0311255D01*
X0044679Y0311338D01*
X0044623Y0311418D01*
X0044563Y0311497D01*
X0044501Y0311573D01*
X0044436Y0311646D01*
X0044368Y0311717D01*
X0044297Y0311785D01*
X0044224Y0311850D01*
X0044148Y0311912D01*
X0044069Y0311972D01*
X0043989Y0312028D01*
X0043906Y0312081D01*
X0043822Y0312130D01*
X0043735Y0312177D01*
X0043647Y0312219D01*
X0043557Y0312259D01*
X0043465Y0312294D01*
X0043373Y0312327D01*
X0043279Y0312355D01*
X0043184Y0312380D01*
X0043088Y0312401D01*
X0042991Y0312418D01*
X0042894Y0312432D01*
X0042796Y0312441D01*
X0042698Y0312447D01*
X0042600Y0312449D01*
X0013600Y0312449D01*
X0013502Y0312447D01*
X0013404Y0312441D01*
X0013306Y0312432D01*
X0013209Y0312418D01*
X0013112Y0312401D01*
X0013016Y0312380D01*
X0012921Y0312355D01*
X0012827Y0312327D01*
X0012735Y0312294D01*
X0012643Y0312259D01*
X0012553Y0312219D01*
X0012465Y0312177D01*
X0012378Y0312130D01*
X0012294Y0312081D01*
X0012211Y0312028D01*
X0012131Y0311972D01*
X0012052Y0311912D01*
X0011976Y0311850D01*
X0011903Y0311785D01*
X0011832Y0311717D01*
X0011764Y0311646D01*
X0011699Y0311573D01*
X0011637Y0311497D01*
X0011577Y0311418D01*
X0011521Y0311338D01*
X0011468Y0311255D01*
X0011419Y0311171D01*
X0011372Y0311084D01*
X0011330Y0310996D01*
X0011290Y0310906D01*
X0011255Y0310814D01*
X0011222Y0310722D01*
X0011194Y0310628D01*
X0011169Y0310533D01*
X0011148Y0310437D01*
X0011131Y0310340D01*
X0011117Y0310243D01*
X0011108Y0310145D01*
X0011102Y0310047D01*
X0011100Y0309949D01*
X0011100Y0298949D01*
X0011102Y0298851D01*
X0011108Y0298753D01*
X0011117Y0298655D01*
X0011131Y0298558D01*
X0011148Y0298461D01*
X0011169Y0298365D01*
X0011194Y0298270D01*
X0011222Y0298176D01*
X0011255Y0298084D01*
X0011290Y0297992D01*
X0011330Y0297902D01*
X0011372Y0297814D01*
X0011419Y0297727D01*
X0011468Y0297643D01*
X0011521Y0297560D01*
X0011577Y0297480D01*
X0011637Y0297401D01*
X0011699Y0297325D01*
X0011764Y0297252D01*
X0011832Y0297181D01*
X0011903Y0297113D01*
X0011976Y0297048D01*
X0012052Y0296986D01*
X0012131Y0296926D01*
X0012211Y0296870D01*
X0012294Y0296817D01*
X0012378Y0296768D01*
X0012465Y0296721D01*
X0012553Y0296679D01*
X0012643Y0296639D01*
X0012735Y0296604D01*
X0012827Y0296571D01*
X0012921Y0296543D01*
X0013016Y0296518D01*
X0013112Y0296497D01*
X0013209Y0296480D01*
X0013306Y0296466D01*
X0013404Y0296457D01*
X0013502Y0296451D01*
X0013600Y0296449D01*
X0042600Y0296449D01*
X0042698Y0296451D01*
X0042796Y0296457D01*
X0042894Y0296466D01*
X0042991Y0296480D01*
X0043088Y0296497D01*
X0043184Y0296518D01*
X0043279Y0296543D01*
X0043373Y0296571D01*
X0043465Y0296604D01*
X0043557Y0296639D01*
X0043647Y0296679D01*
X0043735Y0296721D01*
X0043822Y0296768D01*
X0043906Y0296817D01*
X0043989Y0296870D01*
X0044069Y0296926D01*
X0044148Y0296986D01*
X0044224Y0297048D01*
X0044297Y0297113D01*
X0044368Y0297181D01*
X0044436Y0297252D01*
X0044501Y0297325D01*
X0044563Y0297401D01*
X0044623Y0297480D01*
X0044679Y0297560D01*
X0044732Y0297643D01*
X0044781Y0297727D01*
X0044828Y0297814D01*
X0044870Y0297902D01*
X0044910Y0297992D01*
X0044945Y0298084D01*
X0044978Y0298176D01*
X0045006Y0298270D01*
X0045031Y0298365D01*
X0045052Y0298461D01*
X0045069Y0298558D01*
X0045083Y0298655D01*
X0045092Y0298753D01*
X0045098Y0298851D01*
X0045100Y0298949D01*
X0036600Y0304449D02*
X0019600Y0304449D01*
X0023100Y0305949D02*
X0023100Y0302949D01*
X0033100Y0302949D01*
X0033100Y0305949D01*
X0023100Y0305949D01*
X0055700Y0317399D02*
X0055700Y0324949D01*
X0062100Y0324949D02*
X0062100Y0317399D01*
X0061500Y0201849D02*
X0056500Y0201849D01*
X0054000Y0199349D01*
X0054000Y0194349D01*
X0056500Y0191849D01*
X0061500Y0191849D01*
X0064000Y0194349D01*
X0064000Y0199349D01*
X0061500Y0201849D01*
X0064000Y0199349D02*
X0066500Y0201849D01*
X0071500Y0201849D01*
X0074000Y0199349D01*
X0076500Y0201849D01*
X0081500Y0201849D01*
X0084000Y0199349D01*
X0086500Y0201849D01*
X0091500Y0201849D01*
X0094000Y0199349D01*
X0096500Y0201849D01*
X0101500Y0201849D01*
X0104000Y0199349D01*
X0104000Y0194349D01*
X0101500Y0191849D01*
X0096500Y0191849D01*
X0094000Y0194349D01*
X0091500Y0191849D01*
X0086500Y0191849D01*
X0084000Y0194349D01*
X0084000Y0199349D01*
X0084000Y0194349D01*
X0081500Y0191849D01*
X0076500Y0191849D01*
X0074000Y0194349D01*
X0071500Y0191849D01*
X0066500Y0191849D01*
X0064000Y0194349D01*
X0064000Y0199349D01*
X0064765Y0189531D02*
X0062835Y0189531D01*
X0062835Y0187767D02*
X0064765Y0187767D01*
X0074000Y0194349D02*
X0074000Y0199349D01*
X0080035Y0189831D02*
X0081965Y0189831D01*
X0081965Y0188067D02*
X0080035Y0188067D01*
X0094000Y0194349D02*
X0094000Y0199349D01*
X0054000Y0199349D02*
X0051500Y0201849D01*
X0046500Y0201849D01*
X0044000Y0199349D01*
X0044000Y0194349D01*
X0046500Y0191849D01*
X0051500Y0191849D01*
X0054000Y0194349D01*
X0051865Y0189431D02*
X0049935Y0189431D01*
X0049935Y0187667D02*
X0051865Y0187667D01*
X0031500Y0158849D02*
X0034000Y0156349D01*
X0034000Y0151349D01*
X0031500Y0148849D01*
X0034000Y0146349D01*
X0034000Y0141349D01*
X0031500Y0138849D01*
X0026500Y0138849D01*
X0024000Y0141349D01*
X0024000Y0146349D01*
X0021500Y0148849D01*
X0024000Y0151349D01*
X0024000Y0156349D01*
X0021500Y0158849D01*
X0016500Y0158849D01*
X0014000Y0156349D01*
X0014000Y0151349D01*
X0016500Y0148849D01*
X0021500Y0148849D01*
X0024000Y0151349D02*
X0024000Y0156349D01*
X0026500Y0158849D01*
X0031500Y0158849D01*
X0031500Y0148849D02*
X0026500Y0148849D01*
X0024000Y0151349D01*
X0026500Y0148849D02*
X0024000Y0146349D01*
X0024000Y0141349D01*
X0021500Y0138849D01*
X0016500Y0138849D01*
X0014000Y0141349D01*
X0014000Y0146349D01*
X0016500Y0148849D01*
X0046286Y0107968D02*
X0046286Y0106039D01*
X0048050Y0106039D02*
X0048050Y0107968D01*
X0054000Y0107349D02*
X0054000Y0112349D01*
X0056500Y0114849D01*
X0061500Y0114849D01*
X0064000Y0112349D01*
X0066500Y0114849D01*
X0071500Y0114849D01*
X0074000Y0112349D01*
X0076500Y0114849D01*
X0081500Y0114849D01*
X0084000Y0112349D01*
X0086500Y0114849D01*
X0091500Y0114849D01*
X0094000Y0112349D01*
X0094000Y0107349D01*
X0091500Y0104849D01*
X0086500Y0104849D01*
X0084000Y0107349D01*
X0081500Y0104849D01*
X0076500Y0104849D01*
X0074000Y0107349D01*
X0074000Y0112349D01*
X0074000Y0107349D01*
X0071500Y0104849D01*
X0066500Y0104849D01*
X0064000Y0107349D01*
X0061500Y0104849D01*
X0056500Y0104849D01*
X0054000Y0107349D01*
X0064000Y0107349D02*
X0064000Y0112349D01*
X0052782Y0092113D02*
X0052782Y0090184D01*
X0051018Y0090184D02*
X0051018Y0092113D01*
X0049965Y0081731D02*
X0048035Y0081731D01*
X0048035Y0079967D02*
X0049965Y0079967D01*
X0050282Y0065813D02*
X0050282Y0063884D01*
X0048518Y0063884D02*
X0048518Y0065813D01*
X0038000Y0064849D02*
X0038000Y0058849D01*
X0037998Y0058789D01*
X0037993Y0058728D01*
X0037984Y0058669D01*
X0037971Y0058610D01*
X0037955Y0058551D01*
X0037935Y0058494D01*
X0037912Y0058439D01*
X0037885Y0058384D01*
X0037856Y0058332D01*
X0037823Y0058281D01*
X0037787Y0058232D01*
X0037749Y0058186D01*
X0037707Y0058142D01*
X0037663Y0058100D01*
X0037617Y0058062D01*
X0037568Y0058026D01*
X0037517Y0057993D01*
X0037465Y0057964D01*
X0037410Y0057937D01*
X0037355Y0057914D01*
X0037298Y0057894D01*
X0037239Y0057878D01*
X0037180Y0057865D01*
X0037121Y0057856D01*
X0037060Y0057851D01*
X0037000Y0057849D01*
X0035500Y0057849D01*
X0035000Y0058349D01*
X0021000Y0058349D01*
X0020500Y0057849D01*
X0019000Y0057849D01*
X0018940Y0057851D01*
X0018879Y0057856D01*
X0018820Y0057865D01*
X0018761Y0057878D01*
X0018702Y0057894D01*
X0018645Y0057914D01*
X0018590Y0057937D01*
X0018535Y0057964D01*
X0018483Y0057993D01*
X0018432Y0058026D01*
X0018383Y0058062D01*
X0018337Y0058100D01*
X0018293Y0058142D01*
X0018251Y0058186D01*
X0018213Y0058232D01*
X0018177Y0058281D01*
X0018144Y0058332D01*
X0018115Y0058384D01*
X0018088Y0058439D01*
X0018065Y0058494D01*
X0018045Y0058551D01*
X0018029Y0058610D01*
X0018016Y0058669D01*
X0018007Y0058728D01*
X0018002Y0058789D01*
X0018000Y0058849D01*
X0018000Y0064849D01*
X0018002Y0064909D01*
X0018007Y0064970D01*
X0018016Y0065029D01*
X0018029Y0065088D01*
X0018045Y0065147D01*
X0018065Y0065204D01*
X0018088Y0065259D01*
X0018115Y0065314D01*
X0018144Y0065366D01*
X0018177Y0065417D01*
X0018213Y0065466D01*
X0018251Y0065512D01*
X0018293Y0065556D01*
X0018337Y0065598D01*
X0018383Y0065636D01*
X0018432Y0065672D01*
X0018483Y0065705D01*
X0018535Y0065734D01*
X0018590Y0065761D01*
X0018645Y0065784D01*
X0018702Y0065804D01*
X0018761Y0065820D01*
X0018820Y0065833D01*
X0018879Y0065842D01*
X0018940Y0065847D01*
X0019000Y0065849D01*
X0020500Y0065849D01*
X0021000Y0065349D01*
X0035000Y0065349D01*
X0035500Y0065849D01*
X0037000Y0065849D01*
X0037060Y0065847D01*
X0037121Y0065842D01*
X0037180Y0065833D01*
X0037239Y0065820D01*
X0037298Y0065804D01*
X0037355Y0065784D01*
X0037410Y0065761D01*
X0037465Y0065734D01*
X0037517Y0065705D01*
X0037568Y0065672D01*
X0037617Y0065636D01*
X0037663Y0065598D01*
X0037707Y0065556D01*
X0037749Y0065512D01*
X0037787Y0065466D01*
X0037823Y0065417D01*
X0037856Y0065366D01*
X0037885Y0065314D01*
X0037912Y0065259D01*
X0037935Y0065204D01*
X0037955Y0065147D01*
X0037971Y0065088D01*
X0037984Y0065029D01*
X0037993Y0064970D01*
X0037998Y0064909D01*
X0038000Y0064849D01*
X0031800Y0065049D02*
X0024250Y0065049D01*
X0024250Y0058649D02*
X0031800Y0058649D01*
X0030965Y0069967D02*
X0029035Y0069967D01*
X0029035Y0071731D02*
X0030965Y0071731D01*
X0061000Y0064849D02*
X0061000Y0058849D01*
X0061002Y0058789D01*
X0061007Y0058728D01*
X0061016Y0058669D01*
X0061029Y0058610D01*
X0061045Y0058551D01*
X0061065Y0058494D01*
X0061088Y0058439D01*
X0061115Y0058384D01*
X0061144Y0058332D01*
X0061177Y0058281D01*
X0061213Y0058232D01*
X0061251Y0058186D01*
X0061293Y0058142D01*
X0061337Y0058100D01*
X0061383Y0058062D01*
X0061432Y0058026D01*
X0061483Y0057993D01*
X0061535Y0057964D01*
X0061590Y0057937D01*
X0061645Y0057914D01*
X0061702Y0057894D01*
X0061761Y0057878D01*
X0061820Y0057865D01*
X0061879Y0057856D01*
X0061940Y0057851D01*
X0062000Y0057849D01*
X0063500Y0057849D01*
X0064000Y0058349D01*
X0078000Y0058349D01*
X0078500Y0057849D01*
X0080000Y0057849D01*
X0080060Y0057851D01*
X0080121Y0057856D01*
X0080180Y0057865D01*
X0080239Y0057878D01*
X0080298Y0057894D01*
X0080355Y0057914D01*
X0080410Y0057937D01*
X0080465Y0057964D01*
X0080517Y0057993D01*
X0080568Y0058026D01*
X0080617Y0058062D01*
X0080663Y0058100D01*
X0080707Y0058142D01*
X0080749Y0058186D01*
X0080787Y0058232D01*
X0080823Y0058281D01*
X0080856Y0058332D01*
X0080885Y0058384D01*
X0080912Y0058439D01*
X0080935Y0058494D01*
X0080955Y0058551D01*
X0080971Y0058610D01*
X0080984Y0058669D01*
X0080993Y0058728D01*
X0080998Y0058789D01*
X0081000Y0058849D01*
X0081000Y0064849D01*
X0080998Y0064909D01*
X0080993Y0064970D01*
X0080984Y0065029D01*
X0080971Y0065088D01*
X0080955Y0065147D01*
X0080935Y0065204D01*
X0080912Y0065259D01*
X0080885Y0065314D01*
X0080856Y0065366D01*
X0080823Y0065417D01*
X0080787Y0065466D01*
X0080749Y0065512D01*
X0080707Y0065556D01*
X0080663Y0065598D01*
X0080617Y0065636D01*
X0080568Y0065672D01*
X0080517Y0065705D01*
X0080465Y0065734D01*
X0080410Y0065761D01*
X0080355Y0065784D01*
X0080298Y0065804D01*
X0080239Y0065820D01*
X0080180Y0065833D01*
X0080121Y0065842D01*
X0080060Y0065847D01*
X0080000Y0065849D01*
X0078500Y0065849D01*
X0078000Y0065349D01*
X0064000Y0065349D01*
X0063500Y0065849D01*
X0062000Y0065849D01*
X0061940Y0065847D01*
X0061879Y0065842D01*
X0061820Y0065833D01*
X0061761Y0065820D01*
X0061702Y0065804D01*
X0061645Y0065784D01*
X0061590Y0065761D01*
X0061535Y0065734D01*
X0061483Y0065705D01*
X0061432Y0065672D01*
X0061383Y0065636D01*
X0061337Y0065598D01*
X0061293Y0065556D01*
X0061251Y0065512D01*
X0061213Y0065466D01*
X0061177Y0065417D01*
X0061144Y0065366D01*
X0061115Y0065314D01*
X0061088Y0065259D01*
X0061065Y0065204D01*
X0061045Y0065147D01*
X0061029Y0065088D01*
X0061016Y0065029D01*
X0061007Y0064970D01*
X0061002Y0064909D01*
X0061000Y0064849D01*
X0067250Y0065049D02*
X0074800Y0065049D01*
X0074800Y0058649D02*
X0067250Y0058649D01*
X0097335Y0088867D02*
X0099265Y0088867D01*
X0099265Y0090631D02*
X0097335Y0090631D01*
X0106635Y0083931D02*
X0108565Y0083931D01*
X0108565Y0082167D02*
X0106635Y0082167D01*
X0102965Y0069731D02*
X0101035Y0069731D01*
X0101035Y0067967D02*
X0102965Y0067967D01*
X0105000Y0065849D02*
X0106500Y0065849D01*
X0107000Y0065349D01*
X0121000Y0065349D01*
X0121500Y0065849D01*
X0123000Y0065849D01*
X0123060Y0065847D01*
X0123121Y0065842D01*
X0123180Y0065833D01*
X0123239Y0065820D01*
X0123298Y0065804D01*
X0123355Y0065784D01*
X0123410Y0065761D01*
X0123465Y0065734D01*
X0123517Y0065705D01*
X0123568Y0065672D01*
X0123617Y0065636D01*
X0123663Y0065598D01*
X0123707Y0065556D01*
X0123749Y0065512D01*
X0123787Y0065466D01*
X0123823Y0065417D01*
X0123856Y0065366D01*
X0123885Y0065314D01*
X0123912Y0065259D01*
X0123935Y0065204D01*
X0123955Y0065147D01*
X0123971Y0065088D01*
X0123984Y0065029D01*
X0123993Y0064970D01*
X0123998Y0064909D01*
X0124000Y0064849D01*
X0124000Y0058849D01*
X0123998Y0058789D01*
X0123993Y0058728D01*
X0123984Y0058669D01*
X0123971Y0058610D01*
X0123955Y0058551D01*
X0123935Y0058494D01*
X0123912Y0058439D01*
X0123885Y0058384D01*
X0123856Y0058332D01*
X0123823Y0058281D01*
X0123787Y0058232D01*
X0123749Y0058186D01*
X0123707Y0058142D01*
X0123663Y0058100D01*
X0123617Y0058062D01*
X0123568Y0058026D01*
X0123517Y0057993D01*
X0123465Y0057964D01*
X0123410Y0057937D01*
X0123355Y0057914D01*
X0123298Y0057894D01*
X0123239Y0057878D01*
X0123180Y0057865D01*
X0123121Y0057856D01*
X0123060Y0057851D01*
X0123000Y0057849D01*
X0121500Y0057849D01*
X0121000Y0058349D01*
X0107000Y0058349D01*
X0106500Y0057849D01*
X0105000Y0057849D01*
X0104940Y0057851D01*
X0104879Y0057856D01*
X0104820Y0057865D01*
X0104761Y0057878D01*
X0104702Y0057894D01*
X0104645Y0057914D01*
X0104590Y0057937D01*
X0104535Y0057964D01*
X0104483Y0057993D01*
X0104432Y0058026D01*
X0104383Y0058062D01*
X0104337Y0058100D01*
X0104293Y0058142D01*
X0104251Y0058186D01*
X0104213Y0058232D01*
X0104177Y0058281D01*
X0104144Y0058332D01*
X0104115Y0058384D01*
X0104088Y0058439D01*
X0104065Y0058494D01*
X0104045Y0058551D01*
X0104029Y0058610D01*
X0104016Y0058669D01*
X0104007Y0058728D01*
X0104002Y0058789D01*
X0104000Y0058849D01*
X0104000Y0064849D01*
X0104002Y0064909D01*
X0104007Y0064970D01*
X0104016Y0065029D01*
X0104029Y0065088D01*
X0104045Y0065147D01*
X0104065Y0065204D01*
X0104088Y0065259D01*
X0104115Y0065314D01*
X0104144Y0065366D01*
X0104177Y0065417D01*
X0104213Y0065466D01*
X0104251Y0065512D01*
X0104293Y0065556D01*
X0104337Y0065598D01*
X0104383Y0065636D01*
X0104432Y0065672D01*
X0104483Y0065705D01*
X0104535Y0065734D01*
X0104590Y0065761D01*
X0104645Y0065784D01*
X0104702Y0065804D01*
X0104761Y0065820D01*
X0104820Y0065833D01*
X0104879Y0065842D01*
X0104940Y0065847D01*
X0105000Y0065849D01*
X0110250Y0065049D02*
X0117800Y0065049D01*
X0117800Y0058649D02*
X0110250Y0058649D01*
X0121200Y0070649D02*
X0121200Y0075649D01*
X0123700Y0078149D01*
X0121200Y0080649D01*
X0121200Y0085649D01*
X0123700Y0088149D01*
X0128700Y0088149D01*
X0131200Y0085649D01*
X0131200Y0080649D01*
X0128700Y0078149D01*
X0131200Y0075649D01*
X0131200Y0070649D01*
X0128700Y0068149D01*
X0123700Y0068149D01*
X0121200Y0070649D01*
X0123700Y0078149D02*
X0128700Y0078149D01*
X0128700Y0088149D02*
X0131200Y0090649D01*
X0131200Y0095649D01*
X0128700Y0098149D01*
X0131200Y0100649D01*
X0131200Y0105649D01*
X0128700Y0108149D01*
X0131200Y0110649D01*
X0131200Y0115649D01*
X0128700Y0118149D01*
X0123700Y0118149D01*
X0121200Y0115649D01*
X0121200Y0110649D01*
X0123700Y0108149D01*
X0128700Y0108149D01*
X0123700Y0108149D02*
X0121200Y0105649D01*
X0121200Y0100649D01*
X0123700Y0098149D01*
X0128700Y0098149D01*
X0123700Y0098149D02*
X0121200Y0095649D01*
X0121200Y0090649D01*
X0123700Y0088149D01*
X0084000Y0107349D02*
X0084000Y0112349D01*
D15*
X0051919Y0092758D03*
X0051919Y0089558D03*
X0047187Y0105413D03*
X0047187Y0108613D03*
X0049419Y0066458D03*
X0049419Y0063258D03*
D16*
X0023520Y0102707D02*
X0023520Y0104380D01*
X0025882Y0104380D01*
X0025882Y0128199D01*
X0023520Y0128199D01*
X0023520Y0129872D01*
X0009346Y0129872D01*
X0009346Y0128199D01*
X0006197Y0128199D01*
X0006197Y0104380D01*
X0009346Y0104380D01*
X0009346Y0102707D01*
X0023520Y0102707D01*
D17*
X0023520Y0104380D02*
X0009346Y0104380D01*
X0009346Y0128199D02*
X0023520Y0128199D01*
X0025885Y0166585D02*
X0006200Y0166585D01*
X0003838Y0166585D01*
X0003838Y0196113D01*
X0006200Y0196113D01*
X0025885Y0196113D01*
X0025885Y0166585D01*
X0025885Y0173869D02*
X0018798Y0173869D01*
X0018798Y0188829D01*
X0025885Y0188829D01*
X0029071Y0202888D02*
X0017260Y0214699D01*
X0017260Y0293439D01*
X0111748Y0293439D01*
X0111748Y0202888D01*
X0029071Y0202888D01*
X0006200Y0196113D02*
X0006200Y0166585D01*
X0072103Y0297651D02*
X0072103Y0335446D01*
X0122497Y0335446D01*
X0122497Y0297651D01*
X0072103Y0297651D01*
X0071709Y0298832D02*
X0071709Y0334265D01*
X0122891Y0334265D01*
X0122891Y0298832D01*
X0071709Y0298832D01*
X0116051Y0214939D02*
X0123925Y0214939D01*
X0123925Y0205097D01*
X0123925Y0201160D02*
X0127862Y0205097D01*
X0131799Y0207065D02*
X0131799Y0199191D01*
X0131799Y0191317D01*
X0123925Y0191317D01*
X0123925Y0201160D01*
X0123925Y0191317D02*
X0116051Y0191317D01*
X0116051Y0214939D01*
X0123925Y0214939D02*
X0131799Y0214939D01*
X0131799Y0207065D01*
X0131923Y0207063D01*
X0132046Y0207057D01*
X0132170Y0207048D01*
X0132292Y0207034D01*
X0132415Y0207017D01*
X0132537Y0206995D01*
X0132658Y0206970D01*
X0132778Y0206941D01*
X0132897Y0206909D01*
X0133016Y0206872D01*
X0133133Y0206832D01*
X0133248Y0206789D01*
X0133363Y0206741D01*
X0133475Y0206690D01*
X0133586Y0206636D01*
X0133696Y0206578D01*
X0133803Y0206517D01*
X0133909Y0206452D01*
X0134012Y0206384D01*
X0134113Y0206313D01*
X0134212Y0206239D01*
X0134309Y0206162D01*
X0134403Y0206081D01*
X0134494Y0205998D01*
X0134583Y0205912D01*
X0134669Y0205823D01*
X0134752Y0205732D01*
X0134833Y0205638D01*
X0134910Y0205541D01*
X0134984Y0205442D01*
X0135055Y0205341D01*
X0135123Y0205238D01*
X0135188Y0205132D01*
X0135249Y0205025D01*
X0135307Y0204915D01*
X0135361Y0204804D01*
X0135412Y0204692D01*
X0135460Y0204577D01*
X0135503Y0204462D01*
X0135543Y0204345D01*
X0135580Y0204226D01*
X0135612Y0204107D01*
X0135641Y0203987D01*
X0135666Y0203866D01*
X0135688Y0203744D01*
X0135705Y0203621D01*
X0135719Y0203499D01*
X0135728Y0203375D01*
X0135734Y0203252D01*
X0135736Y0203128D01*
X0135734Y0203004D01*
X0135728Y0202881D01*
X0135719Y0202757D01*
X0135705Y0202635D01*
X0135688Y0202512D01*
X0135666Y0202390D01*
X0135641Y0202269D01*
X0135612Y0202149D01*
X0135580Y0202030D01*
X0135543Y0201911D01*
X0135503Y0201794D01*
X0135460Y0201679D01*
X0135412Y0201564D01*
X0135361Y0201452D01*
X0135307Y0201341D01*
X0135249Y0201231D01*
X0135188Y0201124D01*
X0135123Y0201018D01*
X0135055Y0200915D01*
X0134984Y0200814D01*
X0134910Y0200715D01*
X0134833Y0200618D01*
X0134752Y0200524D01*
X0134669Y0200433D01*
X0134583Y0200344D01*
X0134494Y0200258D01*
X0134403Y0200175D01*
X0134309Y0200094D01*
X0134212Y0200017D01*
X0134113Y0199943D01*
X0134012Y0199872D01*
X0133909Y0199804D01*
X0133803Y0199739D01*
X0133696Y0199678D01*
X0133586Y0199620D01*
X0133475Y0199566D01*
X0133363Y0199515D01*
X0133248Y0199467D01*
X0133133Y0199424D01*
X0133016Y0199384D01*
X0132897Y0199347D01*
X0132778Y0199315D01*
X0132658Y0199286D01*
X0132537Y0199261D01*
X0132415Y0199239D01*
X0132292Y0199222D01*
X0132170Y0199208D01*
X0132046Y0199199D01*
X0131923Y0199193D01*
X0131799Y0199191D01*
D18*
X0083283Y0089573D02*
X0068717Y0089573D01*
X0068717Y0070124D01*
X0083283Y0070124D01*
X0083283Y0089573D01*
X0083402Y0055731D02*
X0058598Y0055731D01*
X0058598Y0011243D01*
X0083402Y0011243D01*
X0083402Y0055731D01*
X0079465Y0055731D02*
X0062535Y0055731D01*
X0058598Y0047857D02*
X0058598Y0025022D01*
X0061551Y0010849D02*
X0061551Y0001400D01*
X0080449Y0001400D01*
X0080449Y0010849D01*
X0083402Y0025022D02*
X0083402Y0047857D01*
X0101598Y0047857D02*
X0101598Y0025022D01*
X0101598Y0011243D02*
X0101598Y0055731D01*
X0126402Y0055731D01*
X0126402Y0011243D01*
X0101598Y0011243D01*
X0104551Y0010849D02*
X0104551Y0001400D01*
X0123449Y0001400D01*
X0123449Y0010849D01*
X0126402Y0025022D02*
X0126402Y0047857D01*
X0122465Y0055731D02*
X0105535Y0055731D01*
X0040402Y0055731D02*
X0040402Y0011243D01*
X0015598Y0011243D01*
X0015598Y0055731D01*
X0040402Y0055731D01*
X0036465Y0055731D02*
X0019535Y0055731D01*
X0015598Y0047857D02*
X0015598Y0025022D01*
X0018551Y0010849D02*
X0018551Y0001400D01*
X0037449Y0001400D01*
X0037449Y0010849D01*
X0040402Y0025022D02*
X0040402Y0047857D01*
X0034045Y0105568D02*
X0034045Y0107102D01*
X0032510Y0107102D01*
X0032510Y0105568D01*
X0034045Y0105568D01*
X0048980Y0314589D02*
X0008980Y0314589D01*
X0008980Y0315770D01*
X0048980Y0315770D01*
X0048980Y0314589D01*
X0048980Y0315770D02*
X0048980Y0318219D01*
X0048980Y0320896D01*
X0048980Y0322835D01*
X0048980Y0338570D01*
X0048980Y0340472D01*
X0048980Y0346479D01*
X0008980Y0346479D01*
X0008980Y0340472D01*
X0008980Y0338570D01*
X0008980Y0322835D01*
X0008980Y0320896D01*
X0048980Y0320896D01*
X0048980Y0318219D02*
X0008980Y0318219D01*
X0008980Y0317435D01*
X0008980Y0315770D01*
X0007771Y0316845D02*
X0008473Y0317435D01*
X0008980Y0317435D01*
X0008980Y0318219D02*
X0008980Y0319065D01*
X0008980Y0320896D01*
X0007771Y0319656D02*
X0008473Y0319065D01*
X0008980Y0319065D01*
X0007771Y0319656D02*
X0006736Y0319656D01*
X0006736Y0316845D01*
X0007771Y0316845D01*
X0012807Y0326408D02*
X0016464Y0330065D01*
X0018980Y0332581D01*
X0019448Y0333050D01*
X0023204Y0336806D01*
X0025153Y0334857D02*
X0021460Y0331164D01*
X0018980Y0328683D01*
X0018350Y0328054D01*
X0014756Y0324459D01*
X0018350Y0328054D02*
X0018253Y0328080D01*
X0018158Y0328111D01*
X0018063Y0328145D01*
X0017970Y0328183D01*
X0017879Y0328224D01*
X0017789Y0328269D01*
X0017701Y0328318D01*
X0017615Y0328369D01*
X0017531Y0328425D01*
X0017449Y0328483D01*
X0017370Y0328545D01*
X0017293Y0328609D01*
X0017219Y0328677D01*
X0017148Y0328748D01*
X0017079Y0328821D01*
X0017013Y0328897D01*
X0016951Y0328975D01*
X0016891Y0329056D01*
X0016835Y0329139D01*
X0016782Y0329224D01*
X0016732Y0329312D01*
X0016686Y0329401D01*
X0016643Y0329492D01*
X0016604Y0329584D01*
X0016568Y0329678D01*
X0016537Y0329773D01*
X0016509Y0329870D01*
X0016485Y0329967D01*
X0016464Y0330066D01*
X0019448Y0333050D02*
X0019547Y0333029D01*
X0019644Y0333005D01*
X0019741Y0332977D01*
X0019836Y0332946D01*
X0019930Y0332910D01*
X0020022Y0332871D01*
X0020113Y0332828D01*
X0020202Y0332782D01*
X0020290Y0332732D01*
X0020375Y0332679D01*
X0020458Y0332623D01*
X0020539Y0332563D01*
X0020617Y0332501D01*
X0020693Y0332435D01*
X0020766Y0332366D01*
X0020837Y0332295D01*
X0020905Y0332221D01*
X0020969Y0332144D01*
X0021031Y0332065D01*
X0021089Y0331983D01*
X0021145Y0331899D01*
X0021196Y0331813D01*
X0021245Y0331725D01*
X0021290Y0331635D01*
X0021331Y0331544D01*
X0021369Y0331451D01*
X0021403Y0331356D01*
X0021434Y0331261D01*
X0021460Y0331164D01*
X0011441Y0330632D02*
X0011443Y0330817D01*
X0011450Y0331002D01*
X0011461Y0331187D01*
X0011477Y0331371D01*
X0011498Y0331555D01*
X0011523Y0331738D01*
X0011552Y0331921D01*
X0011586Y0332103D01*
X0011624Y0332284D01*
X0011667Y0332464D01*
X0011714Y0332643D01*
X0011766Y0332820D01*
X0011822Y0332997D01*
X0011882Y0333172D01*
X0011946Y0333345D01*
X0012015Y0333517D01*
X0012088Y0333687D01*
X0012165Y0333855D01*
X0012246Y0334022D01*
X0012331Y0334186D01*
X0012420Y0334348D01*
X0012514Y0334508D01*
X0012611Y0334665D01*
X0012712Y0334820D01*
X0012816Y0334973D01*
X0012925Y0335123D01*
X0013037Y0335270D01*
X0013152Y0335415D01*
X0013271Y0335556D01*
X0013394Y0335695D01*
X0013520Y0335830D01*
X0013649Y0335963D01*
X0013782Y0336092D01*
X0013917Y0336218D01*
X0014056Y0336341D01*
X0014197Y0336460D01*
X0014342Y0336575D01*
X0014489Y0336687D01*
X0014639Y0336796D01*
X0014792Y0336900D01*
X0014947Y0337001D01*
X0015104Y0337098D01*
X0015264Y0337192D01*
X0015426Y0337281D01*
X0015590Y0337366D01*
X0015757Y0337447D01*
X0015925Y0337524D01*
X0016095Y0337597D01*
X0016267Y0337666D01*
X0016440Y0337730D01*
X0016615Y0337790D01*
X0016792Y0337846D01*
X0016969Y0337898D01*
X0017148Y0337945D01*
X0017328Y0337988D01*
X0017509Y0338026D01*
X0017691Y0338060D01*
X0017874Y0338089D01*
X0018057Y0338114D01*
X0018241Y0338135D01*
X0018425Y0338151D01*
X0018610Y0338162D01*
X0018795Y0338169D01*
X0018980Y0338171D01*
X0019165Y0338169D01*
X0019350Y0338162D01*
X0019535Y0338151D01*
X0019719Y0338135D01*
X0019903Y0338114D01*
X0020086Y0338089D01*
X0020269Y0338060D01*
X0020451Y0338026D01*
X0020632Y0337988D01*
X0020812Y0337945D01*
X0020991Y0337898D01*
X0021168Y0337846D01*
X0021345Y0337790D01*
X0021520Y0337730D01*
X0021693Y0337666D01*
X0021865Y0337597D01*
X0022035Y0337524D01*
X0022203Y0337447D01*
X0022370Y0337366D01*
X0022534Y0337281D01*
X0022696Y0337192D01*
X0022856Y0337098D01*
X0023013Y0337001D01*
X0023168Y0336900D01*
X0023321Y0336796D01*
X0023471Y0336687D01*
X0023618Y0336575D01*
X0023763Y0336460D01*
X0023904Y0336341D01*
X0024043Y0336218D01*
X0024178Y0336092D01*
X0024311Y0335963D01*
X0024440Y0335830D01*
X0024566Y0335695D01*
X0024689Y0335556D01*
X0024808Y0335415D01*
X0024923Y0335270D01*
X0025035Y0335123D01*
X0025144Y0334973D01*
X0025248Y0334820D01*
X0025349Y0334665D01*
X0025446Y0334508D01*
X0025540Y0334348D01*
X0025629Y0334186D01*
X0025714Y0334022D01*
X0025795Y0333855D01*
X0025872Y0333687D01*
X0025945Y0333517D01*
X0026014Y0333345D01*
X0026078Y0333172D01*
X0026138Y0332997D01*
X0026194Y0332820D01*
X0026246Y0332643D01*
X0026293Y0332464D01*
X0026336Y0332284D01*
X0026374Y0332103D01*
X0026408Y0331921D01*
X0026437Y0331738D01*
X0026462Y0331555D01*
X0026483Y0331371D01*
X0026499Y0331187D01*
X0026510Y0331002D01*
X0026517Y0330817D01*
X0026519Y0330632D01*
X0026517Y0330447D01*
X0026510Y0330262D01*
X0026499Y0330077D01*
X0026483Y0329893D01*
X0026462Y0329709D01*
X0026437Y0329526D01*
X0026408Y0329343D01*
X0026374Y0329161D01*
X0026336Y0328980D01*
X0026293Y0328800D01*
X0026246Y0328621D01*
X0026194Y0328444D01*
X0026138Y0328267D01*
X0026078Y0328092D01*
X0026014Y0327919D01*
X0025945Y0327747D01*
X0025872Y0327577D01*
X0025795Y0327409D01*
X0025714Y0327242D01*
X0025629Y0327078D01*
X0025540Y0326916D01*
X0025446Y0326756D01*
X0025349Y0326599D01*
X0025248Y0326444D01*
X0025144Y0326291D01*
X0025035Y0326141D01*
X0024923Y0325994D01*
X0024808Y0325849D01*
X0024689Y0325708D01*
X0024566Y0325569D01*
X0024440Y0325434D01*
X0024311Y0325301D01*
X0024178Y0325172D01*
X0024043Y0325046D01*
X0023904Y0324923D01*
X0023763Y0324804D01*
X0023618Y0324689D01*
X0023471Y0324577D01*
X0023321Y0324468D01*
X0023168Y0324364D01*
X0023013Y0324263D01*
X0022856Y0324166D01*
X0022696Y0324072D01*
X0022534Y0323983D01*
X0022370Y0323898D01*
X0022203Y0323817D01*
X0022035Y0323740D01*
X0021865Y0323667D01*
X0021693Y0323598D01*
X0021520Y0323534D01*
X0021345Y0323474D01*
X0021168Y0323418D01*
X0020991Y0323366D01*
X0020812Y0323319D01*
X0020632Y0323276D01*
X0020451Y0323238D01*
X0020269Y0323204D01*
X0020086Y0323175D01*
X0019903Y0323150D01*
X0019719Y0323129D01*
X0019535Y0323113D01*
X0019350Y0323102D01*
X0019165Y0323095D01*
X0018980Y0323093D01*
X0018795Y0323095D01*
X0018610Y0323102D01*
X0018425Y0323113D01*
X0018241Y0323129D01*
X0018057Y0323150D01*
X0017874Y0323175D01*
X0017691Y0323204D01*
X0017509Y0323238D01*
X0017328Y0323276D01*
X0017148Y0323319D01*
X0016969Y0323366D01*
X0016792Y0323418D01*
X0016615Y0323474D01*
X0016440Y0323534D01*
X0016267Y0323598D01*
X0016095Y0323667D01*
X0015925Y0323740D01*
X0015757Y0323817D01*
X0015590Y0323898D01*
X0015426Y0323983D01*
X0015264Y0324072D01*
X0015104Y0324166D01*
X0014947Y0324263D01*
X0014792Y0324364D01*
X0014639Y0324468D01*
X0014489Y0324577D01*
X0014342Y0324689D01*
X0014197Y0324804D01*
X0014056Y0324923D01*
X0013917Y0325046D01*
X0013782Y0325172D01*
X0013649Y0325301D01*
X0013520Y0325434D01*
X0013394Y0325569D01*
X0013271Y0325708D01*
X0013152Y0325849D01*
X0013037Y0325994D01*
X0012925Y0326141D01*
X0012816Y0326291D01*
X0012712Y0326444D01*
X0012611Y0326599D01*
X0012514Y0326756D01*
X0012420Y0326916D01*
X0012331Y0327078D01*
X0012246Y0327242D01*
X0012165Y0327409D01*
X0012088Y0327577D01*
X0012015Y0327747D01*
X0011946Y0327919D01*
X0011882Y0328092D01*
X0011822Y0328267D01*
X0011766Y0328444D01*
X0011714Y0328621D01*
X0011667Y0328800D01*
X0011624Y0328980D01*
X0011586Y0329161D01*
X0011552Y0329343D01*
X0011523Y0329526D01*
X0011498Y0329709D01*
X0011477Y0329893D01*
X0011461Y0330077D01*
X0011450Y0330262D01*
X0011443Y0330447D01*
X0011441Y0330632D01*
X0008980Y0340472D02*
X0048980Y0340472D01*
X0045153Y0334857D02*
X0041460Y0331164D01*
X0038980Y0328683D01*
X0038350Y0328054D01*
X0034756Y0324459D01*
X0032807Y0326408D02*
X0036464Y0330065D01*
X0038980Y0332581D01*
X0039448Y0333050D01*
X0043204Y0336806D01*
X0031441Y0330632D02*
X0031443Y0330817D01*
X0031450Y0331002D01*
X0031461Y0331187D01*
X0031477Y0331371D01*
X0031498Y0331555D01*
X0031523Y0331738D01*
X0031552Y0331921D01*
X0031586Y0332103D01*
X0031624Y0332284D01*
X0031667Y0332464D01*
X0031714Y0332643D01*
X0031766Y0332820D01*
X0031822Y0332997D01*
X0031882Y0333172D01*
X0031946Y0333345D01*
X0032015Y0333517D01*
X0032088Y0333687D01*
X0032165Y0333855D01*
X0032246Y0334022D01*
X0032331Y0334186D01*
X0032420Y0334348D01*
X0032514Y0334508D01*
X0032611Y0334665D01*
X0032712Y0334820D01*
X0032816Y0334973D01*
X0032925Y0335123D01*
X0033037Y0335270D01*
X0033152Y0335415D01*
X0033271Y0335556D01*
X0033394Y0335695D01*
X0033520Y0335830D01*
X0033649Y0335963D01*
X0033782Y0336092D01*
X0033917Y0336218D01*
X0034056Y0336341D01*
X0034197Y0336460D01*
X0034342Y0336575D01*
X0034489Y0336687D01*
X0034639Y0336796D01*
X0034792Y0336900D01*
X0034947Y0337001D01*
X0035104Y0337098D01*
X0035264Y0337192D01*
X0035426Y0337281D01*
X0035590Y0337366D01*
X0035757Y0337447D01*
X0035925Y0337524D01*
X0036095Y0337597D01*
X0036267Y0337666D01*
X0036440Y0337730D01*
X0036615Y0337790D01*
X0036792Y0337846D01*
X0036969Y0337898D01*
X0037148Y0337945D01*
X0037328Y0337988D01*
X0037509Y0338026D01*
X0037691Y0338060D01*
X0037874Y0338089D01*
X0038057Y0338114D01*
X0038241Y0338135D01*
X0038425Y0338151D01*
X0038610Y0338162D01*
X0038795Y0338169D01*
X0038980Y0338171D01*
X0039165Y0338169D01*
X0039350Y0338162D01*
X0039535Y0338151D01*
X0039719Y0338135D01*
X0039903Y0338114D01*
X0040086Y0338089D01*
X0040269Y0338060D01*
X0040451Y0338026D01*
X0040632Y0337988D01*
X0040812Y0337945D01*
X0040991Y0337898D01*
X0041168Y0337846D01*
X0041345Y0337790D01*
X0041520Y0337730D01*
X0041693Y0337666D01*
X0041865Y0337597D01*
X0042035Y0337524D01*
X0042203Y0337447D01*
X0042370Y0337366D01*
X0042534Y0337281D01*
X0042696Y0337192D01*
X0042856Y0337098D01*
X0043013Y0337001D01*
X0043168Y0336900D01*
X0043321Y0336796D01*
X0043471Y0336687D01*
X0043618Y0336575D01*
X0043763Y0336460D01*
X0043904Y0336341D01*
X0044043Y0336218D01*
X0044178Y0336092D01*
X0044311Y0335963D01*
X0044440Y0335830D01*
X0044566Y0335695D01*
X0044689Y0335556D01*
X0044808Y0335415D01*
X0044923Y0335270D01*
X0045035Y0335123D01*
X0045144Y0334973D01*
X0045248Y0334820D01*
X0045349Y0334665D01*
X0045446Y0334508D01*
X0045540Y0334348D01*
X0045629Y0334186D01*
X0045714Y0334022D01*
X0045795Y0333855D01*
X0045872Y0333687D01*
X0045945Y0333517D01*
X0046014Y0333345D01*
X0046078Y0333172D01*
X0046138Y0332997D01*
X0046194Y0332820D01*
X0046246Y0332643D01*
X0046293Y0332464D01*
X0046336Y0332284D01*
X0046374Y0332103D01*
X0046408Y0331921D01*
X0046437Y0331738D01*
X0046462Y0331555D01*
X0046483Y0331371D01*
X0046499Y0331187D01*
X0046510Y0331002D01*
X0046517Y0330817D01*
X0046519Y0330632D01*
X0046517Y0330447D01*
X0046510Y0330262D01*
X0046499Y0330077D01*
X0046483Y0329893D01*
X0046462Y0329709D01*
X0046437Y0329526D01*
X0046408Y0329343D01*
X0046374Y0329161D01*
X0046336Y0328980D01*
X0046293Y0328800D01*
X0046246Y0328621D01*
X0046194Y0328444D01*
X0046138Y0328267D01*
X0046078Y0328092D01*
X0046014Y0327919D01*
X0045945Y0327747D01*
X0045872Y0327577D01*
X0045795Y0327409D01*
X0045714Y0327242D01*
X0045629Y0327078D01*
X0045540Y0326916D01*
X0045446Y0326756D01*
X0045349Y0326599D01*
X0045248Y0326444D01*
X0045144Y0326291D01*
X0045035Y0326141D01*
X0044923Y0325994D01*
X0044808Y0325849D01*
X0044689Y0325708D01*
X0044566Y0325569D01*
X0044440Y0325434D01*
X0044311Y0325301D01*
X0044178Y0325172D01*
X0044043Y0325046D01*
X0043904Y0324923D01*
X0043763Y0324804D01*
X0043618Y0324689D01*
X0043471Y0324577D01*
X0043321Y0324468D01*
X0043168Y0324364D01*
X0043013Y0324263D01*
X0042856Y0324166D01*
X0042696Y0324072D01*
X0042534Y0323983D01*
X0042370Y0323898D01*
X0042203Y0323817D01*
X0042035Y0323740D01*
X0041865Y0323667D01*
X0041693Y0323598D01*
X0041520Y0323534D01*
X0041345Y0323474D01*
X0041168Y0323418D01*
X0040991Y0323366D01*
X0040812Y0323319D01*
X0040632Y0323276D01*
X0040451Y0323238D01*
X0040269Y0323204D01*
X0040086Y0323175D01*
X0039903Y0323150D01*
X0039719Y0323129D01*
X0039535Y0323113D01*
X0039350Y0323102D01*
X0039165Y0323095D01*
X0038980Y0323093D01*
X0038795Y0323095D01*
X0038610Y0323102D01*
X0038425Y0323113D01*
X0038241Y0323129D01*
X0038057Y0323150D01*
X0037874Y0323175D01*
X0037691Y0323204D01*
X0037509Y0323238D01*
X0037328Y0323276D01*
X0037148Y0323319D01*
X0036969Y0323366D01*
X0036792Y0323418D01*
X0036615Y0323474D01*
X0036440Y0323534D01*
X0036267Y0323598D01*
X0036095Y0323667D01*
X0035925Y0323740D01*
X0035757Y0323817D01*
X0035590Y0323898D01*
X0035426Y0323983D01*
X0035264Y0324072D01*
X0035104Y0324166D01*
X0034947Y0324263D01*
X0034792Y0324364D01*
X0034639Y0324468D01*
X0034489Y0324577D01*
X0034342Y0324689D01*
X0034197Y0324804D01*
X0034056Y0324923D01*
X0033917Y0325046D01*
X0033782Y0325172D01*
X0033649Y0325301D01*
X0033520Y0325434D01*
X0033394Y0325569D01*
X0033271Y0325708D01*
X0033152Y0325849D01*
X0033037Y0325994D01*
X0032925Y0326141D01*
X0032816Y0326291D01*
X0032712Y0326444D01*
X0032611Y0326599D01*
X0032514Y0326756D01*
X0032420Y0326916D01*
X0032331Y0327078D01*
X0032246Y0327242D01*
X0032165Y0327409D01*
X0032088Y0327577D01*
X0032015Y0327747D01*
X0031946Y0327919D01*
X0031882Y0328092D01*
X0031822Y0328267D01*
X0031766Y0328444D01*
X0031714Y0328621D01*
X0031667Y0328800D01*
X0031624Y0328980D01*
X0031586Y0329161D01*
X0031552Y0329343D01*
X0031523Y0329526D01*
X0031498Y0329709D01*
X0031477Y0329893D01*
X0031461Y0330077D01*
X0031450Y0330262D01*
X0031443Y0330447D01*
X0031441Y0330632D01*
X0036464Y0330066D02*
X0036485Y0329967D01*
X0036509Y0329870D01*
X0036537Y0329773D01*
X0036568Y0329678D01*
X0036604Y0329584D01*
X0036643Y0329492D01*
X0036686Y0329401D01*
X0036732Y0329312D01*
X0036782Y0329224D01*
X0036835Y0329139D01*
X0036891Y0329056D01*
X0036951Y0328975D01*
X0037013Y0328897D01*
X0037079Y0328821D01*
X0037148Y0328748D01*
X0037219Y0328677D01*
X0037293Y0328609D01*
X0037370Y0328545D01*
X0037449Y0328483D01*
X0037531Y0328425D01*
X0037615Y0328369D01*
X0037701Y0328318D01*
X0037789Y0328269D01*
X0037879Y0328224D01*
X0037970Y0328183D01*
X0038063Y0328145D01*
X0038158Y0328111D01*
X0038253Y0328080D01*
X0038350Y0328054D01*
X0041460Y0331164D02*
X0041434Y0331261D01*
X0041403Y0331356D01*
X0041369Y0331451D01*
X0041331Y0331544D01*
X0041290Y0331635D01*
X0041245Y0331725D01*
X0041196Y0331813D01*
X0041145Y0331899D01*
X0041089Y0331983D01*
X0041031Y0332065D01*
X0040969Y0332144D01*
X0040905Y0332221D01*
X0040837Y0332295D01*
X0040766Y0332366D01*
X0040693Y0332435D01*
X0040617Y0332501D01*
X0040539Y0332563D01*
X0040458Y0332623D01*
X0040375Y0332679D01*
X0040290Y0332732D01*
X0040202Y0332782D01*
X0040113Y0332828D01*
X0040022Y0332871D01*
X0039930Y0332910D01*
X0039836Y0332946D01*
X0039741Y0332977D01*
X0039644Y0333005D01*
X0039547Y0333029D01*
X0039448Y0333050D01*
D19*
X0041189Y0054943D02*
X0045520Y0054943D01*
X0045520Y0051400D02*
X0041189Y0051400D01*
X0041189Y0054943D01*
X0053480Y0054943D02*
X0057811Y0054943D01*
X0057811Y0051400D01*
X0053480Y0051400D01*
X0053480Y0021085D02*
X0057811Y0021085D01*
X0057811Y0015573D01*
X0053480Y0015573D01*
X0045520Y0015573D02*
X0041189Y0015573D01*
X0041189Y0021085D01*
X0045520Y0021085D01*
X0014811Y0021085D02*
X0014811Y0015573D01*
X0010480Y0015573D01*
X0010480Y0021085D02*
X0014811Y0021085D01*
X0014811Y0051400D02*
X0010480Y0051400D01*
X0010480Y0054943D02*
X0014811Y0054943D01*
X0014811Y0051400D01*
X0084189Y0051400D02*
X0084189Y0054943D01*
X0088520Y0054943D01*
X0088520Y0051400D02*
X0084189Y0051400D01*
X0096480Y0051400D02*
X0100811Y0051400D01*
X0100811Y0054943D01*
X0096480Y0054943D01*
X0096480Y0021085D02*
X0100811Y0021085D01*
X0100811Y0015573D01*
X0096480Y0015573D01*
X0088520Y0015573D02*
X0084189Y0015573D01*
X0084189Y0021085D01*
X0088520Y0021085D01*
X0127189Y0021085D02*
X0127189Y0015573D01*
X0131520Y0015573D01*
X0131520Y0021085D02*
X0127189Y0021085D01*
X0127189Y0051400D02*
X0127189Y0054943D01*
X0131520Y0054943D01*
X0131520Y0051400D02*
X0127189Y0051400D01*
D20*
X0119200Y0061849D03*
X0108800Y0061849D03*
X0076200Y0061849D03*
X0065800Y0061849D03*
X0033200Y0061849D03*
X0022800Y0061849D03*
D21*
X0016500Y0061849D02*
X0013000Y0061849D01*
X0039500Y0061849D02*
X0043000Y0061849D01*
X0056000Y0061849D02*
X0059500Y0061849D01*
X0082500Y0061849D02*
X0086000Y0061849D01*
X0099000Y0061849D02*
X0102500Y0061849D01*
X0125500Y0061849D02*
X0129000Y0061849D01*
D22*
X0124750Y0061849D03*
X0103250Y0061849D03*
X0081750Y0061849D03*
X0060250Y0061849D03*
X0038750Y0061849D03*
X0017250Y0061849D03*
D23*
X0028409Y0070830D03*
X0031609Y0070830D03*
X0047409Y0080830D03*
X0050609Y0080830D03*
X0096691Y0089768D03*
X0099891Y0089768D03*
X0106009Y0083030D03*
X0109209Y0083030D03*
X0103591Y0068868D03*
X0100391Y0068868D03*
X0082609Y0188930D03*
X0079409Y0188930D03*
X0065409Y0188630D03*
X0062209Y0188630D03*
X0052491Y0188568D03*
X0049291Y0188568D03*
D24*
X0071866Y0086345D03*
D25*
X0066354Y0086099D03*
X0066354Y0088599D03*
X0066354Y0083599D03*
X0066354Y0081099D03*
X0066354Y0078599D03*
X0066354Y0076099D03*
X0066354Y0073599D03*
X0066354Y0071099D03*
X0085646Y0071099D03*
X0085646Y0073599D03*
X0085646Y0076099D03*
X0085646Y0078599D03*
X0085646Y0081099D03*
X0085646Y0083599D03*
X0085646Y0086099D03*
X0085646Y0088599D03*
D26*
X0086532Y0096849D03*
X0063698Y0096849D03*
D27*
X0084465Y0096849D03*
D28*
X0089000Y0109849D03*
X0079000Y0109849D03*
X0069000Y0109849D03*
X0059000Y0109849D03*
X0029000Y0143849D03*
X0029000Y0153849D03*
X0019000Y0153849D03*
X0019000Y0143849D03*
X0049000Y0196849D03*
X0059000Y0196849D03*
X0069000Y0196849D03*
X0079000Y0196849D03*
X0089000Y0196849D03*
X0099000Y0196849D03*
X0126200Y0113149D03*
X0126200Y0103149D03*
X0126200Y0093149D03*
X0126200Y0083149D03*
X0126200Y0073149D03*
D29*
X0058900Y0315949D03*
X0058900Y0326349D03*
M02*
